<svg width="24" height="25" viewBox="0 0 24 25" fill="none" xmlns="http://www.w3.org/2000/svg">
<path fill-rule="evenodd" clip-rule="evenodd" d="M14.7308 5.7819C14.8892 5.96264 14.9782 6.20763 14.9782 6.46307C14.9782 6.71851 14.8892 6.9635 14.7308 7.14424L10.0419 12.4882L14.7308 17.8309C14.8139 17.9191 14.8805 18.0255 14.9268 18.1438C14.973 18.262 14.9979 18.3897 14.9999 18.5191C15.0019 18.6485 14.981 18.7771 14.9384 18.8971C14.8959 19.0171 14.8326 19.1261 14.7522 19.2177C14.6719 19.3092 14.5762 19.3814 14.4709 19.4298C14.3655 19.4783 14.2527 19.5021 14.1391 19.4998C14.0255 19.4976 13.9135 19.4692 13.8098 19.4166C13.706 19.3639 13.6126 19.2879 13.5351 19.1932L8.2474 13.1694C8.08898 12.9886 8 12.7436 8 12.4882C8 12.2328 8.08898 11.9878 8.2474 11.807L13.5351 5.7819C13.6938 5.60139 13.9088 5.5 14.1329 5.5C14.3571 5.5 14.5721 5.60139 14.7308 5.7819Z" fill="#212121"/>
</svg>
