<svg width="24" height="24" viewBox="0 0 24 24" fill="none" xmlns="http://www.w3.org/2000/svg">
<path fill-rule="evenodd" clip-rule="evenodd" d="M14.7308 5.2819C14.8892 5.46264 14.9782 5.70763 14.9782 5.96307C14.9782 6.21851 14.8892 6.4635 14.7308 6.64424L10.0419 11.9882L14.7308 17.3309C14.8139 17.4191 14.8805 17.5255 14.9268 17.6438C14.973 17.762 14.9979 17.8897 14.9999 18.0191C15.0019 18.1485 14.981 18.2771 14.9384 18.3971C14.8959 18.5171 14.8326 18.6261 14.7522 18.7177C14.6719 18.8092 14.5762 18.8814 14.4709 18.9298C14.3655 18.9783 14.2527 19.0021 14.1391 18.9998C14.0255 18.9976 13.9135 18.9692 13.8098 18.9166C13.706 18.8639 13.6126 18.7879 13.5351 18.6932L8.2474 12.6694C8.08898 12.4886 8 12.2436 8 11.9882C8 11.7328 8.08898 11.4878 8.2474 11.307L13.5351 5.2819C13.6938 5.10139 13.9088 5 14.1329 5C14.3571 5 14.5721 5.10139 14.7308 5.2819Z" fill="#212121"/>
</svg>
