<svg width="80" height="80" viewBox="0 0 80 80" fill="none" xmlns="http://www.w3.org/2000/svg">
<path d="M73.9236 21.2437H45.7971V20.6641H33.0435V21.2437H4.80114C4.29651 21.2437 3.81255 21.4442 3.45573 21.801C3.0989 22.1578 2.89844 22.6417 2.89844 23.1463V61.6582C2.89844 62.1628 3.0989 62.6467 3.45573 63.0035C3.81255 63.3604 4.29651 63.5608 4.80114 63.5608H73.9236C74.4283 63.5608 74.9122 63.3604 75.269 63.0035C75.6259 62.6467 75.8263 62.1628 75.8263 61.6582V23.1461C75.8263 22.6416 75.6258 22.1577 75.269 21.8009C74.9121 21.4441 74.4282 21.2437 73.9236 21.2437Z" fill="#3F3D56"/>
<path d="M73.2753 24.6035H5.44922V62.8627H73.2753V24.6035Z" fill="#E6E6E6"/>
<path d="M70.4205 26.6289H8.32422V59.6992H70.4205V26.6289Z" fill="white"/>
<path d="M39.3051 23.5622C39.6893 23.5622 40.0007 23.2507 40.0007 22.8665C40.0007 22.4823 39.6893 22.1709 39.3051 22.1709C38.9208 22.1709 38.6094 22.4823 38.6094 22.8665C38.6094 23.2507 38.9208 23.5622 39.3051 23.5622Z" fill="#7745AF"/>
<path d="M77.7305 62.1712H71.1111V61.6942C71.1111 61.6691 71.1012 61.6451 71.0834 61.6273C71.0657 61.6096 71.0416 61.5996 71.0165 61.5996H68.747C68.7219 61.5996 68.6979 61.6096 68.6801 61.6273C68.6624 61.6451 68.6524 61.6691 68.6524 61.6942V62.1712H67.2341V61.6942C67.2341 61.6691 67.2241 61.6451 67.2063 61.6273C67.1886 61.6096 67.1645 61.5996 67.1395 61.5996H64.8699C64.8449 61.5996 64.8208 61.6096 64.8031 61.6273C64.7853 61.6451 64.7754 61.6691 64.7754 61.6942V62.1712H63.357V61.6942C63.357 61.6691 63.347 61.6451 63.3293 61.6273C63.3115 61.6096 63.2875 61.5996 63.2624 61.5996H60.9929C60.9678 61.5996 60.9437 61.6096 60.926 61.6273C60.9082 61.6451 60.8983 61.6691 60.8983 61.6942V62.1712H59.4799V61.6942C59.4799 61.6691 59.4699 61.6451 59.4522 61.6273C59.4344 61.6096 59.4104 61.5996 59.3853 61.5996H57.1159C57.0908 61.5996 57.0667 61.6096 57.049 61.6273C57.0313 61.6451 57.0213 61.6691 57.0213 61.6942V62.1712H55.6028V61.6942C55.6028 61.6691 55.5928 61.6451 55.5751 61.6273C55.5574 61.6096 55.5333 61.5996 55.5082 61.5996H53.2388C53.2137 61.5996 53.1897 61.6096 53.1719 61.6273C53.1542 61.6451 53.1442 61.6691 53.1442 61.6942V62.1712H51.7257V61.6942C51.7257 61.6691 51.7158 61.6451 51.698 61.6273C51.6803 61.6096 51.6562 61.5996 51.6311 61.5996H49.3622C49.3371 61.5996 49.313 61.6096 49.2953 61.6273C49.2775 61.6451 49.2676 61.6691 49.2676 61.6942V62.1712H47.8486V61.6942C47.8486 61.6691 47.8387 61.6451 47.8209 61.6273C47.8032 61.6096 47.7791 61.5996 47.7541 61.5996H29.9763C29.9512 61.5996 29.9272 61.6096 29.9094 61.6273C29.8917 61.6451 29.8817 61.6691 29.8817 61.6942V62.1712H28.4634V61.6942C28.4634 61.6691 28.4534 61.6451 28.4356 61.6273C28.4179 61.6096 28.3938 61.5996 28.3688 61.5996H26.0992C26.0742 61.5996 26.0501 61.6096 26.0324 61.6273C26.0146 61.6451 26.0047 61.6691 26.0047 61.6942V62.1712H24.5863V61.6942C24.5863 61.6691 24.5763 61.6451 24.5586 61.6273C24.5408 61.6096 24.5168 61.5996 24.4917 61.5996H22.2223C22.1972 61.5996 22.1731 61.6096 22.1554 61.6273C22.1376 61.6451 22.1277 61.6691 22.1277 61.6942V62.1712H20.7092V61.6942C20.7092 61.6691 20.6992 61.6451 20.6815 61.6273C20.6637 61.6096 20.6397 61.5996 20.6146 61.5996H18.3452C18.3201 61.5996 18.296 61.6096 18.2783 61.6273C18.2606 61.6451 18.2506 61.6691 18.2506 61.6942V62.1712H16.8324V61.6942C16.8324 61.6691 16.8225 61.6451 16.8047 61.6273C16.787 61.6096 16.7629 61.5996 16.7378 61.5996H14.4681C14.443 61.5996 14.419 61.6096 14.4012 61.6273C14.3835 61.6451 14.3735 61.6691 14.3735 61.6942V62.1712H12.9551V61.6942C12.9551 61.6691 12.9452 61.6451 12.9274 61.6273C12.9097 61.6096 12.8856 61.5996 12.8605 61.5996H10.591C10.5659 61.5996 10.5419 61.6096 10.5241 61.6273C10.5064 61.6451 10.4964 61.6691 10.4964 61.6942V62.1712H9.07805V61.6942C9.07805 61.6691 9.06809 61.6451 9.05035 61.6273C9.03261 61.6096 9.00855 61.5996 8.98346 61.5996H6.71351C6.68843 61.5996 6.66437 61.6096 6.64663 61.6273C6.62889 61.6451 6.61892 61.6691 6.61892 61.6942V62.1712H2.26951C1.6676 62.1712 1.09034 62.4103 0.664726 62.8359C0.239109 63.2614 0 63.8387 0 64.4406V65.4667C0 66.0686 0.239109 66.6458 0.664726 67.0714C1.09034 67.497 1.6676 67.7361 2.26951 67.7361H77.7305C78.3324 67.7361 78.9096 67.497 79.3352 67.0714C79.7609 66.6459 80 66.0687 80 65.4668V64.4407C80 63.8388 79.7609 63.2616 79.3353 62.836C78.9097 62.4104 78.3324 62.1713 77.7305 62.1713V62.1712Z" fill="#3F3D56"/>
<path d="M53.104 28.9468H25.6445V57.8104H53.104V28.9468Z" fill="#E6E6E6"/>
<path d="M42.6885 37.1193C44.704 37.1193 46.3379 35.4855 46.3379 33.47C46.3379 31.4546 44.704 29.8208 42.6885 29.8208C40.673 29.8208 39.0391 31.4546 39.0391 33.47C39.0391 35.4855 40.673 37.1193 42.6885 37.1193Z" fill="#A0616A"/>
<path d="M34.2891 57.8755L36.6458 43.0397C36.7711 42.2509 37.063 41.4979 37.502 40.8307C37.941 40.1634 38.517 39.5973 39.1918 39.17C39.8666 38.7428 40.6247 38.4641 41.4156 38.3525C42.2064 38.2409 43.012 38.2991 43.7787 38.5231C45.1191 38.9107 46.2669 39.7842 46.9978 40.9728C47.7287 42.1614 47.9902 43.5798 47.7312 44.9509L45.2664 58.1999L34.2891 57.8755Z" fill="#7745AF"/>
<path d="M43.6951 60.524C43.8774 60.4037 44.0311 60.2448 44.1453 60.0586C44.2595 59.8724 44.3315 59.6635 44.3563 59.4465C44.381 59.2295 44.3579 59.0097 44.2885 58.8026C44.2191 58.5955 44.1051 58.4061 43.9546 58.2478L46.3908 53.5303L43.6472 53.823L41.7544 58.2581C41.5062 58.5288 41.3658 58.8809 41.3596 59.2481C41.3534 59.6152 41.4818 59.9719 41.7207 60.2509C41.9596 60.5298 42.2923 60.7116 42.656 60.7619C43.0198 60.8123 43.3894 60.7277 43.695 60.5241L43.6951 60.524Z" fill="#A0616A"/>
<path d="M44.2179 57.4173C44.0832 57.3982 43.9574 57.3386 43.8574 57.2462L42.9253 56.385C42.8246 56.2915 42.7551 56.1693 42.7261 56.035C42.6971 55.9008 42.71 55.7608 42.7631 55.6341L44.626 51.2186L44.3617 42.4941C44.4389 41.9281 44.7378 41.416 45.1927 41.0703C45.6475 40.7247 46.221 40.5739 46.7871 40.6511C47.3531 40.7283 47.8653 41.0272 48.2109 41.482C48.5565 41.9369 48.7074 42.5104 48.6301 43.0764L49.082 48.5608C49.2194 50.2253 48.7475 51.883 47.754 53.2257L44.8488 57.1529C44.793 57.2284 44.7218 57.2913 44.64 57.3375C44.5582 57.3836 44.4676 57.4121 44.3741 57.4209C44.3221 57.4259 44.2697 57.4247 44.2179 57.4173Z" fill="#7745AF"/>
<path d="M21.6705 31.4834C21.7103 31.6982 21.7966 31.9016 21.9235 32.0794C22.0504 32.2572 22.2148 32.405 22.4049 32.5124C22.5951 32.6198 22.8066 32.6842 23.0243 32.7011C23.2421 32.7179 23.4609 32.6868 23.6654 32.61L27.06 36.6926L27.86 34.0521L24.5138 30.5799C24.3612 30.2461 24.0916 29.9797 23.756 29.831C23.4204 29.6823 23.042 29.6616 22.6921 29.7727C22.3423 29.8839 22.0452 30.1193 21.857 30.4344C21.6688 30.7496 21.6024 31.1227 21.6705 31.4834Z" fill="#A0616A"/>
<path d="M24.3293 33.1752C24.3994 33.0585 24.5034 32.966 24.6274 32.9099L25.7841 32.3874C25.9095 32.3312 26.0491 32.3148 26.1841 32.3404C26.3191 32.3661 26.443 32.4326 26.539 32.5309L29.8789 35.9678L38.0164 39.1261C38.2597 39.2705 38.4723 39.4614 38.6418 39.6879C38.8114 39.9145 38.9347 40.1722 39.0046 40.4464C39.0745 40.7206 39.0897 41.0059 39.0493 41.286C39.0089 41.566 38.9137 41.8354 38.7692 42.0787C38.6246 42.3219 38.4335 42.5344 38.2069 42.7038C37.9802 42.8732 37.7224 42.9962 37.4481 43.066C37.1739 43.1357 36.8886 43.1507 36.6085 43.1101C36.3284 43.0695 36.0591 42.9742 35.8159 42.8295L30.5892 41.1072C29.0028 40.5847 27.6602 39.5038 26.8111 38.0655L24.3272 33.8592C24.2795 33.7783 24.2493 33.6882 24.2387 33.5949C24.228 33.5016 24.2372 33.4071 24.2654 33.3176C24.2812 33.2678 24.3027 33.22 24.3297 33.1753L24.3293 33.1752Z" fill="#7745AF"/>
<path opacity="0.1" d="M45.6474 46.1255L45.4989 50.88L42.7617 55.6365L45.0472 50.3362L45.6474 46.1255Z" fill="black"/>
<path d="M40.2163 31.6436C40.5927 32.0891 41.2297 32.2147 41.8174 32.2663C43.0108 32.3709 44.7461 32.2014 45.9124 31.9319C45.9956 32.7387 45.7687 33.6085 46.2439 34.2721C46.4666 33.4687 46.5962 32.6423 46.6299 31.8092C46.6443 31.4525 46.6387 31.0823 46.4935 30.7543C46.3483 30.4264 46.0316 30.148 45.667 30.1451C45.9379 29.9396 46.2552 29.8039 46.591 29.7501L45.4364 29.1699L45.7329 28.8655L43.6426 28.7376L44.248 28.3529C43.3367 28.2279 42.4149 28.1989 41.4976 28.2665C41.0716 28.2978 40.6262 28.3578 40.2811 28.6046C39.9361 28.8514 39.7366 29.3419 39.9509 29.7042C39.6826 29.7483 39.4301 29.8601 39.2171 30.029C39.0042 30.198 38.8379 30.4185 38.734 30.6697C38.5802 31.0597 38.5942 31.493 38.6417 31.9087C38.7204 32.5735 38.875 33.227 39.1022 33.8567" fill="#2F2E41"/>
<path d="M55.819 22.498L22.5651 30.175C22.4018 30.2125 22.2303 30.1837 22.0882 30.0949C21.9461 30.0061 21.8451 29.8646 21.8072 29.7014L19.9028 21.4529C19.8653 21.2896 19.8941 21.1181 19.9829 20.976C20.0717 20.8339 20.2132 20.7328 20.3764 20.6949L53.6302 13.018C53.7935 12.9805 53.9651 13.0093 54.1072 13.0981C54.2492 13.1869 54.3503 13.3284 54.3882 13.4916L56.2926 21.7401C56.3301 21.9034 56.3013 22.0749 56.2125 22.217C56.1237 22.3591 55.9822 22.4602 55.819 22.498Z" fill="white"/>
<path d="M55.819 22.498L22.5651 30.175C22.4018 30.2125 22.2303 30.1837 22.0882 30.0949C21.9461 30.0061 21.8451 29.8646 21.8072 29.7014L19.9028 21.4529C19.8653 21.2896 19.8941 21.1181 19.9829 20.976C20.0717 20.8339 20.2132 20.7328 20.3764 20.6949L53.6302 13.018C53.7935 12.9805 53.9651 13.0093 54.1072 13.0981C54.2492 13.1869 54.3503 13.3284 54.3882 13.4916L56.2926 21.7401C56.3301 21.9034 56.3013 22.0749 56.2125 22.217C56.1237 22.3591 55.9822 22.4602 55.819 22.498ZM20.4333 20.9413C20.3353 20.964 20.2504 21.0247 20.1971 21.1099C20.1438 21.1952 20.1266 21.2981 20.1491 21.3961L22.0535 29.6446C22.0762 29.7426 22.1368 29.8275 22.2221 29.8808C22.3074 29.9341 22.4103 29.9513 22.5083 29.9288L55.7621 22.2519C55.8601 22.2292 55.945 22.1685 55.9983 22.0833C56.0516 21.998 56.0689 21.8951 56.0463 21.7971L54.1419 13.5485C54.1192 13.4505 54.0586 13.3656 53.9733 13.3123C53.888 13.259 53.7851 13.2417 53.6871 13.2643L20.4333 20.9413Z" fill="#E6E6E6"/>
<path d="M31.9701 20.9174C31.9152 20.9299 31.8633 20.9532 31.8173 20.9858C31.7714 21.0185 31.7323 21.0598 31.7024 21.1076C31.6724 21.1553 31.6521 21.2085 31.6427 21.2641C31.6333 21.3196 31.635 21.3765 31.6475 21.4314C31.6601 21.4864 31.6834 21.5383 31.7161 21.5842C31.7487 21.6302 31.7901 21.6692 31.8379 21.6992C31.8856 21.7291 31.9388 21.7493 31.9944 21.7587C32.0499 21.7681 32.1068 21.7664 32.1617 21.7538L32.1632 21.7535L51.8726 17.2034C51.9834 17.1777 52.0794 17.109 52.1395 17.0126C52.1997 16.9161 52.2191 16.7998 52.1936 16.689C52.168 16.5782 52.0995 16.4821 52.0031 16.4218C51.9068 16.3615 51.7904 16.3419 51.6796 16.3673L31.9701 20.9174Z" fill="#E6E6E6"/>
<path d="M32.5483 23.4202C32.4933 23.4328 32.4414 23.456 32.3955 23.4887C32.3495 23.5213 32.3104 23.5627 32.2805 23.6104C32.2505 23.6582 32.2303 23.7113 32.2209 23.7669C32.2115 23.8225 32.2131 23.8793 32.2257 23.9343C32.2383 23.9892 32.2615 24.0411 32.2942 24.0871C32.3268 24.133 32.3682 24.1721 32.416 24.202C32.4637 24.2319 32.5169 24.2522 32.5725 24.2616C32.6281 24.2709 32.6849 24.2693 32.7399 24.2567L32.7413 24.2563L41.2223 22.2984C41.3332 22.273 41.4295 22.2046 41.4899 22.1082C41.5504 22.0118 41.57 21.8953 41.5446 21.7844C41.5192 21.6735 41.4508 21.5773 41.3545 21.5168C41.2581 21.4563 41.1417 21.4366 41.0308 21.462L41.0293 21.4623L32.5483 23.4202Z" fill="#E6E6E6"/>
<path d="M26.5823 26.4822C28.0041 26.4822 29.1568 25.3297 29.1568 23.9079C29.1568 22.4861 28.0041 21.3335 26.5823 21.3335C25.1604 21.3335 24.0078 22.4861 24.0078 23.9079C24.0078 25.3297 25.1604 26.4822 26.5823 26.4822Z" fill="#7745AF"/>
<path d="M26.5089 25.3942C26.4247 25.4137 26.3364 25.4054 26.2573 25.3704L26.2523 25.3682L25.2164 24.8979C25.1683 24.8762 25.125 24.8451 25.0889 24.8065C25.0528 24.768 25.0247 24.7227 25.0061 24.6733C24.9876 24.6238 24.9789 24.5712 24.9807 24.5185C24.9825 24.4657 24.9947 24.4138 25.0165 24.3657C25.0384 24.3176 25.0695 24.2744 25.1081 24.2383C25.1467 24.2023 25.192 24.1742 25.2415 24.1557C25.291 24.1372 25.3436 24.1287 25.3964 24.1305C25.4491 24.1324 25.501 24.1446 25.5491 24.1666L26.2203 24.4721L27.162 22.403C27.2061 22.3062 27.2869 22.2308 27.3865 22.1935C27.4862 22.1561 27.5967 22.1599 27.6935 22.204L27.6879 22.2175L27.6939 22.2039C27.7907 22.2481 27.866 22.3289 27.9033 22.4286C27.9406 22.5283 27.9368 22.6387 27.8928 22.7356L26.7853 25.1696C26.7596 25.2257 26.7214 25.2751 26.6735 25.314C26.6257 25.3529 26.5695 25.3803 26.5093 25.394L26.5089 25.3942Z" fill="white"/>
</svg>
