<svg width="14" height="4" viewBox="0 0 14 4" fill="none" xmlns="http://www.w3.org/2000/svg">
<mask id="mask0_3890_202604" style="mask-type:alpha" maskUnits="userSpaceOnUse" x="-4" y="-9" width="22" height="22">
<rect x="-3.49897" y="12.251" width="21.0021" height="21.0021" transform="rotate(-90 -3.49897 12.251)" fill="#D9D9D9"/>
</mask>
<g mask="url(#mask0_3890_202604)">
<path d="M14.0014 1.75009C14.0014 2.23138 13.83 2.6434 13.4873 2.98614C13.1445 3.32889 12.7325 3.50026 12.2512 3.50026C11.7699 3.50026 11.3579 3.32889 11.0151 2.98614C10.6724 2.6434 10.501 2.23138 10.501 1.75009C10.501 1.26879 10.6724 0.856769 11.0151 0.514027C11.3579 0.171286 11.7699 -8.53741e-05 12.2512 -8.53741e-05C12.7325 -8.53741e-05 13.1445 0.171286 13.4873 0.514027C13.83 0.856769 14.0014 1.26879 14.0014 1.75009ZM8.75085 1.75009C8.75085 2.23138 8.57948 2.6434 8.23674 2.98614C7.894 3.32889 7.48198 3.50026 7.00068 3.50026C6.51939 3.50026 6.10737 3.32889 5.76463 2.98614C5.42188 2.6434 5.25051 2.23138 5.25051 1.75009C5.25051 1.26879 5.42188 0.856769 5.76463 0.514027C6.10737 0.171286 6.51939 -8.53741e-05 7.00068 -8.53741e-05C7.48198 -8.53741e-05 7.894 0.171286 8.23674 0.514027C8.57948 0.856769 8.75085 1.26879 8.75085 1.75009ZM3.50034 1.75009C3.50034 2.23138 3.32897 2.6434 2.98623 2.98614C2.64349 3.32889 2.23147 3.50026 1.75017 3.50026C1.26887 3.50026 0.856855 3.32889 0.514113 2.98614C0.171371 2.6434 0 2.23138 0 1.75009C0 1.26879 0.171371 0.856769 0.514113 0.514027C0.856855 0.171286 1.26887 -8.53741e-05 1.75017 -8.53741e-05C2.23147 -8.53741e-05 2.64349 0.171286 2.98623 0.514027C3.32897 0.856769 3.50034 1.26879 3.50034 1.75009Z" fill="#808080"/>
</g>
</svg>
