<svg width="40" height="40" viewBox="0 0 40 40" fill="none" xmlns="http://www.w3.org/2000/svg">
<mask id="mask0_0_275" style="mask-type:alpha" maskUnits="userSpaceOnUse" x="0" y="0" width="40" height="40">
<rect width="40" height="40" fill="#D9D9D9"/>
</mask>
<g mask="url(#mask0_0_275)">
<path d="M7.9299 30.6625C9.51253 29.149 11.3251 27.9405 13.3677 27.037C15.4103 26.1335 17.621 25.6818 19.9997 25.6818C22.3784 25.6818 24.59 26.1335 26.6345 27.037C28.679 27.9405 30.4926 29.149 32.0752 30.6625V8.44033C32.0752 8.31211 32.0218 8.19458 31.9149 8.08775C31.8081 7.98089 31.6906 7.92745 31.5624 7.92745H8.44277C8.31455 7.92745 8.19702 7.98089 8.09019 8.08775C7.98333 8.19458 7.9299 8.31211 7.9299 8.44033V30.6625ZM20.0421 22.1198C21.5428 22.1198 22.8142 21.5988 23.8562 20.5567C24.8982 19.5147 25.4192 18.2434 25.4192 16.7427C25.4192 15.242 24.8982 13.9706 23.8562 12.9286C22.8142 11.8866 21.5428 11.3656 20.0421 11.3656C18.5414 11.3656 17.27 11.8866 16.228 12.9286C15.186 13.9706 14.665 15.242 14.665 16.7427C14.665 18.2434 15.186 19.5147 16.228 20.5567C17.27 21.5988 18.5414 22.1198 20.0421 22.1198ZM8.44277 34.1667C7.72644 34.1667 7.11288 33.9114 6.6021 33.4006C6.09133 32.8898 5.83594 32.2762 5.83594 31.5599V8.44033C5.83594 7.724 6.09133 7.11044 6.6021 6.59966C7.11288 6.08888 7.72644 5.8335 8.44277 5.8335H31.5624C32.2787 5.8335 32.8922 6.08888 33.403 6.59966C33.9138 7.11044 34.1692 7.724 34.1692 8.44033V31.5599C34.1692 32.2762 33.9138 32.8898 33.403 33.4006C32.8922 33.9114 32.2787 34.1667 31.5624 34.1667H8.44277ZM9.83156 32.0728H30.1843V31.7373C28.7028 30.4153 27.1008 29.4246 25.3784 28.765C23.656 28.1055 21.864 27.7757 20.0026 27.7757C18.1543 27.7757 16.3683 28.1028 14.6446 28.757C12.921 29.4113 11.3166 30.394 9.83156 31.7052V32.0728ZM20.0474 20.0258C19.1357 20.0258 18.3597 19.7057 17.7194 19.0654C17.0791 18.425 16.7589 17.6508 16.7589 16.7427C16.7589 15.8346 17.0791 15.0603 17.7194 14.42C18.3597 13.7797 19.134 13.4595 20.0421 13.4595C20.9502 13.4595 21.7244 13.7804 22.3648 14.4222C23.0051 15.0641 23.3252 15.8357 23.3252 16.7373C23.3252 17.649 23.0043 18.425 22.3625 19.0654C21.7207 19.7057 20.949 20.0258 20.0474 20.0258Z" fill="#212121"/>
</g>
</svg>
