<svg width="24" height="24" viewBox="0 0 24 24" fill="none" xmlns="http://www.w3.org/2000/svg">
<path d="M11.9994 17.9757C12.25 17.9757 12.4561 17.8951 12.6176 17.734C12.7791 17.5728 12.8599 17.3669 12.8599 17.1163C12.8599 16.8658 12.7793 16.6597 12.6182 16.4982C12.457 16.3366 12.2511 16.2559 12.0006 16.2559C11.75 16.2559 11.5439 16.3365 11.3824 16.4976C11.2209 16.6588 11.1401 16.8647 11.1401 17.1152C11.1401 17.3658 11.2207 17.5719 11.3818 17.7334C11.543 17.8949 11.7489 17.9757 11.9994 17.9757ZM12.0764 13.5207C12.2813 13.5207 12.451 13.452 12.5854 13.3148C12.7198 13.1776 12.787 13.0073 12.787 12.8041V6.35705C12.787 6.15383 12.7178 5.9836 12.5794 5.84635C12.4411 5.70911 12.2694 5.64049 12.0645 5.64049C11.8596 5.64049 11.6899 5.70911 11.5555 5.84635C11.4211 5.9836 11.3539 6.15383 11.3539 6.35705V12.8041C11.3539 13.0073 11.4231 13.1776 11.5614 13.3148C11.6998 13.452 11.8715 13.5207 12.0764 13.5207ZM12.0105 24C10.3483 24 8.79149 23.6851 7.34007 23.0552C5.88866 22.4253 4.61755 21.5652 3.52675 20.4748C2.43592 19.3845 1.57543 18.1132 0.945255 16.6608C0.315085 15.2085 0 13.6503 0 11.9863C0 10.3304 0.314948 8.77396 0.944845 7.31693C1.57474 5.85989 2.43485 4.59123 3.52517 3.51096C4.61551 2.43066 5.88685 1.57543 7.33919 0.945256C8.79153 0.315086 10.3497 0 12.0137 0C13.6696 0 15.226 0.31495 16.6831 0.944846C18.1401 1.57474 19.4088 2.42959 20.489 3.50938C21.5693 4.58919 22.4246 5.85897 23.0547 7.31873C23.6849 8.77846 24 10.3354 24 11.9895C24 13.6517 23.6851 15.2085 23.0552 16.6599C22.4253 18.1113 21.5704 19.3805 20.4906 20.4674C19.4108 21.5544 18.141 22.4149 16.6813 23.0489C15.2215 23.683 13.6646 24 12.0105 24ZM12.0158 22.5668C14.9462 22.5668 17.4373 21.5377 19.4891 19.4794C21.5409 17.4211 22.5668 14.9227 22.5668 11.9842C22.5668 9.05385 21.5429 6.56274 19.495 4.51091C17.4471 2.45909 14.9488 1.43318 12 1.43318C9.07205 1.43318 6.57893 2.45712 4.52063 4.505C2.46233 6.55288 1.43318 9.05121 1.43318 12C1.43318 14.9279 2.46233 17.4211 4.52063 19.4794C6.57893 21.5377 9.07732 22.5668 12.0158 22.5668Z" fill="#DC362E"/>
</svg>
