<svg width="28" height="28" viewBox="0 0 28 28" fill="none" xmlns="http://www.w3.org/2000/svg">
<mask id="mask0_0_676" style="mask-type:alpha" maskUnits="userSpaceOnUse" x="0" y="0" width="28" height="28">
<rect width="28" height="28" fill="#D9D9D9"/>
</mask>
<g mask="url(#mask0_0_676)">
<path d="M14.001 23.3337C12.7101 23.3337 11.4967 23.0887 10.3609 22.5988C9.22502 22.1089 8.23697 21.444 7.39676 20.6041C6.55653 19.7643 5.89135 18.7767 5.40121 17.6413C4.91108 16.506 4.66602 15.2929 4.66602 14.002C4.66602 12.7111 4.91098 11.4977 5.40089 10.3619C5.89081 9.22599 6.55569 8.23795 7.39553 7.39774C8.23539 6.55751 9.22299 5.89232 10.3584 5.40219C11.4937 4.91206 12.7068 4.66699 13.9977 4.66699C15.2886 4.66699 16.502 4.91195 17.6378 5.40187C18.7737 5.89179 19.7617 6.55667 20.6019 7.39651C21.4422 8.23636 22.1074 9.22397 22.5975 10.3593C23.0876 11.4947 23.3327 12.7078 23.3327 13.9987C23.3327 15.2896 23.0877 16.5029 22.5978 17.6388C22.1079 18.7747 21.443 19.7627 20.6032 20.6029C19.7633 21.4431 18.7757 22.1083 17.6403 22.5985C16.505 23.0886 15.2919 23.3337 14.001 23.3337Z" fill="white"/>
<path d="M13.9993 15.2298L17.5846 18.815C17.7461 18.9766 17.9492 19.0592 18.1937 19.0629C18.4383 19.0667 18.645 18.984 18.814 18.815C18.9831 18.646 19.0676 18.4411 19.0676 18.2003C19.0676 17.9595 18.9831 17.7546 18.814 17.5856L15.2288 14.0003L18.814 10.415C18.9756 10.2535 19.0582 10.0505 19.062 9.8059C19.0657 9.56137 18.9831 9.35459 18.814 9.18558C18.645 9.01655 18.4401 8.93204 18.1993 8.93204C17.9585 8.93204 17.7536 9.01655 17.5846 9.18558L13.9993 12.7708L10.414 9.18558C10.2525 9.02404 10.0495 8.9414 9.80492 8.93766C9.56039 8.93391 9.35362 9.01655 9.1846 9.18558C9.01557 9.35459 8.93106 9.5595 8.93106 9.8003C8.93106 10.0411 9.01557 10.246 9.1846 10.415L12.7699 14.0003L9.1846 17.5856C9.02306 17.7471 8.94042 17.9501 8.93669 18.1947C8.93293 18.4392 9.01557 18.646 9.1846 18.815C9.35362 18.984 9.55852 19.0686 9.79932 19.0686C10.0401 19.0686 10.245 18.984 10.414 18.815L13.9993 15.2298ZM14.0013 25.0836C12.4684 25.0836 11.0275 24.7927 9.67866 24.2109C8.32982 23.6292 7.15652 22.8396 6.15877 21.8423C5.16099 20.845 4.37109 19.6722 3.78906 18.324C3.20703 16.9757 2.91602 15.5352 2.91602 14.0023C2.91602 12.4693 3.2069 11.0285 3.78868 9.67963C4.37046 8.33079 5.16 7.1575 6.15731 6.15974C7.15463 5.16197 8.32741 4.37207 9.67565 3.79004C11.0239 3.20801 12.4644 2.91699 13.9974 2.91699C15.5303 2.91699 16.9712 3.20788 18.32 3.78966C19.6688 4.37144 20.8421 5.16098 21.8399 6.15828C22.8376 7.15561 23.6276 8.32839 24.2096 9.67663C24.7916 11.0249 25.0826 12.4654 25.0826 13.9983C25.0826 15.5313 24.7917 16.9721 24.21 18.321C23.6282 19.6698 22.8386 20.8431 21.8413 21.8409C20.844 22.8386 19.6712 23.6285 18.323 24.2106C16.9748 24.7926 15.5342 25.0836 14.0013 25.0836Z" fill="#DC362E"/>
</g>
</svg>
