<svg width="22" height="22" viewBox="0 0 22 22" fill="none" xmlns="http://www.w3.org/2000/svg">
<path d="M10.9694 21.9999C10.2653 21.9999 9.60201 21.6428 9.13263 21.0204L7.60202 18.9795C7.57141 18.9387 7.44896 18.8877 7.39794 18.8775H6.88774C2.63265 18.8775 0 17.7244 0 11.9898V6.88774C0 2.37754 2.37754 0 6.88774 0H15.051C19.5612 0 21.9387 2.37754 21.9387 6.88774V11.9898C21.9387 16.5 19.5612 18.8775 15.051 18.8775H14.5408C14.4591 18.8775 14.3877 18.9183 14.3367 18.9795L12.8061 21.0204C12.3367 21.6428 11.6734 21.9999 10.9694 21.9999ZM6.88774 1.53061C3.23469 1.53061 1.53061 3.23469 1.53061 6.88774V11.9898C1.53061 16.602 3.11224 17.3469 6.88774 17.3469H7.39794C7.91835 17.3469 8.51018 17.6428 8.82651 18.0612L10.3571 20.102C10.7143 20.5714 11.2245 20.5714 11.5816 20.102L13.1122 18.0612C13.4489 17.6122 13.9796 17.3469 14.5408 17.3469H15.051C18.704 17.3469 20.4081 15.6428 20.4081 11.9898V6.88774C20.4081 3.23469 18.704 1.53061 15.051 1.53061H6.88774Z" fill="#808080"/>
<path d="M10.9694 10.9694C10.3979 10.9694 9.94895 10.5102 9.94895 9.94895C9.94895 9.38773 10.4081 8.92855 10.9694 8.92855C11.5306 8.92855 11.9898 9.38773 11.9898 9.94895C11.9898 10.5102 11.5408 10.9694 10.9694 10.9694Z" fill="#808080"/>
<path d="M15.051 10.9694C14.4796 10.9694 14.0306 10.5102 14.0306 9.94895C14.0306 9.38773 14.4898 8.92855 15.051 8.92855C15.6122 8.92855 16.0714 9.38773 16.0714 9.94895C16.0714 10.5102 15.6224 10.9694 15.051 10.9694Z" fill="#808080"/>
<path d="M6.88774 10.9694C6.31631 10.9694 5.86733 10.5102 5.86733 9.94895C5.86733 9.38773 6.32651 8.92855 6.88774 8.92855C7.44896 8.92855 7.90814 9.38773 7.90814 9.94895C7.90814 10.5102 7.45916 10.9694 6.88774 10.9694Z" fill="#808080"/>
</svg>
