<svg width="20" height="20" viewBox="0 0 20 20" fill="none" xmlns="http://www.w3.org/2000/svg">
<path d="M17.5 10.75V7.75C17.5 4 16 2.5 12.25 2.5H7.75C4 2.5 2.5 4 2.5 7.75V12.25C2.5 16 4 17.5 7.75 17.5H10.75" stroke="white" strokeLinecap="round" strokeLinejoin="round"/>
<path d="M6.49756 11.8673L8.28256 9.54982C8.53756 9.21982 9.01007 9.15983 9.34007 9.41483L10.7126 10.4948C11.0426 10.7498 11.5151 10.6898 11.7701 10.3673L13.5026 8.13232" stroke="white" strokeLinecap="round" strokeLinejoin="round"/>
<path d="M15.6089 12.8651L15.8189 13.2926C15.9239 13.5026 16.1864 13.6976 16.4189 13.7426L16.7039 13.7876C17.5589 13.9301 17.7614 14.5601 17.1464 15.1826L16.8839 15.4451C16.7114 15.6251 16.6139 15.9701 16.6664 16.2101L16.7039 16.3676C16.9364 17.4026 16.3889 17.8001 15.4889 17.2601L15.2939 17.1476C15.0614 17.0126 14.6864 17.0126 14.4539 17.1476L14.2589 17.2601C13.3514 17.8076 12.8039 17.4026 13.0439 16.3676L13.0814 16.2101C13.1339 15.9701 13.0364 15.6251 12.8639 15.4451L12.6014 15.1826C11.9864 14.5601 12.1889 13.9301 13.0439 13.7876L13.3289 13.7426C13.5539 13.7051 13.8239 13.5026 13.9289 13.2926L14.1389 12.8651C14.5439 12.0476 15.2039 12.0476 15.6089 12.8651Z" stroke="white" strokeLinecap="round" strokeLinejoin="round"/>
</svg>
