<svg width="20" height="20" viewBox="0 0 20 20" fill="none" xmlns="http://www.w3.org/2000/svg">
<path d="M10.7495 14.3223C10.651 14.3223 10.5546 14.3514 10.4726 14.406L7.13509 16.626L7.13465 16.6263C6.96971 16.7362 6.74951 16.6178 6.74951 16.4198V14.8223C6.74951 14.5462 6.52565 14.3223 6.24951 14.3223C5.23814 14.3223 4.43418 13.9874 3.88432 13.4375C3.33445 12.8876 2.99951 12.0837 2.99951 11.0723V6.57227C2.99951 5.56089 3.33445 4.75693 3.88432 4.20707C4.43418 3.65721 5.23814 3.32227 6.24951 3.32227H13.7495C14.7609 3.32227 15.5648 3.65721 16.1147 4.20707C16.6646 4.75693 16.9995 5.56089 16.9995 6.57227V11.0723C16.9995 12.0837 16.6646 12.8876 16.1147 13.4375C15.5648 13.9874 14.7609 14.3223 13.7495 14.3223H10.7495Z" stroke="white" strokeMiterlimit="10" strokeLinecap="round" strokeLinejoin="round"/>
<path d="M10.0004 9.51953V9.36206C10.0004 8.85206 10.3154 8.58205 10.6304 8.36455C10.9379 8.15455 11.2453 7.88456 11.2453 7.38956C11.2453 6.69956 10.6904 6.14453 10.0004 6.14453C9.31035 6.14453 8.75537 6.69956 8.75537 7.38956" stroke="white" strokeLinecap="round" strokeLinejoin="round"/>
<path d="M9.99711 11.3125H10.0039" stroke="white" strokeLinecap="round" strokeLinejoin="round"/>
</svg>
