<svg width="16" height="16" viewBox="0 0 16 16" fill="none" xmlns="http://www.w3.org/2000/svg">
<mask id="mask0_3890_205378" style="mask-type:alpha" maskUnits="userSpaceOnUse" x="0" y="0" width="16" height="16">
<rect width="16" height="16" fill="#D9D9D9"/>
</mask>
<g mask="url(#mask0_3890_205378)">
<path d="M7.99955 11.1665C8.14128 11.1665 8.26001 11.1186 8.35573 11.0227C8.45145 10.9269 8.49932 10.8082 8.49932 10.6665V7.83314C8.49932 7.69148 8.45138 7.57274 8.35552 7.4769C8.25964 7.38107 8.14084 7.33315 7.99912 7.33315C7.85738 7.33315 7.73865 7.38107 7.64293 7.4769C7.54721 7.57274 7.49935 7.69148 7.49935 7.83314V10.6665C7.49935 10.8082 7.54728 10.9269 7.64315 11.0227C7.73903 11.1186 7.85783 11.1665 7.99955 11.1665ZM7.99933 6.19214C8.1519 6.19214 8.27978 6.14054 8.38298 6.03734C8.48618 5.93414 8.53778 5.80625 8.53778 5.65369C8.53778 5.50113 8.48618 5.37325 8.38298 5.27004C8.27978 5.16684 8.1519 5.11524 7.99933 5.11524C7.84677 5.11524 7.71888 5.16684 7.61568 5.27004C7.51248 5.37325 7.46088 5.50113 7.46088 5.65369C7.46088 5.80625 7.51248 5.93414 7.61568 6.03734C7.71888 6.14054 7.84677 6.19214 7.99933 6.19214ZM8.00045 14.3331C7.12449 14.3331 6.30114 14.1669 5.53038 13.8345C4.75962 13.502 4.08916 13.0509 3.51902 12.481C2.94886 11.9111 2.49749 11.2409 2.1649 10.4705C1.83231 9.70008 1.66602 8.87689 1.66602 8.00094C1.66602 7.12498 1.83224 6.30163 2.16468 5.53087C2.49713 4.7601 2.94829 4.08965 3.51818 3.5195C4.08808 2.94935 4.75824 2.49798 5.52867 2.16539C6.29908 1.8328 7.12226 1.6665 7.99822 1.6665C8.87417 1.6665 9.69753 1.83273 10.4683 2.16517C11.239 2.49762 11.9095 2.94878 12.4796 3.51867C13.0498 4.08857 13.5012 4.75873 13.8338 5.52915C14.1664 6.29957 14.3327 7.12275 14.3327 7.9987C14.3327 8.87466 14.1664 9.69802 13.834 10.4688C13.5015 11.2395 13.0504 11.91 12.4805 12.4801C11.9106 13.0503 11.2404 13.5017 10.47 13.8343C9.69959 14.1668 8.8764 14.3331 8.00045 14.3331ZM7.99933 13.3332C9.48822 13.3332 10.7493 12.8165 11.7827 11.7832C12.816 10.7498 13.3327 9.48871 13.3327 7.99982C13.3327 6.51093 12.816 5.24982 11.7827 4.21649C10.7493 3.18315 9.48822 2.66649 7.99933 2.66649C6.51044 2.66649 5.24933 3.18315 4.216 4.21649C3.18267 5.24982 2.666 6.51093 2.666 7.99982C2.666 9.48871 3.18267 10.7498 4.216 11.7832C5.24933 12.8165 6.51044 13.3332 7.99933 13.3332Z" fill="white"/>
</g>
</svg>
