<svg width="20" height="20" viewBox="0 0 20 20" fill="none" xmlns="http://www.w3.org/2000/svg">
<path d="M7.8709 9.1525C7.7959 9.145 7.7059 9.145 7.6234 9.1525C5.8384 9.0925 4.4209 7.63 4.4209 5.83C4.4209 3.9925 5.9059 2.5 7.7509 2.5C9.5884 2.5 11.0809 3.9925 11.0809 5.83C11.0734 7.63 9.6559 9.0925 7.8709 9.1525Z" stroke="white" strokeLinecap="round" strokeLinejoin="round"/>
<path d="M13.3075 4C14.7625 4 15.9325 5.1775 15.9325 6.625C15.9325 8.0425 14.8075 9.1975 13.405 9.25C13.345 9.2425 13.2775 9.2425 13.21 9.25" stroke="white" strokeLinecap="round" strokeLinejoin="round"/>
<path d="M4.12102 11.92C2.30602 13.135 2.30602 15.115 4.12102 16.3225C6.18352 17.7025 9.56602 17.7025 11.6285 16.3225C13.4435 15.1075 13.4435 13.1275 11.6285 11.92C9.57352 10.5475 6.19102 10.5475 4.12102 11.92Z" stroke="white" strokeLinecap="round" strokeLinejoin="round"/>
<path d="M14.7549 16C15.2949 15.8875 15.8049 15.67 16.2249 15.3475C17.3949 14.47 17.3949 13.0225 16.2249 12.145C15.8124 11.83 15.3099 11.62 14.7774 11.5" stroke="white" strokeLinecap="round" strokeLinejoin="round"/>
</svg>
