<svg width="20" height="20" viewBox="0 0 20 20" fill="none" xmlns="http://www.w3.org/2000/svg">
<path d="M17.2412 8.82988L16.5062 11.9649C15.8762 14.6724 14.6312 15.7674 12.2912 15.5424C11.9162 15.5124 11.5112 15.4449 11.0762 15.3399L9.81623 15.0399C6.68873 14.2974 5.72123 12.7524 6.45623 9.61738L7.19123 6.47488C7.34123 5.83738 7.52123 5.28238 7.74623 4.82488C8.62373 3.00988 10.1162 2.52238 12.6212 3.11488L13.8737 3.40738C17.0162 4.14238 17.9762 5.69488 17.2412 8.82988Z" stroke="white" strokeLinecap="round" strokeLinejoin="round"/>
<path d="M12.2899 15.5427C11.8249 15.8577 11.2399 16.1202 10.5274 16.3527L9.34239 16.7427C6.36489 17.7027 4.79738 16.9002 3.82988 13.9227L2.86988 10.9602C1.90988 7.9827 2.70488 6.4077 5.68238 5.4477L6.86738 5.0577C7.17488 4.9602 7.46738 4.8777 7.74488 4.8252C7.51988 5.2827 7.33988 5.8377 7.18988 6.4752L6.45488 9.6177C5.71988 12.7527 6.68739 14.2977 9.81489 15.0402L11.0749 15.3402C11.5099 15.4452 11.9149 15.5127 12.2899 15.5427Z" stroke="white" strokeLinecap="round" strokeLinejoin="round"/>
<path d="M10.4766 7.39746L14.1141 8.31996" stroke="white" strokeLinecap="round" strokeLinejoin="round"/>
<path d="M9.74219 10.2998L11.9172 10.8548" stroke="white" strokeLinecap="round" strokeLinejoin="round"/>
</svg>
