<svg width="16" height="16" viewBox="0 0 16 16" fill="none" xmlns="http://www.w3.org/2000/svg">
<path d="M7.99962 11.9838C8.16667 11.9838 8.30404 11.9301 8.41173 11.8226C8.51942 11.7152 8.57326 11.5779 8.57326 11.4109C8.57326 11.2438 8.51954 11.1065 8.41211 10.9988C8.30467 10.8911 8.16742 10.8372 8.00038 10.8372C7.83333 10.8372 7.69596 10.891 7.58827 10.9984C7.48058 11.1059 7.42673 11.2431 7.42673 11.4102C7.42673 11.5772 7.48045 11.7146 7.58789 11.8223C7.69533 11.93 7.83257 11.9838 7.99962 11.9838ZM8.05095 9.01377C8.18756 9.01377 8.30067 8.96802 8.39027 8.87653C8.47987 8.78503 8.52467 8.67154 8.52467 8.53604V4.23803C8.52467 4.10255 8.47855 3.98906 8.3863 3.89757C8.29404 3.80607 8.17961 3.76033 8.04299 3.76033C7.90637 3.76033 7.79325 3.80607 7.70364 3.89757C7.61404 3.98906 7.56924 4.10255 7.56924 4.23803V8.53604C7.56924 8.67154 7.61537 8.78503 7.70762 8.87653C7.79989 8.96802 7.91433 9.01377 8.05095 9.01377ZM8.00701 16C6.89887 16 5.86099 15.79 4.89338 15.3701C3.92577 14.9502 3.07837 14.3768 2.35116 13.6499C1.62395 12.923 1.05028 12.0754 0.63017 11.1072C0.210057 10.139 0 9.10021 0 7.99088C0 6.88695 0.209966 5.84931 0.629896 4.87795C1.04983 3.90659 1.62323 3.06082 2.35011 2.34064C3.077 1.62044 3.92456 1.05028 4.89279 0.630171C5.86102 0.210058 6.89979 0 8.00912 0C9.11305 0 10.1507 0.209966 11.122 0.629897C12.0934 1.04983 12.9392 1.61972 13.6594 2.33959C14.3796 3.05946 14.9497 3.90598 15.3698 4.87915C15.7899 5.8523 16 6.89025 16 7.99299C16 9.10113 15.79 10.139 15.3701 11.1066C14.9502 12.0742 14.3803 12.9203 13.6604 13.645C12.9405 14.3696 12.094 14.9432 11.1208 15.3659C10.1477 15.7886 9.10975 16 8.00701 16ZM8.01053 15.0445C9.9641 15.0445 11.6248 14.3584 12.9927 12.9862C14.3606 11.614 15.0445 9.94845 15.0445 7.98947C15.0445 6.0359 14.3619 4.37516 12.9967 3.00727C11.6314 1.63939 9.96586 0.955456 8 0.955456C6.04804 0.955456 4.38596 1.63808 3.01376 3.00333C1.64156 4.36859 0.955455 6.03414 0.955455 8C0.955455 9.95196 1.64156 11.614 3.01376 12.9862C4.38596 14.3584 6.05155 15.0445 8.01053 15.0445Z" fill="black"/>
</svg>
