<svg width="16" height="16" viewBox="0 0 16 16" fill="none" xmlns="http://www.w3.org/2000/svg">
<mask id="mask0_0_687" style="mask-type:alpha" maskUnits="userSpaceOnUse" x="0" y="0" width="16" height="16">
<rect width="16" height="16" fill="#D9D9D9"/>
</mask>
<g mask="url(#mask0_0_687)">
<path d="M7.99955 11.167C8.14128 11.167 8.26001 11.119 8.35573 11.0232C8.45146 10.9274 8.49932 10.8086 8.49932 10.667V7.83363C8.49932 7.69197 8.45138 7.57323 8.35552 7.47739C8.25964 7.38156 8.14084 7.33364 7.99912 7.33364C7.85738 7.33364 7.73866 7.38156 7.64293 7.47739C7.54721 7.57323 7.49935 7.69197 7.49935 7.83363V10.667C7.49935 10.8086 7.54728 10.9274 7.64315 11.0232C7.73903 11.119 7.85783 11.167 7.99955 11.167ZM7.99933 6.19263C8.1519 6.19263 8.27978 6.14103 8.38298 6.03783C8.48618 5.93463 8.53778 5.80674 8.53778 5.65418C8.53778 5.50162 8.48618 5.37374 8.38298 5.27053C8.27978 5.16733 8.1519 5.11573 7.99933 5.11573C7.84677 5.11573 7.71888 5.16733 7.61568 5.27053C7.51248 5.37374 7.46088 5.50162 7.46088 5.65418C7.46088 5.80674 7.51248 5.93463 7.61568 6.03783C7.71888 6.14103 7.84677 6.19263 7.99933 6.19263ZM8.00045 14.3336C7.12449 14.3336 6.30114 14.1674 5.53038 13.835C4.75962 13.5025 4.08916 13.0513 3.51902 12.4815C2.94886 11.9116 2.49749 11.2414 2.1649 10.471C1.83231 9.70057 1.66602 8.87738 1.66602 8.00143C1.66602 7.12547 1.83224 6.30211 2.16468 5.53136C2.49713 4.76059 2.94829 4.09014 3.51818 3.51999C4.08808 2.94984 4.75824 2.49847 5.52867 2.16588C6.29908 1.83329 7.12226 1.66699 7.99822 1.66699C8.87417 1.66699 9.69753 1.83322 10.4683 2.16566C11.2391 2.4981 11.9095 2.94927 12.4797 3.51916C13.0498 4.08906 13.5012 4.75922 13.8338 5.52964C14.1664 6.30005 14.3327 7.12324 14.3327 7.99919C14.3327 8.87515 14.1664 9.6985 13.834 10.4693C13.5015 11.24 13.0504 11.9105 12.4805 12.4806C11.9106 13.0508 11.2404 13.5022 10.47 13.8347C9.69959 14.1673 8.8764 14.3336 8.00045 14.3336ZM7.99933 13.3336C9.48822 13.3336 10.7493 12.817 11.7827 11.7836C12.816 10.7503 13.3327 9.4892 13.3327 8.00031C13.3327 6.51142 12.816 5.25031 11.7827 4.21698C10.7493 3.18364 9.48822 2.66698 7.99933 2.66698C6.51044 2.66698 5.24933 3.18364 4.216 4.21698C3.18267 5.25031 2.666 6.51142 2.666 8.00031C2.666 9.4892 3.18267 10.7503 4.216 11.7836C5.24933 12.817 6.51044 13.3336 7.99933 13.3336Z" fill="#808080"/>
</g>
</svg>
