<svg width="27" height="9" viewBox="0 0 27 9" fill="none" xmlns="http://www.w3.org/2000/svg">
<path d="M13.3691 0.154288L11.5649 8.58805H9.38323L11.1877 0.154288H13.3691ZM22.5481 5.6L23.6967 2.43283L24.3576 5.6H22.5481ZM24.9823 8.58805H27.0003L25.2393 0.154288H23.3767C22.9581 0.154288 22.605 0.397731 22.4477 0.773039L19.1746 8.58805H21.4657L21.9205 7.32866H24.7196L24.9823 8.58805ZM19.2883 5.83436C19.2977 3.60841 16.21 3.48588 16.2314 2.49156C16.2378 2.18859 16.5264 1.8672 17.1566 1.78472C17.4697 1.74388 18.3306 1.71264 19.3081 2.16243L19.6909 0.373974C19.1658 0.183384 18.4902 0 17.6499 0C15.4936 0 13.9758 1.14648 13.963 2.78812C13.9494 4.00213 15.0465 4.67961 15.8732 5.08321C16.7231 5.49669 17.0087 5.76149 17.005 6.13119C16.9994 6.69736 16.327 6.94668 15.6997 6.95655C14.6026 6.9739 13.9659 6.66052 13.4585 6.42402L13.0632 8.272C13.5727 8.5061 14.5137 8.7095 15.4899 8.71991C17.7815 8.71991 19.2808 7.58758 19.2883 5.83436ZM10.2516 0.154288L6.71684 8.58805H4.41027L2.67093 1.85732C2.56523 1.44278 2.4734 1.29116 2.15228 1.11632C1.62829 0.832032 0.762094 0.564831 0 0.399332L0.0520519 0.154288H3.76429C4.2373 0.154288 4.66305 0.469269 4.77036 1.01408L5.68915 5.89469L7.95941 0.154288H10.2516Z" fill="white"/>
</svg>
