<svg width="24" height="24" viewBox="0 0 24 24" fill="none" xmlns="http://www.w3.org/2000/svg">
<mask id="mask0_0_1384" style="mask-type:alpha" maskUnits="userSpaceOnUse" x="0" y="0" width="24" height="24">
<rect width="24" height="24" fill="#D9D9D9"/>
</mask>
<g mask="url(#mask0_0_1384)">
<path d="M15.7736 12.973L14.6506 11.8499C14.8006 11.0217 14.5643 10.2772 13.9419 9.61627C13.3195 8.95537 12.5557 8.69992 11.6506 8.84992L10.5275 7.72687C10.7531 7.62559 10.9846 7.54963 11.2217 7.499C11.4589 7.44835 11.7185 7.42302 12.0006 7.42302C13.1352 7.42302 14.0983 7.81885 14.89 8.61052C15.6816 9.40219 16.0775 10.3653 16.0775 11.4999C16.0775 11.782 16.0521 12.0448 16.0015 12.2884C15.9509 12.532 15.8749 12.7602 15.7736 12.973ZM18.9544 16.0845L17.8506 15.0499C18.4839 14.5666 19.0464 14.0374 19.5381 13.4624C20.0297 12.8874 20.4506 12.2333 20.8006 11.4999C19.9672 9.81659 18.7714 8.47909 17.2131 7.48742C15.6547 6.49575 13.9172 5.99992 12.0006 5.99992C11.5172 5.99992 11.0422 6.03325 10.5756 6.09992C10.1089 6.16659 9.65056 6.26659 9.20056 6.39992L8.03521 5.23457C8.66726 4.98329 9.31277 4.79803 9.97174 4.6788C10.6307 4.55956 11.307 4.49995 12.0006 4.49995C14.3441 4.49995 16.4576 5.1461 18.3409 6.4384C20.2242 7.73071 21.598 9.41789 22.4621 11.4999C22.0915 12.3935 21.613 13.2275 21.0265 14.0018C20.44 14.7762 19.7493 15.4704 18.9544 16.0845ZM19.7621 21.8691L15.716 17.8537C15.2031 18.0435 14.6349 18.1986 14.0112 18.3191C13.3874 18.4396 12.7172 18.4999 12.0006 18.4999C9.65058 18.4999 7.53713 17.8537 5.66021 16.5614C3.7833 15.2691 2.40958 13.582 1.53906 11.4999C1.9083 10.6166 2.38522 9.79255 2.96984 9.0278C3.55445 8.26306 4.19805 7.59993 4.90061 7.0384L2.13136 4.2384L3.18521 3.18457L20.8159 20.8153L19.7621 21.8691ZM5.95444 8.0922C5.42624 8.51271 4.91245 9.01817 4.41309 9.60857C3.91372 10.199 3.50955 10.8294 3.20056 11.4999C4.0339 13.1833 5.22973 14.5208 6.78806 15.5124C8.3464 16.5041 10.0839 16.9999 12.0006 16.9999C12.4557 16.9999 12.9089 16.9615 13.3602 16.8845C13.8115 16.8076 14.1942 16.7281 14.5083 16.6461L13.2429 15.3499C13.0724 15.4191 12.8749 15.4742 12.6506 15.5153C12.4262 15.5563 12.2095 15.5768 12.0006 15.5768C10.866 15.5768 9.90283 15.181 9.11116 14.3893C8.3195 13.5977 7.92366 12.6345 7.92366 11.4999C7.92366 11.2974 7.94418 11.0855 7.98521 10.8643C8.02625 10.6432 8.08137 10.4409 8.15059 10.2576L5.95444 8.0922Z" fill="#212121"/>
</g>
</svg>
