<svg width="20" height="20" viewBox="0 0 20 20" fill="none" xmlns="http://www.w3.org/2000/svg">
<path d="M16.9971 4.07485V9.17435C16.9971 9.68021 16.8871 9.90492 16.7654 10.0194C16.636 10.1411 16.3773 10.2492 15.8246 10.2492H12.7946C12.2419 10.2492 11.9831 10.1411 11.8537 10.0194C11.732 9.90492 11.6221 9.68021 11.6221 9.17435V4.07485C11.6221 3.56899 11.732 3.34428 11.8537 3.22978C11.9831 3.10806 12.2419 3 12.7946 3H15.8246C16.3773 3 16.636 3.10806 16.7654 3.22978C16.8871 3.34428 16.9971 3.56899 16.9971 4.07485Z" stroke="white" strokeLinecap="round" strokeLinejoin="round"/>
<path d="M16.9971 14.5739V15.9237C16.9971 16.4296 16.8871 16.6543 16.7654 16.7688C16.636 16.8905 16.3773 16.9986 15.8246 16.9986H12.7946C12.2419 16.9986 11.9831 16.8905 11.8537 16.7688C11.732 16.6543 11.6221 16.4296 11.6221 15.9237V14.5739C11.6221 14.068 11.732 13.8433 11.8537 13.7288C11.9831 13.6071 12.2419 13.499 12.7946 13.499H15.8246C16.3773 13.499 16.636 13.6071 16.7654 13.7288C16.8871 13.8433 16.9971 14.068 16.9971 14.5739Z" stroke="white" strokeLinecap="round" strokeLinejoin="round"/>
<path d="M8.37158 10.8244V15.9239C8.37158 16.4297 8.26165 16.6544 8.13993 16.7689C8.01053 16.8907 7.7518 16.9987 7.19908 16.9987H4.16908C3.61637 16.9987 3.35763 16.8907 3.22823 16.7689C3.10651 16.6544 2.99658 16.4297 2.99658 15.9239V10.8244C2.99658 10.3185 3.10651 10.0938 3.22823 9.97929C3.35763 9.85757 3.61637 9.74951 4.16908 9.74951H7.19908C7.7518 9.74951 8.01053 9.85757 8.13993 9.97929C8.26165 10.0938 8.37158 10.3185 8.37158 10.8244Z" stroke="white" strokeLinecap="round" strokeLinejoin="round"/>
<path d="M8.37158 4.07485V5.42471C8.37158 5.93057 8.26165 6.15528 8.13993 6.26978C8.01053 6.39151 7.7518 6.49956 7.19908 6.49956H4.16908C3.61637 6.49956 3.35763 6.39151 3.22823 6.26978C3.10651 6.15528 2.99658 5.93057 2.99658 5.42471V4.07485C2.99658 3.56899 3.10651 3.34428 3.22823 3.22978C3.35763 3.10806 3.61637 3 4.16908 3H7.19908C7.7518 3 8.01053 3.10806 8.13993 3.22978C8.26165 3.34428 8.37158 3.56899 8.37158 4.07485Z" stroke="white" strokeLinecap="round" strokeLinejoin="round"/>
</svg>
