<svg width="80" height="80" viewBox="0 0 80 80" fill="none" xmlns="http://www.w3.org/2000/svg">
<g clip-path="url(#clip0_0_1626)">
<path d="M37.7146 0.665827L35.2666 2.09648L5.10685 19.7224L2.65886 21.153C1.47102 21.8491 0.589454 23.0214 0.207574 24.4128C-0.174305 25.8042 -0.0253146 27.301 0.62186 28.5748L23.0811 72.6644C23.7309 73.9367 24.8254 74.881 26.1245 75.29C27.4235 75.699 28.8209 75.5395 30.0102 74.8463L30.0165 74.8426L65.0596 54.3628L65.0659 54.3591C66.2537 53.663 67.1353 52.4907 67.5172 51.0993C67.8991 49.7079 67.7501 48.2111 67.1029 46.9373L44.6437 2.84769C43.9938 1.57538 42.8993 0.631131 41.6003 0.222094C40.3013 -0.186943 38.9039 -0.0273618 37.7146 0.665827Z" fill="#F2F2F2"/>
<path d="M38.4179 2.04731L35.5185 3.74181L6.26162 20.8401L3.36219 22.5345C2.5163 23.0302 1.88852 23.865 1.61657 24.8559C1.34462 25.8467 1.45072 26.9126 1.91159 27.8198L24.3708 71.9094C24.8336 72.8154 25.613 73.4878 26.5381 73.7791C27.4631 74.0704 28.4583 73.9567 29.3052 73.4631L29.3115 73.4594L64.3546 52.9796L64.3609 52.9759C65.2068 52.4802 65.8346 51.6453 66.1065 50.6545C66.3785 49.6637 66.2724 48.5978 65.8115 47.6906L43.3523 3.60108C42.8895 2.69505 42.1101 2.02262 41.1851 1.73133C40.26 1.44005 39.2649 1.55368 38.4179 2.04731Z" fill="white"/>
<path d="M38.9017 15.7352L25.832 23.3734C25.634 23.4891 25.4012 23.5158 25.1848 23.4477C24.9684 23.3796 24.7861 23.2221 24.6781 23.0101C24.5701 22.798 24.5451 22.5486 24.6087 22.3168C24.6724 22.0851 24.8193 21.8898 25.0173 21.7741L38.087 14.1359C38.285 14.0202 38.5178 13.9935 38.7342 14.0616C38.9506 14.1298 39.1329 14.2872 39.2409 14.4993C39.349 14.7114 39.3739 14.9607 39.3103 15.1925C39.2467 15.4243 39.0997 15.6195 38.9017 15.7352Z" fill="#F2F2F2"/>
<path d="M43.3601 16.639L27.2109 26.0769C27.0129 26.1926 26.7801 26.2194 26.5637 26.1512C26.3473 26.0831 26.1651 25.9257 26.057 25.7136C25.949 25.5015 25.924 25.2522 25.9877 25.0204C26.0513 24.7886 26.1982 24.5934 26.3962 24.4777L42.5455 15.0398C42.6435 14.9825 42.7511 14.9464 42.8622 14.9337C42.9732 14.9209 43.0855 14.9317 43.1927 14.9654C43.2998 14.9992 43.3997 15.0552 43.4866 15.1303C43.5736 15.2054 43.6459 15.2981 43.6994 15.4031C43.7528 15.5081 43.7865 15.6234 43.7984 15.7423C43.8103 15.8612 43.8002 15.9815 43.7687 16.0963C43.7372 16.2111 43.6849 16.3181 43.6148 16.4112C43.5447 16.5043 43.4582 16.5817 43.3601 16.639Z" fill="#F2F2F2"/>
<path d="M20.461 20.1949L8.41149 27.2368C8.31664 27.2923 8.24624 27.3859 8.21576 27.4969C8.18529 27.608 8.19723 27.7274 8.24897 27.829L13.38 37.9017C13.4317 38.0033 13.5191 38.0787 13.6227 38.1113C13.7264 38.144 13.838 38.1312 13.9328 38.0758L25.9824 31.0338C26.0772 30.9783 26.1476 30.8848 26.1781 30.7737C26.2086 30.6627 26.1966 30.5432 26.1449 30.4416L21.0139 20.369C20.9621 20.2674 20.8748 20.192 20.7711 20.1593C20.6674 20.1267 20.5559 20.1395 20.461 20.1949Z" fill="#F2F2F2"/>
<path d="M45.3915 28.513L27.664 38.8733C27.566 38.9306 27.4584 38.9666 27.3473 38.9794C27.2363 38.9921 27.124 38.9813 27.0168 38.9476C26.9097 38.9138 26.8098 38.8578 26.7229 38.7827C26.6359 38.7077 26.5636 38.615 26.5101 38.5099C26.4567 38.4049 26.423 38.2897 26.4111 38.1707C26.3992 38.0518 26.4093 37.9315 26.4408 37.8167C26.4723 37.702 26.5246 37.595 26.5947 37.5019C26.6648 37.4087 26.7513 37.3313 26.8494 37.274L44.5768 26.9138C44.7748 26.7981 45.0076 26.7713 45.224 26.8395C45.4404 26.9076 45.6226 27.065 45.7307 27.2771C45.8387 27.4892 45.8637 27.7385 45.8 27.9703C45.7364 28.2021 45.5895 28.3973 45.3915 28.513Z" fill="#F2F2F2"/>
<path d="M49.8421 29.4127L29.0351 41.5727C28.8371 41.6884 28.6043 41.7151 28.3879 41.647C28.1715 41.5788 27.9893 41.4214 27.8812 41.2093C27.7732 40.9973 27.7483 40.7479 27.8119 40.5161C27.8755 40.2843 28.0225 40.0891 28.2205 39.9734L49.0274 27.8134C49.2254 27.6977 49.4582 27.671 49.6746 27.7391C49.891 27.8073 50.0733 27.9647 50.1813 28.1768C50.2893 28.3888 50.3143 28.6382 50.2507 28.87C50.187 29.1018 50.0401 29.297 49.8421 29.4127Z" fill="#F2F2F2"/>
<path d="M20.9088 47.36C22.9015 47.36 24.5168 45.6298 24.5168 43.4954C24.5168 41.3611 22.9015 39.6309 20.9088 39.6309C18.9161 39.6309 17.3008 41.3611 17.3008 43.4954C17.3008 45.6298 18.9161 47.36 20.9088 47.36Z" fill="#F2F2F2"/>
<path d="M74.8928 18.832H34.9585C33.6045 18.8337 32.3064 19.4105 31.349 20.436C30.3916 21.4615 29.8531 22.8519 29.8516 24.3021V74.5275C29.8531 75.9778 30.3916 77.3682 31.349 78.3937C32.3064 79.4192 33.6045 79.996 34.9585 79.9976H74.8928C76.2468 79.996 77.5449 79.4192 78.5023 78.3937C79.4597 77.3682 79.9982 75.9778 79.9998 74.5275V24.3021C79.9982 22.8519 79.4597 21.4615 78.5023 20.436C77.5449 19.4105 76.2468 18.8337 74.8928 18.832Z" fill="#E6E6E6"/>
<path d="M74.8915 20.4094H34.9571C33.9929 20.4106 33.0685 20.8214 32.3867 21.5516C31.7049 22.2819 31.3214 23.272 31.3203 24.3048V74.5302C31.3214 75.563 31.7049 76.5531 32.3867 77.2834C33.0685 78.0137 33.9929 78.4244 34.9571 78.4256H74.8915C75.8556 78.4244 76.78 78.0136 77.4618 77.2834C78.1436 76.5531 78.5271 75.563 78.5282 74.5302V24.3048C78.5271 23.272 78.1436 22.2819 77.4618 21.5516C76.78 20.8214 75.8556 20.4106 74.8915 20.4094Z" fill="white"/>
<path d="M69.2 32.6661H54.3114C54.0858 32.6661 53.8695 32.5701 53.71 32.3993C53.5505 32.2284 53.4609 31.9967 53.4609 31.7552C53.4609 31.5136 53.5505 31.2819 53.71 31.111C53.8695 30.9402 54.0858 30.8442 54.3114 30.8442H69.2C69.3117 30.8441 69.4224 30.8676 69.5257 30.9133C69.629 30.959 69.7229 31.0261 69.8019 31.1107C69.881 31.1953 69.9437 31.2957 69.9865 31.4063C70.0293 31.5169 70.0514 31.6354 70.0514 31.7552C70.0514 31.8749 70.0293 31.9934 69.9865 32.104C69.9437 32.2146 69.881 32.315 69.8019 32.3996C69.7229 32.4842 69.629 32.5513 69.5257 32.597C69.4224 32.6427 69.3117 32.6662 69.2 32.6661Z" fill="#7745AF"/>
<path d="M72.7081 35.7457H54.3114C54.0858 35.7457 53.8695 35.6497 53.71 35.4789C53.5505 35.308 53.4609 35.0763 53.4609 34.8347C53.4609 34.5932 53.5505 34.3615 53.71 34.1906C53.8695 34.0198 54.0858 33.9238 54.3114 33.9238H72.7081C72.9336 33.9238 73.1499 34.0198 73.3094 34.1906C73.4689 34.3615 73.5585 34.5932 73.5585 34.8347C73.5585 35.0763 73.4689 35.308 73.3094 35.4789C73.1499 35.6497 72.9336 35.7457 72.7081 35.7457Z" fill="#7745AF"/>
<path d="M51.0128 27.1206H37.2864C37.1783 27.1206 37.0747 27.1666 36.9983 27.2485C36.9219 27.3303 36.8789 27.4413 36.8789 27.5571V39.0315C36.8789 39.1472 36.9219 39.2582 36.9983 39.3401C37.0747 39.4219 37.1783 39.4679 37.2864 39.4679H51.0128C51.1209 39.4679 51.2245 39.4219 51.3009 39.3401C51.3773 39.2582 51.4203 39.1472 51.4203 39.0315V27.5571C51.4203 27.4413 51.3773 27.3303 51.3009 27.2485C51.2245 27.1666 51.1209 27.1206 51.0128 27.1206Z" fill="#E6E6E6"/>
<path d="M41.0545 34.172C41.0602 35.1407 40.7268 36.0765 40.1202 36.7949C39.52 37.5005 38.6265 37.9684 37.7248 37.7748C36.8945 37.5965 36.2198 36.8192 36.304 35.8789C36.3179 35.6752 36.3732 35.4773 36.4659 35.2988C36.5586 35.1204 36.6866 34.9657 36.8408 34.8457C36.995 34.7256 37.1719 34.643 37.359 34.6037C37.5461 34.5643 37.7389 34.5691 37.9241 34.6178C38.7128 34.837 39.0271 36.0546 38.3698 36.6261C38.2121 36.7633 37.9855 36.5234 38.1447 36.385C38.5792 36.0072 38.445 35.1807 37.9205 34.9734C37.31 34.7321 36.6631 35.2511 36.6192 35.9197C36.5671 36.7124 37.1341 37.3094 37.8294 37.45C38.5815 37.602 39.3272 37.1897 39.8369 36.6205C40.421 35.9596 40.7433 35.082 40.7362 34.172C40.7376 34.1278 40.755 34.0859 40.7847 34.0552C40.8144 34.0245 40.854 34.0073 40.8953 34.0073C40.9366 34.0073 40.9763 34.0245 41.006 34.0552C41.0357 34.0859 41.0531 34.1278 41.0545 34.172Z" fill="#2F2E41"/>
<path d="M44.1598 36.3415C47.2965 36.3415 49.8392 33.6179 49.8392 30.2583C49.8392 26.8986 47.2965 24.175 44.1598 24.175C41.0232 24.175 38.4805 26.8986 38.4805 30.2583C38.4805 33.6179 41.0232 36.3415 44.1598 36.3415Z" fill="#7745AF"/>
<path d="M43.8731 32.8482L43.8672 32.6209C44.262 32.6091 44.6101 32.5826 44.8717 32.3779C44.9458 32.3165 45.0068 32.2388 45.0504 32.15C45.094 32.0612 45.1192 31.9634 45.1244 31.8632C45.129 31.8019 45.1203 31.7404 45.0991 31.6833C45.0779 31.6263 45.0447 31.5752 45.0021 31.5342C44.8284 31.3771 44.549 31.4279 44.3454 31.5279L44.1698 31.6142L44.5065 28.9783L44.7168 29.0091L44.4304 31.2513C44.7071 31.1642 44.9635 31.2017 45.1391 31.3606C45.2065 31.4236 45.2594 31.5025 45.2936 31.5911C45.3279 31.6796 45.3425 31.7755 45.3365 31.8712C45.3303 32.0058 45.2967 32.1373 45.238 32.2566C45.1793 32.3758 45.097 32.4799 44.9969 32.5615C44.6608 32.8245 44.224 32.8376 43.8731 32.8482Z" fill="#2F2E41"/>
<path d="M46.897 29.2041H45.7539V29.4314H46.897V29.2041Z" fill="#2F2E41"/>
<path d="M43.2915 29.2041H42.1484V29.4314H43.2915V29.2041Z" fill="#2F2E41"/>
<path d="M41.0156 39.4726C41.4413 39.1833 41.9014 38.9566 42.3835 38.7986C42.3375 38.6234 42.3382 38.4379 42.3856 38.2632C42.4496 38.0425 42.5785 37.8498 42.7532 37.714C42.9278 37.5782 43.1387 37.5065 43.3545 37.5096H44.7383C44.9544 37.5067 45.1657 37.5785 45.3406 37.7145C45.5156 37.8505 45.6449 38.0433 45.7093 38.2644C45.7567 38.4387 45.7574 38.6238 45.7114 38.7986C46.1934 38.9568 46.6534 39.1835 47.0792 39.4726H41.0156Z" fill="#2F2E41"/>
<path d="M50.6659 27.9982C50.5625 27.8639 50.4351 27.7531 50.2914 27.6719C50.1652 27.6014 50.0251 27.5644 49.8828 27.564C49.6874 27.5665 49.4977 27.6349 49.3405 27.7595C48.9086 28.0868 48.6094 28.7927 48.6094 29.6099C48.6094 30.6352 49.0805 31.4854 49.6928 31.6331C49.7552 31.6481 49.8189 31.6557 49.8828 31.6559C50.5842 31.6559 51.1562 30.7386 51.1562 29.6099C51.1562 28.9552 50.9641 28.3721 50.6659 27.9982Z" fill="#3F3D56"/>
<path d="M39.0045 27.7106H39.0035C38.8616 27.6162 38.6982 27.5655 38.5312 27.564C38.3889 27.5644 38.2488 27.6014 38.1227 27.6719C37.9789 27.7531 37.8516 27.8639 37.7481 27.9982L37.747 27.9993C37.4499 28.3733 37.2578 28.9564 37.2578 29.6099C37.2578 30.492 37.6059 31.2444 38.094 31.532C38.2276 31.6122 38.3781 31.6548 38.5312 31.6559C38.5653 31.6559 38.5993 31.6536 38.6331 31.6491H38.6341C39.2878 31.5649 39.8047 30.6829 39.8047 29.6099C39.8047 28.7506 39.4725 28.0129 39.0045 27.7106Z" fill="#3F3D56"/>
<path d="M38.1713 31.335C38.1965 31.335 38.2214 31.3285 38.2439 31.3162C38.2664 31.3038 38.2858 31.2859 38.3005 31.2639C38.3153 31.2419 38.3249 31.2165 38.3287 31.1897C38.3324 31.163 38.3302 31.1356 38.3221 31.11C38.0179 30.141 37.9264 29.1099 38.0547 28.0968C38.183 27.0838 38.5276 26.116 39.0619 25.2689C39.5961 24.4217 40.3056 23.7179 41.135 23.2121C41.9645 22.7064 42.8917 22.4123 43.8445 22.3527C44.7974 22.2932 45.7502 22.4698 46.629 22.8688C47.5077 23.2678 48.2888 23.8785 48.9114 24.6533C49.534 25.4282 49.9814 26.3464 50.2188 27.3366C50.4562 28.3268 50.4773 29.3623 50.2803 30.3627C50.2716 30.4069 50.2796 30.453 50.3027 30.4909C50.3257 30.5288 50.3619 30.5553 50.4032 30.5647C50.4445 30.574 50.4876 30.5654 50.523 30.5407C50.5583 30.516 50.5831 30.4773 50.5918 30.433C50.799 29.3813 50.777 28.2926 50.5275 27.2515C50.2779 26.2103 49.8076 25.2449 49.153 24.4301C48.4985 23.6154 47.6773 22.9733 46.7534 22.5537C45.8294 22.1342 44.8276 21.9485 43.8258 22.0111C42.824 22.0738 41.8491 22.383 40.977 22.9148C40.1049 23.4467 39.3591 24.1867 38.7975 25.0775C38.2358 25.9683 37.8736 26.9858 37.7388 28.051C37.604 29.1161 37.7004 30.2002 38.0204 31.219C38.0311 31.2528 38.0514 31.2822 38.0784 31.303C38.1055 31.3238 38.138 31.335 38.1713 31.335Z" fill="#3F3D56"/>
<path d="M47.0164 26.3115C47.2413 26.6403 47.1304 27.0834 46.8935 27.3669C46.5852 27.7358 46.0935 27.759 45.6666 27.6906C45.1875 27.6137 44.6794 27.3733 44.1944 27.5354C43.781 27.6734 43.4862 28.075 43.0567 28.1759C42.6758 28.2653 42.2204 28.1469 42.0869 27.7121C42.0227 27.5032 42.33 27.4136 42.3939 27.6215C42.4802 27.9028 42.8532 27.8972 43.0668 27.8193C43.4092 27.6944 43.6731 27.3906 44.0097 27.2455C44.4065 27.0745 44.837 27.1517 45.241 27.2492C45.6218 27.341 46.0601 27.4772 46.4394 27.3056C46.7201 27.1787 46.9434 26.7788 46.7415 26.4836C46.6203 26.3064 46.8964 26.1361 47.0164 26.3115Z" fill="#2F2E41"/>
<path d="M69.1739 47.2183H48.9793C48.8677 47.2183 48.7571 47.1948 48.6539 47.149C48.5507 47.1032 48.457 47.0361 48.378 46.9515C48.299 46.8669 48.2364 46.7665 48.1936 46.656C48.1509 46.5455 48.1289 46.427 48.1289 46.3074C48.1289 46.1878 48.1509 46.0693 48.1936 45.9588C48.2364 45.8483 48.299 45.7479 48.378 45.6633C48.457 45.5787 48.5507 45.5116 48.6539 45.4658C48.7571 45.42 48.8677 45.3965 48.9793 45.3965H69.1739C69.3993 45.3968 69.6153 45.4928 69.7746 45.6636C69.9339 45.8344 70.0234 46.066 70.0234 46.3074C70.0234 46.5488 69.9339 46.7804 69.7746 46.9512C69.6153 47.122 69.3993 47.218 69.1739 47.2183Z" fill="#E6E6E6"/>
<path d="M72.6829 50.2935H48.9803C48.8685 50.2936 48.7579 50.2702 48.6546 50.2245C48.5513 50.1788 48.4574 50.1117 48.3783 50.0271C48.2993 49.9425 48.2365 49.842 48.1937 49.7314C48.1509 49.6208 48.1289 49.5023 48.1289 49.3826C48.1289 49.2629 48.1509 49.1444 48.1937 49.0338C48.2365 48.9232 48.2993 48.8227 48.3783 48.7381C48.4574 48.6535 48.5513 48.5864 48.6546 48.5407C48.7579 48.495 48.8685 48.4715 48.9803 48.4717H72.6829C72.7947 48.4715 72.9054 48.495 73.0087 48.5407C73.1119 48.5864 73.2058 48.6535 73.2849 48.7381C73.3639 48.8227 73.4267 48.9232 73.4695 49.0338C73.5123 49.1444 73.5343 49.2629 73.5343 49.3826C73.5343 49.5023 73.5123 49.6208 73.4695 49.7314C73.4267 49.842 73.3639 49.9425 73.2849 50.0271C73.2058 50.1117 73.1119 50.1788 73.0087 50.2245C72.9054 50.2702 72.7947 50.2936 72.6829 50.2935Z" fill="#E6E6E6"/>
<path d="M69.1739 58.2642H48.9793C48.7538 58.2642 48.5375 58.1682 48.378 57.9974C48.2185 57.8266 48.1289 57.5949 48.1289 57.3533C48.1289 57.1117 48.2185 56.88 48.378 56.7092C48.5375 56.5384 48.7538 56.4424 48.9793 56.4424H69.1739C69.3994 56.4424 69.6157 56.5384 69.7752 56.7092C69.9347 56.88 70.0243 57.1117 70.0243 57.3533C70.0243 57.5949 69.9347 57.8266 69.7752 57.9974C69.6157 58.1682 69.3994 58.2642 69.1739 58.2642Z" fill="#E6E6E6"/>
<path d="M72.682 61.3394H48.9793C48.7538 61.3394 48.5375 61.2434 48.378 61.0726C48.2185 60.9018 48.1289 60.6701 48.1289 60.4285C48.1289 60.1869 48.2185 59.9552 48.378 59.7844C48.5375 59.6136 48.7538 59.5176 48.9793 59.5176H72.682C72.9075 59.5176 73.1238 59.6136 73.2833 59.7844C73.4428 59.9552 73.5324 60.1869 73.5324 60.4285C73.5324 60.6701 73.4428 60.9018 73.2833 61.0726C73.1238 61.2434 72.9075 61.3394 72.682 61.3394Z" fill="#E6E6E6"/>
<path d="M40.9908 51.6693C42.9835 51.6693 44.5989 49.9391 44.5989 47.8048C44.5989 45.6704 42.9835 43.9402 40.9908 43.9402C38.9982 43.9402 37.3828 45.6704 37.3828 47.8048C37.3828 49.9391 38.9982 51.6693 40.9908 51.6693Z" fill="#E6E6E6"/>
<path d="M40.9908 62.8114C42.9835 62.8114 44.5989 61.0812 44.5989 58.9469C44.5989 56.8125 42.9835 55.0823 40.9908 55.0823C38.9982 55.0823 37.3828 56.8125 37.3828 58.9469C37.3828 61.0812 38.9982 62.8114 40.9908 62.8114Z" fill="#E6E6E6"/>
<path d="M69.1739 69.4017H48.9793C48.7538 69.4017 48.5375 69.3057 48.378 69.1349C48.2185 68.964 48.1289 68.7323 48.1289 68.4908C48.1289 68.2492 48.2185 68.0175 48.378 67.8466C48.5375 67.6758 48.7538 67.5798 48.9793 67.5798H69.1739C69.3994 67.5798 69.6157 67.6758 69.7752 67.8466C69.9347 68.0175 70.0243 68.2492 70.0243 68.4908C70.0243 68.7323 69.9347 68.964 69.7752 69.1349C69.6157 69.3057 69.3994 69.4017 69.1739 69.4017Z" fill="#E6E6E6"/>
<path d="M72.682 72.4813H48.9793C48.7538 72.4813 48.5375 72.3853 48.378 72.2145C48.2185 72.0436 48.1289 71.8119 48.1289 71.5703C48.1289 71.3287 48.2185 71.0971 48.378 70.9262C48.5375 70.7554 48.7538 70.6594 48.9793 70.6594H72.682C72.9075 70.6594 73.1238 70.7554 73.2833 70.9262C73.4428 71.0971 73.5324 71.3287 73.5324 71.5703C73.5324 71.8119 73.4428 72.0436 73.2833 72.2145C73.1238 72.3853 72.9075 72.4813 72.682 72.4813Z" fill="#E6E6E6"/>
<path d="M40.9908 73.9535C42.9835 73.9535 44.5989 72.2233 44.5989 70.0889C44.5989 67.9546 42.9835 66.2244 40.9908 66.2244C38.9982 66.2244 37.3828 67.9546 37.3828 70.0889C37.3828 72.2233 38.9982 73.9535 40.9908 73.9535Z" fill="#E6E6E6"/>
</g>
<defs>
<clipPath id="clip0_0_1626">
<rect width="80" height="80" fill="white"/>
</clipPath>
</defs>
</svg>
