<svg width="40" height="29" viewBox="0 0 40 29" fill="none" xmlns="http://www.w3.org/2000/svg">
<path d="M13.4362 23.694L36.5209 0.609282C36.9183 0.211864 37.3903 0.00885519 37.9367 0.000259241C38.4832 -0.00829217 38.9636 0.194717 39.3782 0.609282C39.7927 1.0238 40 1.50001 40 2.0379C40 2.57575 39.7927 3.05196 39.3782 3.46652L15.1269 27.7177C14.6438 28.2008 14.0802 28.4423 13.4362 28.4423C12.7921 28.4423 12.2285 28.2008 11.7455 27.7177L0.588542 16.5609C0.191124 16.1635 -0.00502418 15.6915 9.77578e-05 15.1451C0.00526424 14.5986 0.215108 14.1182 0.629629 13.7036C1.04419 13.2891 1.5204 13.0818 2.05825 13.0818C2.59614 13.0818 3.07235 13.2891 3.48687 13.7036L13.4362 23.694Z" fill="white"/>
</svg>
