<svg width="40" height="40" viewBox="0 0 40 40" fill="none" xmlns="http://www.w3.org/2000/svg">
<mask id="mask0_0_318" style="mask-type:alpha" maskUnits="userSpaceOnUse" x="0" y="0" width="40" height="40">
<rect width="40" height="40" fill="#D9D9D9"/>
</mask>
<g mask="url(#mask0_0_318)">
<path d="M8.06595 7.0835H31.9783C32.275 7.0835 32.5237 7.18437 32.7243 7.38612C32.925 7.58787 33.0253 7.83786 33.0253 8.13608C33.0253 8.43433 32.925 8.68246 32.7243 8.88046C32.5237 9.07845 32.275 9.17745 31.9783 9.17745H8.06595C7.76929 9.17745 7.52062 9.07658 7.31995 8.87483C7.11929 8.67308 7.01895 8.42308 7.01895 8.12483C7.01895 7.82661 7.11929 7.5785 7.31995 7.3805C7.52062 7.1825 7.76929 7.0835 8.06595 7.0835ZM8.49333 32.9167C8.12402 32.9167 7.81445 32.7918 7.56462 32.542C7.31481 32.2922 7.18991 31.9827 7.18991 31.6134V22.5557H6.30208C5.88924 22.5557 5.55259 22.393 5.29212 22.0677C5.03167 21.7425 4.94774 21.3763 5.04033 20.9691L6.78604 13.1145C6.85059 12.809 7.00552 12.5607 7.25083 12.3698C7.49613 12.1789 7.76713 12.0835 8.06383 12.0835H31.9527C32.2494 12.0835 32.5204 12.1789 32.7657 12.3698C33.011 12.5607 33.1659 12.809 33.2305 13.1145L34.9762 20.9691C35.0759 21.3794 34.9929 21.7464 34.7272 22.0701C34.4616 22.3938 34.124 22.5557 33.7145 22.5557H32.8373V31.8698C32.8373 32.1664 32.7364 32.4151 32.5347 32.6157C32.3329 32.8164 32.0829 32.9167 31.7847 32.9167C31.4864 32.9167 31.2383 32.8164 31.0403 32.6157C30.8423 32.4151 30.7433 32.1664 30.7433 31.8698V22.5557H22.6514V31.6134C22.6514 31.9827 22.5265 32.2922 22.2767 32.542C22.0268 32.7918 21.7173 32.9167 21.348 32.9167H8.49333ZM9.28387 30.8228H20.5574V22.5557H9.28387V30.8228ZM7.22829 20.4617H32.7882L31.3747 14.1775H8.64179L7.22829 20.4617Z" fill="#212121"/>
</g>
</svg>
