<svg width="24" height="24" viewBox="0 0 24 24" fill="none" xmlns="http://www.w3.org/2000/svg">
<g clip-path="url(#clip0_0_830)">
<path fill-rule="evenodd" clip-rule="evenodd" d="M5.21934 5.23871C5.35997 5.09826 5.55059 5.01937 5.74934 5.01937C5.94809 5.01937 6.13871 5.09826 6.27934 5.23871L11.7493 10.7087L17.2193 5.23871C17.288 5.16502 17.3708 5.10592 17.4628 5.06493C17.5548 5.02394 17.6541 5.00189 17.7548 5.00012C17.8555 4.99834 17.9555 5.01686 18.0489 5.05459C18.1423 5.09231 18.2272 5.14845 18.2984 5.21967C18.3696 5.29089 18.4257 5.37572 18.4635 5.46911C18.5012 5.5625 18.5197 5.66253 18.5179 5.76323C18.5162 5.86393 18.4941 5.96325 18.4531 6.05525C18.4121 6.14725 18.353 6.23005 18.2793 6.29871L12.8093 11.7687L18.2793 17.2387C18.353 17.3074 18.4121 17.3902 18.4531 17.4822C18.4941 17.5742 18.5162 17.6735 18.5179 17.7742C18.5197 17.8749 18.5012 17.9749 18.4635 18.0683C18.4257 18.1617 18.3696 18.2465 18.2984 18.3177C18.2272 18.389 18.1423 18.4451 18.0489 18.4828C17.9555 18.5206 17.8555 18.5391 17.7548 18.5373C17.6541 18.5355 17.5548 18.5135 17.4628 18.4725C17.3708 18.4315 17.288 18.3724 17.2193 18.2987L11.7493 12.8287L6.27934 18.2987C6.13717 18.4312 5.94912 18.5033 5.75482 18.4999C5.56052 18.4965 5.37513 18.4177 5.23772 18.2803C5.10031 18.1429 5.02159 17.9575 5.01817 17.7632C5.01474 17.5689 5.08686 17.3809 5.21934 17.2387L10.6893 11.7687L5.21934 6.29871C5.07889 6.15808 5 5.96746 5 5.76871C5 5.56996 5.07889 5.37933 5.21934 5.23871Z" fill="#212121"/>
</g>
<defs>
<clipPath id="clip0_0_830">
<rect width="24" height="24" fill="white"/>
</clipPath>
</defs>
</svg>
