<svg width="16" height="16" viewBox="0 0 16 16" fill="none" xmlns="http://www.w3.org/2000/svg">
<path fill-rule="evenodd" clip-rule="evenodd" d="M5.69232 13.2986C5.57916 13.1695 5.5156 12.9945 5.5156 12.8121C5.5156 12.6296 5.57916 12.4546 5.69232 12.3255L9.04147 8.50843L5.69232 4.69224C5.63295 4.6292 5.58534 4.55319 5.55231 4.46873C5.51928 4.38428 5.50153 4.29311 5.50009 4.20066C5.49866 4.10821 5.51359 4.01638 5.54398 3.93065C5.57437 3.84492 5.6196 3.76704 5.67698 3.70166C5.73436 3.63628 5.80271 3.58474 5.87795 3.55011C5.95319 3.51548 6.03378 3.49848 6.11491 3.50011C6.19604 3.50174 6.27606 3.52197 6.35018 3.5596C6.4243 3.59724 6.49101 3.65149 6.54632 3.71914L10.3233 8.02188C10.4364 8.15098 10.5 8.32597 10.5 8.50843C10.5 8.69089 10.4364 8.86588 10.3233 8.99498L6.54632 13.2986C6.43303 13.4276 6.27945 13.5 6.11932 13.5C5.9592 13.5 5.80562 13.4276 5.69232 13.2986Z" fill="#212121"/>
</svg>
