<svg width="77" height="44" viewBox="0 0 77 44" fill="none" xmlns="http://www.w3.org/2000/svg">
<g clip-path="url(#clip0_3890_200610)">
<path fill-rule="evenodd" clip-rule="evenodd" d="M7.26369 42.7798H70.6915C71.0247 42.7798 71.2968 43.0539 71.2968 43.3897C71.2968 43.7256 71.025 44 70.6915 44H7.26369C6.93027 44 6.65843 43.7256 6.65843 43.3897C6.65843 43.0539 6.93055 42.7798 7.26369 42.7798ZM76.2483 42.7798H76.2416C75.9085 42.7798 75.6364 43.0539 75.6364 43.3897C75.6364 43.7256 75.9082 44 76.2416 44H76.2483C76.5815 44 76.8536 43.7256 76.8536 43.3897C76.8533 43.0539 76.5815 42.7798 76.2483 42.7798ZM74.1943 42.7798H73.1809C72.8475 42.7798 72.5753 43.0539 72.5753 43.3897C72.5753 43.7256 72.8475 44 73.1809 44H74.1943C74.5275 44 74.7996 43.7256 74.7996 43.3897C74.7996 43.0539 74.5275 42.7798 74.1943 42.7798ZM4.07389 42.7798H0.605261C0.272116 42.7798 0 43.0539 0 43.3897C0 43.7256 0.272116 44 0.605261 44H4.07389C4.40704 44 4.67916 43.7256 4.67916 43.3897C4.67916 43.0539 4.40732 42.7798 4.07389 42.7798Z" fill="#006491"/>
<path fill-rule="evenodd" clip-rule="evenodd" d="M16.0438 6.14201H15.0779V5.17526C15.0779 4.88719 14.8467 4.64746 14.5541 4.64746C14.2686 4.64746 14.0373 4.88747 14.0373 5.17526V6.14201H13.0715C12.7859 6.14201 12.5547 6.38174 12.5547 6.66981C12.5547 6.9576 12.7859 7.19761 13.0715 7.19761H14.0373V8.16437C14.0373 8.45216 14.2686 8.69217 14.5541 8.69217C14.8467 8.69217 15.0779 8.45216 15.0779 8.16437V7.19761H16.0438C16.3293 7.19761 16.5606 6.9576 16.5606 6.66981C16.5606 6.38174 16.3293 6.14201 16.0438 6.14201Z" fill="#006491"/>
<path fill-rule="evenodd" clip-rule="evenodd" d="M71.6523 34.642H70.6865V33.6686C70.6865 33.3805 70.4485 33.1475 70.1627 33.1475C69.8771 33.1475 69.6459 33.3805 69.6459 33.6686V34.642H68.68C68.3945 34.642 68.1562 34.875 68.1562 35.1631C68.1562 35.4576 68.3942 35.6909 68.68 35.6909H69.6459V36.6644C69.6459 36.9524 69.8771 37.1855 70.1627 37.1855C70.4482 37.1855 70.6865 36.9524 70.6865 36.6644V35.6909H71.6523C71.9379 35.6909 72.1691 35.4579 72.1691 35.1631C72.1691 34.8748 71.9379 34.642 71.6523 34.642Z" fill="#006491"/>
<path fill-rule="evenodd" clip-rule="evenodd" d="M65.3456 17.8339C65.8764 17.8339 66.3114 17.4019 66.3114 16.8671C66.3114 16.3393 65.8764 15.9004 65.3456 15.9004C64.822 15.9004 64.3867 16.3393 64.3867 16.8671C64.3867 17.4019 64.8218 17.8339 65.3456 17.8339Z" fill="#006491"/>
<path fill-rule="evenodd" clip-rule="evenodd" d="M9.03334 39.119C9.55714 39.119 9.99219 38.6871 9.99219 38.1523C9.99219 37.6175 9.55714 37.1855 9.03334 37.1855C8.50283 37.1855 8.07422 37.6175 8.07422 38.1523C8.07422 38.6871 8.50283 39.119 9.03334 39.119Z" fill="#006491"/>
<path opacity="0.1" fill-rule="evenodd" clip-rule="evenodd" d="M34.9104 6.9168C49.4056 2.6983 71.046 19.5105 60.2882 35.5891C59.5357 36.7173 58.8641 37.4508 57.9316 38.4222C56.2398 40.0333 55.0273 41.3306 53.6967 42.7791H20.1789C14.514 37.0182 11.6036 29.0696 15.3595 20.8643C18.8793 13.1853 24.619 11.731 31.5092 8.23952C32.3983 7.78827 33.0764 7.54379 34.0089 7.21158L34.9104 6.9168Z" fill="#006491"/>
<path d="M47.0307 11.3675C46.823 11.3675 46.6151 11.29 46.4549 11.1346C46.1296 10.8188 46.1238 10.3012 46.4416 9.97827L51.3952 4.94913C51.7133 4.62621 52.2347 4.62047 52.5599 4.93622C52.8852 5.25196 52.891 5.76958 52.5732 6.0925L47.6198 11.1216C47.4584 11.2855 47.2447 11.3675 47.0307 11.3675Z" fill="#006491"/>
<path d="M52.0416 11.311C51.834 11.311 51.6263 11.2335 51.466 11.0778L46.4001 6.1601C46.0749 5.84436 46.0691 5.32674 46.3871 5.00382C46.7052 4.6809 47.2266 4.67516 47.5519 4.9909L52.6178 9.90882C52.943 10.2246 52.9488 10.7422 52.6308 11.0651C52.4693 11.229 52.2556 11.311 52.0416 11.311Z" fill="#006491"/>
<path d="M28.0936 10.4877C26.5041 10.4877 25.2109 9.20368 25.2109 7.62593C25.2109 6.04794 26.5043 4.76416 28.0936 4.76416C29.6831 4.76416 30.9763 6.04794 30.9763 7.62593C30.9765 9.20392 29.6831 10.4877 28.0936 10.4877ZM28.0936 6.39932C27.4125 6.39932 26.8583 6.94947 26.8583 7.62593C26.8583 8.30214 27.4125 8.85229 28.0936 8.85229C28.775 8.85229 29.3292 8.30214 29.3292 7.62593C29.3292 6.94947 28.775 6.39932 28.0936 6.39932Z" fill="#006491"/>
<path d="M40.7804 35.8353H23.6487C22.0136 35.8353 20.6836 34.5149 20.6836 32.8917V4.43698C20.6836 2.81378 22.0139 1.49341 23.6487 1.49341H40.7804C42.4154 1.49341 43.7455 2.81402 43.7455 4.43698V32.8917C43.7455 34.5147 42.4154 35.8353 40.7804 35.8353ZM23.6487 3.12857C22.922 3.12857 22.3309 3.71556 22.3309 4.43698V32.8917C22.3309 33.6132 22.9222 34.1999 23.6487 34.1999H40.7804C41.5071 34.1999 42.0981 33.6129 42.0981 32.8917V4.43698C42.0981 3.71556 41.5068 3.12857 40.7804 3.12857H23.6487Z" fill="#006491"/>
<path d="M45.7257 39.1064H28.594C26.9589 39.1064 25.6289 37.786 25.6289 36.1628C25.6289 35.7112 25.9976 35.3452 26.4525 35.3452C26.9074 35.3452 27.276 35.7114 27.276 36.1628C27.276 36.8842 27.8673 37.4712 28.5937 37.4712H45.7254C46.4521 37.4712 47.0432 36.8842 47.0432 36.1628V14.5764C47.0432 14.1248 47.4121 13.7588 47.8667 13.7588C48.3214 13.7588 48.6903 14.1248 48.6903 14.5764V36.1628C48.6908 37.786 47.3605 39.1064 45.7257 39.1064Z" fill="#006491"/>
<path d="M50.6673 39.1061C50.2124 39.1061 49.8438 38.7399 49.8438 38.2885C49.8438 37.8369 50.2126 37.4709 50.6673 37.4709C51.394 37.4709 51.985 36.8839 51.985 36.1625V13.7585C51.985 13.3069 52.3539 12.9409 52.8086 12.9409C53.2635 12.9409 53.6321 13.3071 53.6321 13.7585V36.1625C53.6324 37.7857 52.3021 39.1061 50.6673 39.1061Z" fill="#006491"/>
<path d="M31.3971 14.5765C30.9422 14.5765 30.5735 14.2103 30.5735 13.759V12.1781C30.5735 11.4868 30.0071 10.9245 29.3105 10.9245H26.8945C26.1982 10.9245 25.6315 11.4868 25.6315 12.1781V13.759C25.6315 14.2106 25.2628 14.5765 24.8079 14.5765C24.353 14.5765 23.9844 14.2103 23.9844 13.759V12.1781C23.9844 10.585 25.2898 9.28906 26.8948 9.28906H29.3107C30.9154 9.28906 32.2209 10.585 32.2209 12.1781V13.759C32.2206 14.2106 31.852 14.5765 31.3971 14.5765Z" fill="#006491"/>
<path d="M37.9735 8.85244H34.679C34.2241 8.85244 33.8555 8.48623 33.8555 8.03486C33.8555 7.58326 34.2244 7.21729 34.679 7.21729H37.9735C38.4284 7.21729 38.797 7.5835 38.797 8.03486C38.797 8.48623 38.4281 8.85244 37.9735 8.85244Z" fill="#006491"/>
<path d="M39.6208 12.123H34.679C34.2241 12.123 33.8555 11.757 33.8555 11.3054C33.8555 10.8538 34.2244 10.4878 34.679 10.4878H39.6208C40.0757 10.4878 40.4444 10.8538 40.4444 11.3054C40.4444 11.757 40.0755 12.123 39.6208 12.123Z" fill="#006491"/>
<path d="M39.6335 19.4826H24.8079C24.353 19.4826 23.9844 19.1164 23.9844 18.665C23.9844 18.2136 24.3533 17.8474 24.8079 17.8474H39.6335C40.0885 17.8474 40.4571 18.2136 40.4571 18.665C40.4571 19.1164 40.0882 19.4826 39.6335 19.4826Z" fill="#006491"/>
<path d="M31.3971 23.5702H24.8079C24.353 23.5702 23.9844 23.204 23.9844 22.7526C23.9844 22.301 24.3533 21.9351 24.8079 21.9351H31.3971C31.852 21.9351 32.2206 22.3013 32.2206 22.7526C32.2206 23.2042 31.852 23.5702 31.3971 23.5702Z" fill="#006491"/>
<path d="M39.6208 23.5702H34.679C34.2241 23.5702 33.8555 23.204 33.8555 22.7526C33.8555 22.301 34.2244 21.9351 34.679 21.9351H39.6208C40.0757 21.9351 40.4444 22.3013 40.4444 22.7526C40.4444 23.2042 40.0755 23.5702 39.6208 23.5702Z" fill="#006491"/>
<path d="M30.5735 27.6591H24.8079C24.353 27.6591 23.9844 27.2929 23.9844 26.8415C23.9844 26.3899 24.3533 26.0239 24.8079 26.0239H30.5735C31.0284 26.0239 31.3971 26.3901 31.3971 26.8415C31.3971 27.2929 31.0282 27.6591 30.5735 27.6591Z" fill="#006491"/>
<path d="M34.6818 27.6591H33.0345C32.5796 27.6591 32.2109 27.2929 32.2109 26.8415C32.2109 26.3899 32.5798 26.0239 33.0345 26.0239H34.6818C35.1367 26.0239 35.5054 26.3901 35.5054 26.8415C35.5056 27.2929 35.1367 27.6591 34.6818 27.6591Z" fill="#006491"/>
<path d="M39.6304 27.6591H37.1595C36.7046 27.6591 36.3359 27.2929 36.3359 26.8415C36.3359 26.3899 36.7046 26.0239 37.1595 26.0239H39.6304C40.0853 26.0239 40.4539 26.3901 40.4539 26.8415C40.4539 27.2929 40.0851 27.6591 39.6304 27.6591Z" fill="#006491"/>
<path d="M49.5184 15.3939C45.431 15.3939 42.1055 12.0925 42.1055 8.03471C42.1055 3.97695 45.4308 0.675781 49.5184 0.675781C53.6058 0.675781 56.9311 3.97695 56.9311 8.03471C56.9311 12.0925 53.6058 15.3939 49.5184 15.3939ZM49.5184 2.31118C46.3394 2.31118 43.7528 4.87873 43.7528 8.03471C43.7528 11.1907 46.3391 13.7585 49.5184 13.7585C52.6974 13.7585 55.2837 11.1909 55.2837 8.03471C55.2837 4.87849 52.6974 2.31118 49.5184 2.31118Z" fill="#006491"/>
</g>
<defs>
<clipPath id="clip0_3890_200610">
<rect width="76.8533" height="44" fill="white"/>
</clipPath>
</defs>
</svg>
