<svg width="24" height="24" viewBox="0 0 24 24" fill="none" xmlns="http://www.w3.org/2000/svg">
<mask id="mask0_3890_199551" style="mask-type:alpha" maskUnits="userSpaceOnUse" x="0" y="0" width="24" height="24">
<rect width="24" height="24" fill="#D9D9D9"/>
</mask>
<g mask="url(#mask0_3890_199551)">
<path d="M9.5494 15.5149L18.1879 6.87644C18.3366 6.72772 18.5132 6.65175 18.7177 6.64853C18.9222 6.64533 19.102 6.7213 19.2571 6.87644C19.4122 7.03155 19.4898 7.20975 19.4898 7.41103C19.4898 7.6123 19.4122 7.7905 19.2571 7.94564L10.1821 17.0206C10.0013 17.2014 9.79041 17.2918 9.5494 17.2918C9.30838 17.2918 9.09749 17.2014 8.91672 17.0206L4.74172 12.8456C4.593 12.6969 4.5196 12.5203 4.52152 12.3158C4.52345 12.1114 4.60198 11.9316 4.7571 11.7764C4.91223 11.6213 5.09043 11.5437 5.2917 11.5437C5.49298 11.5437 5.67118 11.6213 5.8263 11.7764L9.5494 15.5149Z" fill="#2F8900"/>
</g>
</svg>
