<svg width="8" height="13" viewBox="0 0 8 13" fill="none" xmlns="http://www.w3.org/2000/svg">
<mask id="mask0_3890_200766" style="mask-type:alpha" maskUnits="userSpaceOnUse" x="-5" y="-3" width="18" height="19">
<rect x="-4.79592" y="-2.15188" width="17.3038" height="17.3038" fill="#D9D9D9"/>
</mask>
<g mask="url(#mask0_3890_200766)">
<path d="M3.85523 11.9047L6.78079 8.99296C6.88802 8.88574 7.01349 8.83098 7.15722 8.82867C7.30096 8.82636 7.42875 8.88113 7.54059 8.99296C7.65244 9.10481 7.70836 9.23329 7.70836 9.3784C7.70836 9.52353 7.65244 9.65201 7.54059 9.76385L4.63305 12.6825C4.42138 12.8942 4.16211 13 3.85523 13C3.54836 13 3.28908 12.8942 3.07741 12.6825L0.158789 9.76385C0.0515654 9.65663 -0.00135552 9.52931 2.63749e-05 9.38188C0.00140827 9.23445 0.0580241 9.10481 0.169874 8.99296C0.281711 8.88113 0.410192 8.82636 0.555315 8.82867C0.700438 8.83098 0.828919 8.88574 0.940756 8.99296L3.85523 11.9047ZM3.85523 1.09533L0.940756 3.99592C0.833533 4.10315 0.708057 4.15607 0.564327 4.15469C0.420598 4.1533 0.292808 4.10038 0.180959 3.99592C0.0691211 3.88409 0.011352 3.75561 0.00765092 3.61048C0.00394984 3.46537 0.0580241 3.33689 0.169874 3.22504L3.07741 0.317506C3.28908 0.105835 3.54836 0 3.85523 0C4.16211 0 4.42138 0.105835 4.63305 0.317506L7.54059 3.22504C7.64781 3.33227 7.70073 3.45959 7.69935 3.60702C7.69796 3.75445 7.64134 3.88409 7.52951 3.99592C7.41766 4.10038 7.29102 4.1533 7.1496 4.15469C7.00818 4.15607 6.88155 4.10315 6.76971 3.99592L3.85523 1.09533Z" fill="#808080"/>
</g>
</svg>
