<svg width="19" height="20" viewBox="0 0 19 20" fill="none" xmlns="http://www.w3.org/2000/svg">
<path d="M9.5 19.053C8.89023 19.053 8.31581 18.7437 7.9093 18.2047L6.58372 16.4372C6.55721 16.4019 6.45116 16.3577 6.40698 16.3488H5.96512C2.28 16.3488 0 15.3502 0 10.3837V5.96512C0 2.05907 2.05907 0 5.96512 0H13.0349C16.9409 0 19 2.05907 19 5.96512V10.3837C19 14.2898 16.9409 16.3488 13.0349 16.3488H12.593C12.5223 16.3488 12.4605 16.3842 12.4163 16.4372L11.0907 18.2047C10.6842 18.7437 10.1098 19.053 9.5 19.053ZM5.96512 1.32558C2.8014 1.32558 1.32558 2.8014 1.32558 5.96512V10.3837C1.32558 14.3781 2.69535 15.0233 5.96512 15.0233H6.40698C6.85767 15.0233 7.37023 15.2795 7.64419 15.6419L8.96977 17.4093C9.27907 17.8158 9.72093 17.8158 10.0302 17.4093L11.3558 15.6419C11.6474 15.253 12.107 15.0233 12.593 15.0233H13.0349C16.1986 15.0233 17.6744 13.5474 17.6744 10.3837V5.96512C17.6744 2.8014 16.1986 1.32558 13.0349 1.32558H5.96512Z" fill="white"/>
<path d="M9.50091 9.50011C9.00602 9.50011 8.61719 9.10243 8.61719 8.61639C8.61719 8.13034 9.01486 7.73267 9.50091 7.73267C9.98695 7.73267 10.3846 8.13034 10.3846 8.61639C10.3846 9.10243 9.99579 9.50011 9.50091 9.50011Z" fill="white"/>
<path d="M13.0341 9.50011C12.5392 9.50011 12.1504 9.10243 12.1504 8.61639C12.1504 8.13034 12.5481 7.73267 13.0341 7.73267C13.5202 7.73267 13.9178 8.13034 13.9178 8.61639C13.9178 9.10243 13.529 9.50011 13.0341 9.50011Z" fill="white"/>
<path d="M5.96575 9.50011C5.47087 9.50011 5.08203 9.10243 5.08203 8.61639C5.08203 8.13034 5.47971 7.73267 5.96575 7.73267C6.4518 7.73267 6.84947 8.13034 6.84947 8.61639C6.84947 9.10243 6.46064 9.50011 5.96575 9.50011Z" fill="white"/>
</svg>
