<svg width="16" height="16" viewBox="0 0 16 16" fill="none" xmlns="http://www.w3.org/2000/svg">
<path d="M7.29824 8.71006L6.21617 7.63826C6.12387 7.54596 6.00956 7.49874 5.87324 7.4966C5.73692 7.49446 5.61705 7.54511 5.51364 7.64853C5.41705 7.74511 5.36875 7.8622 5.36875 7.9998C5.36875 8.1374 5.41705 8.25449 5.51364 8.35106L6.87645 9.71388C6.99696 9.83439 7.13756 9.89465 7.29824 9.89465C7.45891 9.89465 7.59951 9.83439 7.72002 9.71388L10.4828 6.95106C10.582 6.85193 10.6309 6.73591 10.6296 6.603C10.6284 6.4701 10.5794 6.35194 10.4828 6.24853C10.3794 6.14511 10.2606 6.09169 10.1264 6.08826C9.99226 6.08485 9.87346 6.13485 9.77004 6.23826L7.29824 8.71006ZM5.60465 14.1216L4.68287 12.5716L2.93929 12.1972C2.78971 12.1682 2.67027 12.0895 2.58095 11.9613C2.49164 11.8331 2.45596 11.6942 2.4739 11.5446L2.64442 9.75106L1.45852 8.39466C1.35597 8.28526 1.30469 8.15364 1.30469 7.9998C1.30469 7.84595 1.35597 7.71433 1.45852 7.60493L2.64442 6.24853L2.4739 4.45495C2.45596 4.30537 2.49164 4.16648 2.58095 4.03828C2.67027 3.91007 2.78971 3.83144 2.93929 3.80238L4.68287 3.42803L5.60465 1.87803C5.685 1.74641 5.7944 1.65666 5.93287 1.6088C6.07133 1.56094 6.21192 1.56821 6.35465 1.6306L7.99824 2.32546L9.64182 1.6306C9.78455 1.56821 9.92515 1.56094 10.0636 1.6088C10.2021 1.65666 10.3115 1.74641 10.3918 1.87803L11.3136 3.42803L13.0572 3.80238C13.2068 3.83144 13.3262 3.91007 13.4155 4.03828C13.5048 4.16648 13.5405 4.30537 13.5226 4.45495L13.3521 6.24853L14.538 7.60493C14.6405 7.71433 14.6918 7.84595 14.6918 7.9998C14.6918 8.15364 14.6405 8.28526 14.538 8.39466L13.3521 9.75106L13.5226 11.5446C13.5405 11.6942 13.5048 11.8331 13.4155 11.9613C13.3262 12.0895 13.2068 12.1682 13.0572 12.1972L11.3136 12.5716L10.3918 14.1216C10.3115 14.2532 10.2021 14.3429 10.0636 14.3908C9.92515 14.4387 9.78455 14.4314 9.64182 14.369L7.99824 13.6741L6.35465 14.369C6.21192 14.4314 6.07133 14.4387 5.93287 14.3908C5.7944 14.3429 5.685 14.2532 5.60465 14.1216Z" fill="#2C96EA"/>
</svg>
