<svg width="20" height="20" viewBox="0 0 20 20" fill="none" xmlns="http://www.w3.org/2000/svg">
<path d="M10.511 15.9682C10.717 16.0162 10.7359 16.286 10.5352 16.3529L9.3502 16.7429C6.3727 17.7029 4.8052 16.9004 3.8377 13.9229L2.8777 10.9604C1.9177 7.98293 2.7127 6.40793 5.6902 5.44793L6.0832 5.31778C6.38534 5.21772 6.67939 5.52076 6.5936 5.82727C6.55107 5.9792 6.51016 6.13775 6.4702 6.30293L5.7352 9.44543C4.9102 12.9779 6.1177 14.9279 9.6502 15.7679L10.511 15.9682Z" fill="white"/>
<path d="M13.8776 3.40787L12.6251 3.11537C10.1201 2.52287 8.62763 3.01037 7.75013 4.82537C7.52513 5.28287 7.34513 5.83787 7.19513 6.47537L6.46013 9.61787C5.72513 12.7529 6.69263 14.2979 9.82014 15.0404L11.0801 15.3404C11.5151 15.4454 11.9201 15.5129 12.2951 15.5429C14.6351 15.7679 15.8801 14.6729 16.5101 11.9654L17.2451 8.83037C17.9801 5.69537 17.0201 4.14287 13.8776 3.40787ZM12.4676 10.9979C12.4001 11.2529 12.1751 11.4179 11.9201 11.4179C11.8751 11.4179 11.8301 11.4104 11.7776 11.4029L9.59513 10.8479C9.29513 10.7729 9.11513 10.4654 9.19013 10.1654C9.26513 9.86537 9.57263 9.68537 9.87263 9.76037L12.0551 10.3154C12.3626 10.3904 12.5426 10.6979 12.4676 10.9979ZM14.6651 8.46287C14.5976 8.71787 14.3726 8.88287 14.1176 8.88287C14.0726 8.88287 14.0276 8.87537 13.9751 8.86787L10.3376 7.94537C10.0376 7.87037 9.85763 7.56287 9.93263 7.26287C10.0076 6.96287 10.3151 6.78287 10.6151 6.85787L14.2526 7.78037C14.5601 7.84787 14.7401 8.15537 14.6651 8.46287Z" fill="white"/>
</svg>
