<svg width="24" height="24" viewBox="0 0 24 24" fill="none" xmlns="http://www.w3.org/2000/svg">
<mask id="mask0_3890_205430" style="mask-type:alpha" maskUnits="userSpaceOnUse" x="0" y="0" width="24" height="24">
<rect width="24" height="24" fill="#D9D9D9"/>
</mask>
<g mask="url(#mask0_3890_205430)">
<path d="M11.9992 19.5135C13.9556 17.7622 15.4527 16.0824 16.4906 14.474C17.5284 12.8657 18.0473 11.457 18.0473 10.2481C18.0473 8.42498 17.4681 6.92627 16.3098 5.7519C15.1515 4.57753 13.7146 3.99035 11.9992 3.99035C10.2838 3.99035 8.84698 4.57753 7.68865 5.7519C6.53031 6.92627 5.95115 8.42498 5.95115 10.2481C5.95115 11.457 6.47006 12.8657 7.50787 14.474C8.54571 16.0824 10.0428 17.7622 11.9992 19.5135ZM11.9992 20.9403C11.8044 20.9403 11.6095 20.9067 11.4146 20.8394C11.2198 20.7721 11.0435 20.6679 10.8858 20.5269C9.98836 19.7 9.14862 18.8484 8.36657 17.9721C7.58452 17.0958 6.90471 16.2199 6.32715 15.3442C5.74958 14.4686 5.29253 13.6006 4.956 12.7404C4.61945 11.8801 4.45117 11.0493 4.45117 10.2481C4.45117 7.94038 5.19765 6.07213 6.6906 4.64328C8.18353 3.21443 9.95307 2.5 11.9992 2.5C14.0454 2.5 15.8149 3.21443 17.3078 4.64328C18.8008 6.07213 19.5473 7.94038 19.5473 10.2481C19.5473 11.0493 19.379 11.8785 19.0424 12.7356C18.7059 13.5926 18.2505 14.4606 17.6761 15.3394C17.1017 16.2183 16.4235 17.0942 15.6415 17.9673C14.8594 18.8404 14.0197 19.6903 13.1223 20.5173C12.9669 20.6583 12.7903 20.7641 12.5925 20.8346C12.3948 20.9051 12.197 20.9403 11.9992 20.9403ZM12.0009 11.8654C12.4985 11.8654 12.9239 11.6882 13.2771 11.3339C13.6303 10.9795 13.8069 10.5536 13.8069 10.056C13.8069 9.55839 13.6297 9.133 13.2754 8.7798C12.9211 8.4266 12.4951 8.25 11.9975 8.25C11.4999 8.25 11.0745 8.42717 10.7213 8.7815C10.3681 9.13583 10.1915 9.56179 10.1915 10.0594C10.1915 10.557 10.3687 10.9824 10.723 11.3356C11.0774 11.6888 11.5033 11.8654 12.0009 11.8654Z" fill="#212121"/>
</g>
</svg>
