<svg width="20" height="20" viewBox="0 0 20 20" fill="none" xmlns="http://www.w3.org/2000/svg">
<mask id="mask0_0_412" style="mask-type:alpha" maskUnits="userSpaceOnUse" x="0" y="0" width="24" height="24">
<rect width="24" height="24" fill="#D9D9D9"/>
</mask>
<g mask="url(#mask0_0_412)">
<path d="M4.42439 17.0834C4.00344 17.0834 3.64714 16.9375 3.35547 16.6459C3.0638 16.3542 2.91797 15.9979 2.91797 15.577V4.42317C2.91797 4.00222 3.0638 3.64591 3.35547 3.35425C3.64714 3.06258 4.00344 2.91675 4.42439 2.91675H15.5782C15.9991 2.91675 16.3554 3.06258 16.6471 3.35425C16.9388 3.64591 17.0846 4.00222 17.0846 4.42317V15.577C17.0846 15.9979 16.9388 16.3542 16.6471 16.6459C16.3554 16.9375 15.9991 17.0834 15.5782 17.0834H4.42439ZM4.42439 15.8334H15.5782C15.6423 15.8334 15.7011 15.8067 15.7545 15.7533C15.8079 15.6998 15.8346 15.6411 15.8346 15.577V4.42317C15.8346 4.35905 15.8079 4.30028 15.7545 4.24685C15.7011 4.19344 15.6423 4.16673 15.5782 4.16673H4.42439C4.36027 4.16673 4.3015 4.19344 4.24807 4.24685C4.19466 4.30028 4.16795 4.35905 4.16795 4.42317V15.577C4.16795 15.6411 4.19466 15.6998 4.24807 15.7533C4.3015 15.8067 4.36027 15.8334 4.42439 15.8334ZM6.66795 13.9584H10.8346C11.012 13.9584 11.1605 13.8985 11.2801 13.7789C11.3998 13.6592 11.4596 13.5107 11.4596 13.3334C11.4596 13.156 11.3998 13.0075 11.2801 12.8879C11.1605 12.7682 11.012 12.7084 10.8346 12.7084H6.66795C6.4906 12.7084 6.3421 12.7682 6.22245 12.8879C6.1028 13.0075 6.04297 13.156 6.04297 13.3334C6.04297 13.5107 6.1028 13.6592 6.22245 13.7789C6.3421 13.8985 6.4906 13.9584 6.66795 13.9584ZM6.66795 10.625H13.3346C13.512 10.625 13.6605 10.5652 13.7801 10.4456C13.8998 10.3259 13.9596 10.1774 13.9596 10.0001C13.9596 9.82271 13.8998 9.67421 13.7801 9.55456C13.6605 9.43491 13.512 9.37508 13.3346 9.37508H6.66795C6.4906 9.37508 6.3421 9.43491 6.22245 9.55456C6.1028 9.67421 6.04297 9.82271 6.04297 10.0001C6.04297 10.1774 6.1028 10.3259 6.22245 10.4456C6.3421 10.5652 6.4906 10.625 6.66795 10.625ZM6.66795 7.29171H13.3346C13.512 7.29171 13.6605 7.23188 13.7801 7.11223C13.8998 6.99257 13.9596 6.84407 13.9596 6.66673C13.9596 6.48938 13.8998 6.34088 13.7801 6.22123C13.6605 6.10158 13.512 6.04175 13.3346 6.04175H6.66795C6.4906 6.04175 6.3421 6.10158 6.22245 6.22123C6.1028 6.34088 6.04297 6.48938 6.04297 6.66673C6.04297 6.84407 6.1028 6.99257 6.22245 7.11223C6.3421 7.23188 6.4906 7.29171 6.66795 7.29171Z" fill="#006491"/>
</g>
</svg>
