<svg width="16" height="14" viewBox="0 0 16 14" fill="none" xmlns="http://www.w3.org/2000/svg">
<mask id="mask0_0_265" style="mask-type:alpha" maskUnits="userSpaceOnUse" x="-4" y="-6" width="25" height="26">
<rect x="-3.54873" y="-5.27557" width="24.3342" height="24.3342" fill="#D9D9D9"/>
</mask>
<g mask="url(#mask0_0_265)">
<path d="M15.4349 7.74217L1.28299 13.7087C0.977532 13.8309 0.687339 13.8046 0.412413 13.6297C0.137471 13.4549 0 13.2011 0 12.8683V0.915795C0 0.583009 0.137471 0.329198 0.412413 0.154364C0.687339 -0.0204706 0.977532 -0.0467901 1.28299 0.0754046L15.4349 6.04192C15.8119 6.2083 16.0004 6.49168 16.0004 6.89204C16.0004 7.29241 15.8119 7.57578 15.4349 7.74217ZM1.52086 11.9617L13.5359 6.89204L1.52086 1.82242V5.56616L7.0194 6.89204L1.52086 8.21793V11.9617Z" fill="white"/>
</g>
</svg>
