<svg width="20" height="20" viewBox="0 0 20 20" fill="none" xmlns="http://www.w3.org/2000/svg">
<path d="M16.8183 6.23465C16.1808 5.52965 15.1158 5.17715 13.5708 5.17715H13.3908V5.14715C13.3908 3.88715 13.3908 2.32715 10.5708 2.32715H9.43076C6.61076 2.32715 6.61076 3.89465 6.61076 5.14715V5.18465H6.43076C4.87826 5.18465 3.82076 5.53715 3.18326 6.24215C2.44076 7.06715 2.46326 8.17715 2.53826 8.93465L2.54576 8.98715L2.60385 9.59711C2.61455 9.70944 2.67505 9.8109 2.76947 9.87269C2.94932 9.99039 3.25033 10.1844 3.43076 10.2846C3.53576 10.3521 3.64826 10.4121 3.76076 10.4721C5.04326 11.1771 6.45326 11.6496 7.88576 11.8821C7.95326 12.5871 8.26076 13.4121 9.90326 13.4121C11.5458 13.4121 11.8683 12.5946 11.9208 11.8671C13.4508 11.6196 14.9283 11.0871 16.2633 10.3071C16.3083 10.2846 16.3383 10.2621 16.3758 10.2396C16.6733 10.0715 16.982 9.86425 17.2634 9.66128C17.3481 9.60013 17.4023 9.50559 17.4139 9.4017L17.4258 9.29465L17.4633 8.94215C17.4708 8.89715 17.4708 8.85965 17.4783 8.80715C17.5383 8.04965 17.5233 7.01465 16.8183 6.23465ZM10.8183 11.3721C10.8183 12.1671 10.8183 12.2871 9.89576 12.2871C8.97326 12.2871 8.97326 12.1446 8.97326 11.3796V10.4346H10.8183V11.3721ZM7.68326 5.17715V5.14715C7.68326 3.87215 7.68326 3.39965 9.43076 3.39965H10.5708C12.3183 3.39965 12.3183 3.87965 12.3183 5.14715V5.18465H7.68326V5.17715Z" fill="white"/>
<path d="M16.6545 11.3012C16.9197 11.175 17.2251 11.3852 17.1986 11.6777L16.9294 14.643C16.7719 16.143 16.1569 17.673 12.8569 17.673H7.14189C3.84189 17.673 3.22689 16.143 3.06939 14.6505L2.81386 11.8397C2.78758 11.5506 3.08605 11.3406 3.35052 11.4602C4.20509 11.8469 5.78244 12.5328 6.75682 12.788C6.88005 12.8203 6.97972 12.9085 7.03368 13.0239C7.48891 13.9975 8.47623 14.5155 9.9019 14.5155C11.3135 14.5155 12.3133 13.9775 12.77 13.0016C12.824 12.8861 12.9238 12.7979 13.0471 12.7655C14.0818 12.4932 15.7607 11.7265 16.6545 11.3012Z" fill="white"/>
</svg>
