<svg width="8" height="6" viewBox="0 0 8 6" fill="none" xmlns="http://www.w3.org/2000/svg">
<path d="M2.68723 4.73879L7.30418 0.121856C7.38367 0.0423728 7.47805 0.00177104 7.58734 5.18481e-05C7.69663 -0.00165843 7.79273 0.0389433 7.87563 0.121856C7.95854 0.204761 8 0.300002 8 0.40758C8 0.51515 7.95854 0.610392 7.87563 0.693305L3.02538 5.54355C2.92876 5.64016 2.81605 5.68847 2.68723 5.68847C2.55842 5.68847 2.44571 5.64016 2.34909 5.54355L0.117708 3.31218C0.0382247 3.23269 -0.00100484 3.13831 1.95516e-05 3.02902C0.00105285 2.91973 0.0430216 2.82363 0.125926 2.74073C0.208839 2.65781 0.30408 2.61636 0.41165 2.61636C0.519228 2.61636 0.61447 2.65781 0.697374 2.74073L2.68723 4.73879Z" fill="white"/>
</svg>
