<svg width="16" height="16" viewBox="0 0 16 16" fill="none" xmlns="http://www.w3.org/2000/svg">
<path fill-rule="evenodd" clip-rule="evenodd" d="M8.52879 1.67145C8.48223 1.57056 8.40775 1.48511 8.31416 1.42522C8.22056 1.36532 8.11177 1.3335 8.00065 1.3335C7.88953 1.3335 7.78074 1.36532 7.68715 1.42522C7.59355 1.48511 7.51907 1.57056 7.47252 1.67145L5.8032 5.28928L1.84743 5.75867C1.73706 5.7717 1.63274 5.81608 1.5468 5.88655C1.46087 5.95702 1.39692 6.05064 1.36253 6.15631C1.32814 6.26199 1.32475 6.37531 1.35275 6.48286C1.38075 6.59041 1.43898 6.68768 1.52054 6.76317L4.44622 9.46782L3.66972 13.3765C3.64815 13.4854 3.65823 13.5983 3.69877 13.7017C3.73931 13.8051 3.80861 13.8947 3.89847 13.96C3.98834 14.0253 4.09502 14.0635 4.2059 14.07C4.31677 14.0766 4.42721 14.0513 4.52416 13.9971L8.00065 12.0509L11.4771 13.9971C11.5741 14.0515 11.6847 14.077 11.7958 14.0705C11.9068 14.064 12.0137 14.0258 12.1037 13.9604C12.1937 13.895 12.263 13.8052 12.3035 13.7016C12.344 13.598 12.354 13.485 12.3322 13.3759L11.5557 9.4684L14.4808 6.76317C14.5623 6.68768 14.6205 6.59041 14.6486 6.48286C14.6766 6.37531 14.6732 6.26199 14.6388 6.15631C14.6044 6.05064 14.5404 5.95702 14.4545 5.88655C14.3686 5.81608 14.2642 5.7717 14.1539 5.75867L10.1975 5.2887L8.52879 1.67145Z" fill="#E5E7EB"/>
</svg>
