<svg width="65" height="64" viewBox="0 0 65 64" fill="none" xmlns="http://www.w3.org/2000/svg">
<rect x="0.5" y="0.000488281" width="64" height="63.9989" rx="31.9995" fill="#2F8900"/>
<path d="M25.4362 41.6942L48.5209 18.6095C48.9183 18.2121 49.3903 18.0091 49.9367 18.0005C50.4832 17.992 50.9636 18.195 51.3782 18.6095C51.7927 19.024 52 19.5003 52 20.0381C52 20.576 51.7927 21.0522 51.3782 21.4668L27.1269 45.718C26.6438 46.201 26.0802 46.4426 25.4362 46.4426C24.7921 46.4426 24.2285 46.201 23.7455 45.718L12.5885 34.5611C12.1911 34.1637 11.995 33.6918 12.0001 33.1453C12.0053 32.5989 12.2151 32.1184 12.6296 31.7039C13.0442 31.2893 13.5204 31.082 14.0582 31.082C14.5961 31.082 15.0723 31.2893 15.4869 31.7039L25.4362 41.6942Z" fill="white"/>
</svg>
