<svg width="20" height="20" viewBox="0 0 20 20" fill="none" xmlns="http://www.w3.org/2000/svg">
<mask id="mask0_5967_20820" style="mask-type:alpha" maskUnits="userSpaceOnUse" x="0" y="0" width="20" height="20">
<rect width="20" height="20" fill="#D9D9D9"/>
</mask>
<g mask="url(#mask0_5967_20820)">
<path d="M3.58331 19.9997C3.15084 19.9997 2.77883 19.8452 2.46729 19.5364C2.15576 19.2275 2 18.8542 2 18.4164C2 17.9839 2.15576 17.6119 2.46729 17.3004C2.77883 16.9888 3.15084 16.8331 3.58331 16.8331H16.4167C16.8492 16.8331 17.2212 16.9875 17.5327 17.2964C17.8442 17.6052 18 17.9786 18 18.4164C18 18.8488 17.8442 19.2208 17.5327 19.5324C17.2212 19.8439 16.8492 19.9997 16.4167 19.9997H3.58331ZM5.5 12.8443H6.42627L12.6555 6.60705L12.1939 6.11666L11.7372 5.68878L5.5 11.918V12.8443ZM4.41669 13.2561V11.7417C4.41669 11.6413 4.43351 11.5526 4.46717 11.4757C4.50083 11.3988 4.54972 11.3283 4.61381 11.2642L12.7997 3.07824C12.9204 2.95752 13.0459 2.87312 13.1761 2.82505C13.3063 2.77697 13.4404 2.75293 13.5783 2.75293C13.7216 2.75293 13.8555 2.77697 13.98 2.82505C14.1044 2.87312 14.2251 2.95444 14.3419 3.06901L15.258 3.98049C15.3734 4.10121 15.4564 4.22514 15.5072 4.35226C15.5579 4.4794 15.5833 4.61619 15.5833 4.76264C15.5833 4.8966 15.5583 5.0301 15.5083 5.16314C15.4583 5.29619 15.377 5.41897 15.2645 5.53147L7.07208 13.7224C7.00799 13.7865 6.93748 13.8367 6.86056 13.8731C6.78363 13.9094 6.69495 13.9276 6.59452 13.9276H5.08819C4.8966 13.9276 4.73679 13.8635 4.60875 13.7355C4.48071 13.6075 4.41669 13.4477 4.41669 13.2561ZM12.6555 6.60705L12.1939 6.11666L11.7372 5.68878L12.6555 6.60705Z" fill="#1C1B1F"/>
</g>
</svg>
