<svg width="12" height="12" viewBox="0 0 12 12" fill="none" xmlns="http://www.w3.org/2000/svg">
<path fill-rule="evenodd" clip-rule="evenodd" d="M0.961426 3.20194C1.09698 3.08312 1.28072 3.01638 1.4723 3.01638C1.66388 3.01638 1.84763 3.08312 1.98318 3.20194L5.99115 6.71854L9.99815 3.20194C10.0643 3.1396 10.1441 3.0896 10.2328 3.05493C10.3215 3.02025 10.4172 3.0016 10.5143 3.0001C10.6114 2.9986 10.7078 3.01427 10.7978 3.04618C10.8878 3.07809 10.9696 3.12558 11.0383 3.18583C11.1069 3.24608 11.161 3.31784 11.1974 3.39684C11.2337 3.47585 11.2516 3.56046 11.2499 3.64565C11.2482 3.73084 11.2269 3.81486 11.1874 3.89268C11.1479 3.97051 11.0909 4.04056 11.0199 4.09864L6.50202 8.06445C6.36647 8.18326 6.18273 8.25 5.99115 8.25C5.79957 8.25 5.61582 8.18326 5.48027 8.06445L0.961426 4.09864C0.826043 3.97968 0.75 3.81842 0.75 3.65029C0.75 3.48216 0.826043 3.3209 0.961426 3.20194Z" fill="#212121"/>
</svg>
