<svg width="18" height="22" viewBox="0 0 18 22" fill="none" xmlns="http://www.w3.org/2000/svg">
<path d="M8.95052 1.75044C5.58236 1.75044 2.84509 4.48771 2.84509 7.85587V10.7966C2.84509 11.4174 2.58053 12.3637 2.26508 12.8928L1.09487 14.8364C0.372397 16.0371 0.871007 17.3702 2.19385 17.8179C6.57958 19.2832 11.3113 19.2832 15.697 17.8179C16.9283 17.4109 17.4676 15.9557 16.796 14.8364L15.6258 12.8928C15.3205 12.3637 15.0559 11.4174 15.0559 10.7966V7.85587C15.0559 4.49788 12.3085 1.75044 8.95052 1.75044Z" stroke="#212121" stroke-width="1.5" strokeMiterlimit="10" strokeLinecap="round"/>
<path d="M10.8329 2.04532C10.5174 1.95374 10.1918 1.88251 9.85599 1.8418C8.87912 1.71969 7.94295 1.79092 7.06784 2.04532C7.36294 1.29231 8.09559 0.763178 8.95035 0.763178C9.80511 0.763178 10.5378 1.29231 10.8329 2.04532Z" stroke="#212121" stroke-width="1.5" strokeMiterlimit="10" strokeLinecap="round" strokeLinejoin="round"/>
<path d="M12.0032 18.1841C12.0032 19.8631 10.6294 21.2368 8.95045 21.2368C8.11604 21.2368 7.34269 20.8908 6.7932 20.3414C6.24371 19.7919 5.89774 19.0185 5.89774 18.1841" stroke="#212121" stroke-width="1.5" strokeMiterlimit="10"/>
</svg>
