<svg width="20" height="20" viewBox="0 0 20 20" fill="none" xmlns="http://www.w3.org/2000/svg">
<path fill-rule="evenodd" clip-rule="evenodd" d="M10.6605 2.08919C10.6023 1.96307 10.5092 1.85626 10.3922 1.7814C10.2752 1.70653 10.1392 1.66675 10.0003 1.66675C9.86143 1.66675 9.72544 1.70653 9.60845 1.7814C9.49145 1.85626 9.39835 1.96307 9.34016 2.08919L7.25351 6.61148L2.30879 7.19822C2.17084 7.2145 2.04043 7.26998 1.93301 7.35807C1.8256 7.44615 1.74567 7.56317 1.70268 7.69527C1.65969 7.82737 1.65545 7.96902 1.69045 8.10345C1.72545 8.23789 1.79824 8.35948 1.90019 8.45384L5.55728 11.8347L4.58666 16.7205C4.5597 16.8567 4.5723 16.9977 4.62298 17.127C4.67365 17.2563 4.76027 17.3683 4.8726 17.4499C4.98494 17.5315 5.11829 17.5792 5.25688 17.5874C5.39548 17.5956 5.53353 17.564 5.65471 17.4962L10.0003 15.0635L14.3459 17.4962C14.4672 17.5643 14.6054 17.5961 14.7442 17.588C14.883 17.5799 15.0166 17.5321 15.1291 17.4504C15.2416 17.3687 15.3283 17.2564 15.3789 17.1269C15.4295 16.9974 15.442 16.8561 15.4147 16.7197L14.4441 11.8354L18.1005 8.45384C18.2024 8.35948 18.2752 8.23789 18.3102 8.10345C18.3452 7.96902 18.341 7.82737 18.298 7.69527C18.255 7.56317 18.1751 7.44615 18.0676 7.35807C17.9602 7.26998 17.8298 7.2145 17.6919 7.19822L12.7464 6.61075L10.6605 2.08919Z" fill="#808080"/>
</svg>
