<svg width="28" height="28" viewBox="0 0 28 28" fill="none" xmlns="http://www.w3.org/2000/svg">
<mask id="mask0_0_1283" style="mask-type:alpha" maskUnits="userSpaceOnUse" x="0" y="0" width="28" height="28">
<rect width="28" height="28" fill="#D9D9D9"/>
</mask>
<g mask="url(#mask0_0_1283)">
<path d="M8.94069 12.6201C7.92136 12.6201 7.05141 12.2598 6.33086 11.5393C5.61029 10.8187 5.25 9.94877 5.25 8.92943C5.25 7.91011 5.61029 7.04017 6.33086 6.3196C7.05141 5.59905 7.92136 5.23877 8.94069 5.23877C9.96003 5.23877 10.83 5.59905 11.5505 6.3196C12.2711 7.04017 12.6314 7.91011 12.6314 8.92943C12.6314 9.94877 12.2711 10.8187 11.5505 11.5393C10.83 12.2598 9.96003 12.6201 8.94069 12.6201ZM8.94002 10.8702C9.47892 10.8702 9.93722 10.6815 10.3149 10.3043C10.6926 9.92708 10.8814 9.46901 10.8814 8.9301C10.8814 8.3912 10.6928 7.93291 10.3155 7.55524C9.93833 7.17756 9.48026 6.98871 8.94136 6.98871C8.40244 6.98871 7.94414 7.17733 7.56647 7.55457C7.18881 7.93181 6.99997 8.38989 6.99997 8.92879C6.99997 9.46769 7.18859 9.92598 7.56583 10.3036C7.94306 10.6813 8.40112 10.8702 8.94002 10.8702ZM19.0705 22.7499C18.0511 22.7499 17.1812 22.3896 16.4606 21.6691C15.7401 20.9485 15.3798 20.0786 15.3798 19.0592C15.3798 18.0399 15.7401 17.1699 16.4606 16.4494C17.1812 15.7288 18.0511 15.3686 19.0705 15.3686C20.0898 15.3686 20.9597 15.7288 21.6803 16.4494C22.4009 17.1699 22.7611 18.0399 22.7611 19.0592C22.7611 20.0786 22.4009 20.9485 21.6803 21.6691C20.9597 22.3896 20.0898 22.7499 19.0705 22.7499ZM19.0698 20.9999C19.6087 20.9999 20.067 20.8113 20.4447 20.4341C20.8224 20.0569 21.0112 19.5988 21.0112 19.0599C21.0112 18.521 20.8226 18.0627 20.4453 17.685C20.0681 17.3073 19.61 17.1185 19.0711 17.1185C18.5322 17.1185 18.0739 17.3071 17.6963 17.6844C17.3186 18.0616 17.1298 18.5196 17.1298 19.0585C17.1298 19.5975 17.3184 20.0558 17.6956 20.4334C18.0728 20.8111 18.5309 20.9999 19.0698 20.9999ZM5.97692 22.023C5.8154 21.8614 5.73463 21.6578 5.73463 21.412C5.73463 21.1662 5.8154 20.9638 5.97692 20.8047L20.8272 5.95446C20.9887 5.79294 21.1899 5.71404 21.4307 5.71777C21.6715 5.72151 21.8727 5.80415 22.0342 5.96569C22.1958 6.12721 22.2765 6.33088 22.2765 6.57667C22.2765 6.82247 22.1958 7.02489 22.0342 7.18392L7.18395 22.0342C7.02241 22.1957 6.82124 22.2746 6.58044 22.2709C6.33964 22.2672 6.13846 22.1845 5.97692 22.023Z" fill="#212121"/>
</g>
</svg>
