<svg width="19" height="19" viewBox="0 0 19 19" fill="none" xmlns="http://www.w3.org/2000/svg">
<path d="M9.50151 18.9997C8.18759 18.9997 6.95258 18.7503 5.79646 18.2517C4.64033 17.753 3.63466 17.0763 2.77946 16.2215C1.92424 15.3666 1.24719 14.3614 0.748314 13.2058C0.249438 12.0502 0 10.8154 0 9.50151C0 8.1876 0.24933 6.95258 0.747989 5.79646C1.24665 4.64033 1.92339 3.63466 2.77821 2.77946C3.63305 1.92424 4.63827 1.24719 5.79389 0.748315C6.94949 0.249439 8.18425 0 9.49816 0C10.8121 0 12.0471 0.249331 13.2032 0.74799C14.3593 1.24665 15.365 1.92339 16.2202 2.77821C17.0754 3.63305 17.7525 4.63827 18.2514 5.79389C18.7502 6.94949 18.9997 8.18425 18.9997 9.49816C18.9997 10.8121 18.7503 12.0471 18.2517 13.2032C17.753 14.3593 17.0763 15.365 16.2215 16.2202C15.3666 17.0754 14.3614 17.7525 13.2058 18.2514C12.0502 18.7502 10.8154 18.9997 9.50151 18.9997Z" fill="white"/>
</svg>
