<svg width="49" height="25" viewBox="0 0 49 25" fill="none" xmlns="http://www.w3.org/2000/svg">
<path d="M9.63093 25.0002C7.74054 25.0002 6.06828 24.6142 4.61412 23.8424C3.17116 23.0594 2.04141 21.9688 1.22484 20.5706C0.408273 19.1612 0 17.5056 0 15.6041V0.352351L3.55707 0.335572V15.4196C3.55707 16.4486 3.73044 17.3546 4.07721 18.1377C4.42397 18.9208 4.88817 19.5751 5.46983 20.1008C6.0515 20.6265 6.70026 21.0236 7.41616 21.2921C8.14322 21.5605 8.88148 21.6948 9.63093 21.6948C10.3916 21.6948 11.1298 21.5605 11.8457 21.2921C12.5728 21.0124 13.2271 20.6097 13.8088 20.084C14.3905 19.5584 14.8491 18.904 15.1847 18.1209C15.5314 17.3379 15.7048 16.4375 15.7048 15.4196V0.335572H19.2619V15.6041C19.2619 17.4946 18.8537 19.1444 18.037 20.5538C17.2205 21.9632 16.0851 23.0594 14.631 23.8424C13.188 24.6142 11.5213 25.0002 9.63093 25.0002ZM36.6735 24.4968V15.5873C36.6735 14.8826 36.6122 14.1612 36.489 13.4229C36.3773 12.6734 36.1534 11.9799 35.8178 11.3424C35.4935 10.7048 35.0292 10.1902 34.4252 9.79872C33.8324 9.40728 33.0551 9.21147 32.093 9.21147C31.4666 9.21147 30.8739 9.31767 30.3144 9.53026C29.7552 9.73161 29.2631 10.0617 28.8379 10.5202C28.4242 10.9788 28.0941 11.5828 27.848 12.3323C27.6131 13.0818 27.4956 13.9934 27.4956 15.0672L25.3144 14.2451C25.3144 12.6008 25.6222 11.1523 26.2372 9.89939C26.8525 8.63547 27.7363 7.65105 28.8883 6.94635C30.0405 6.24165 31.4331 5.8893 33.0661 5.8893C34.319 5.8893 35.3705 6.09064 36.2205 6.49333C37.0707 6.89602 37.7586 7.42735 38.2843 8.0873C38.8212 8.73614 39.2296 9.44637 39.5091 10.2182C39.7888 10.99 39.9789 11.745 40.0796 12.4833C40.1803 13.2216 40.2306 13.8704 40.2306 14.4296V24.4968H36.6735ZM23.9386 24.4968V6.37588H27.0762V11.6108H27.4956V24.4968H23.9386ZM44.9365 3.40606V0H48.4433V3.40606H44.9365ZM44.9365 24.4968V6.37588H48.4433V24.4968H44.9365Z" fill="#212121"/>
</svg>
