<svg width="20" height="20" viewBox="0 0 20 20" fill="none" xmlns="http://www.w3.org/2000/svg">
<path d="M7.75 2.49976C5.785 2.49976 4.1875 4.09726 4.1875 6.06226C4.1875 7.98976 5.695 9.54976 7.66 9.61726C7.72 9.60976 7.78 9.60976 7.825 9.61726C7.84 9.61726 7.8475 9.61726 7.8625 9.61726C7.87 9.61726 7.87 9.61726 7.8775 9.61726C9.7975 9.54976 11.305 7.98976 11.3125 6.06226C11.3125 4.09726 9.715 2.49976 7.75 2.49976Z" fill="white"/>
<path d="M11.5607 11.6122C9.4682 10.2172 6.0557 10.2172 3.9482 11.6122C2.9957 12.2497 2.4707 13.1122 2.4707 14.0347C2.4707 14.9572 2.9957 15.8122 3.9407 16.4422C4.9907 17.1472 6.3707 17.4997 7.7507 17.4997C9.1307 17.4997 10.5107 17.1472 11.5607 16.4422C12.5057 15.8047 13.0307 14.9497 13.0307 14.0197C13.0232 13.0972 12.5057 12.2422 11.5607 11.6122Z" fill="white"/>
<path d="M15.992 6.50507C16.112 7.96007 15.077 9.23507 13.6445 9.40757C13.637 9.40757 13.637 9.40757 13.6295 9.40757H13.607C13.562 9.40757 13.517 9.40757 13.4795 9.42257C12.752 9.46007 12.0845 9.22757 11.582 8.80007C12.3545 8.11007 12.797 7.07507 12.707 5.95007C12.6545 5.34257 12.4445 4.78757 12.1295 4.31507C12.4145 4.17257 12.7445 4.08257 13.082 4.05257C14.552 3.92507 15.8645 5.02007 15.992 6.50507Z" fill="white"/>
<path d="M17.4922 13.4423C17.4322 14.1698 16.9672 14.7998 16.1872 15.2273C15.4372 15.6398 14.4922 15.8348 13.5547 15.8123C14.0947 15.3248 14.4097 14.7173 14.4697 14.0723C14.5447 13.1423 14.1022 12.2498 13.2172 11.5373C12.7147 11.1398 12.1297 10.8248 11.4922 10.5923C13.1497 10.1123 15.2347 10.4348 16.5172 11.4698C17.2072 12.0248 17.5597 12.7223 17.4922 13.4423Z" fill="white"/>
</svg>
