<svg width="20" height="20" viewBox="0 0 20 20" fill="none" xmlns="http://www.w3.org/2000/svg">
<path d="M13.4723 10.9723V13.0556C13.4723 15.8334 12.3612 16.9445 9.58344 16.9445H6.94455C4.16678 16.9445 3.05566 15.8334 3.05566 13.0556V10.4167C3.05566 7.63894 4.16678 6.52783 6.94455 6.52783H9.02789" stroke="#292D32" stroke-width="1.25" strokeLinecap="round" strokeLinejoin="round"/>
<path d="M13.4728 10.9723H11.2505C9.58388 10.9723 9.02832 10.4167 9.02832 8.75005V6.52783L13.4728 10.9723Z" stroke="#292D32" stroke-width="1.25" strokeLinecap="round" strokeLinejoin="round"/>
<path d="M9.72266 3.05518H12.5004" stroke="#292D32" stroke-width="1.25" strokeLinecap="round" strokeLinejoin="round"/>
<path d="M6.52832 5.13851C6.52832 3.98573 7.45888 3.05518 8.61165 3.05518H10.4311" stroke="#292D32" stroke-width="1.25" strokeLinecap="round" strokeLinejoin="round"/>
<path d="M16.9446 7.22217V11.5208C16.9446 12.5972 16.0696 13.4722 14.9932 13.4722" stroke="#292D32" stroke-width="1.25" strokeLinecap="round" strokeLinejoin="round"/>
<path d="M16.945 7.22184H14.8617C13.2992 7.22184 12.7783 6.70101 12.7783 5.13851V3.05518L16.945 7.22184Z" stroke="#292D32" stroke-width="1.25" strokeLinecap="round" strokeLinejoin="round"/>
</svg>
