<svg width="24" height="24" viewBox="0 0 24 24" fill="none" xmlns="http://www.w3.org/2000/svg">
<mask id="mask0_3890_203393" style="mask-type:alpha" maskUnits="userSpaceOnUse" x="0" y="0" width="24" height="24">
<rect width="24" height="24" fill="#D9D9D9"/>
</mask>
<g mask="url(#mask0_3890_203393)">
<path d="M12 20.9326C11.8025 20.9326 11.6134 20.9025 11.4327 20.8423C11.2519 20.782 11.0795 20.6916 10.9154 20.5711L5.22307 16.3019C4.99872 16.1378 4.82212 15.9269 4.69327 15.6692C4.56442 15.4115 4.5 15.1403 4.5 14.8557V3.3077C4.5 2.80257 4.675 2.375 5.025 2.025C5.375 1.675 5.80257 1.5 6.3077 1.5H17.6922C18.1974 1.5 18.625 1.675 18.975 2.025C19.325 2.375 19.5 2.80257 19.5 3.3077V14.8557C19.5 15.1403 19.4355 15.4115 19.3067 15.6692C19.1778 15.9269 19.0012 16.1378 18.7769 16.3019L13.0846 20.5711C12.9205 20.6916 12.748 20.782 12.5673 20.8423C12.3865 20.9025 12.1974 20.9326 12 20.9326ZM10.95 11.5154L9.35765 9.92308C9.20893 9.77436 9.0349 9.70096 8.83555 9.70288C8.6362 9.70479 8.45896 9.77819 8.30382 9.92308C8.14871 10.0782 8.06858 10.2564 8.06345 10.4577C8.05832 10.6589 8.13332 10.8371 8.28845 10.9923L10.3173 13.0211C10.4981 13.2019 10.709 13.2923 10.95 13.2923C11.191 13.2923 11.4019 13.2019 11.5827 13.0211L15.7269 8.87688C15.8756 8.72818 15.949 8.55414 15.9471 8.35478C15.9452 8.15543 15.8718 7.97819 15.7269 7.82308C15.5718 7.66794 15.3936 7.58781 15.1923 7.58268C14.991 7.57756 14.8128 7.65256 14.6577 7.80768L10.95 11.5154Z" fill="#212121"/>
</g>
</svg>
