<svg width="19" height="19" viewBox="0 0 19 19" fill="none" xmlns="http://www.w3.org/2000/svg">
<path d="M8.08075 11.6462L5.75765 9.32308C5.6192 9.18461 5.44517 9.11378 5.23555 9.11058C5.02593 9.10736 4.84869 9.17819 4.70382 9.32308C4.55896 9.46794 4.48653 9.64358 4.48653 9.84998C4.48653 10.0564 4.55896 10.232 4.70382 10.3769L7.44805 13.1211C7.62882 13.3019 7.83972 13.3923 8.08075 13.3923C8.32177 13.3923 8.53266 13.3019 8.71343 13.1211L14.2769 7.55765C14.4153 7.4192 14.4862 7.24517 14.4894 7.03555C14.4926 6.82593 14.4218 6.64869 14.2769 6.50383C14.132 6.35896 13.9564 6.28653 13.75 6.28653C13.5436 6.28653 13.3679 6.35896 13.2231 6.50383L8.08075 11.6462ZM9.50165 19C8.18772 19 6.95268 18.7506 5.79655 18.252C4.6404 17.7533 3.63472 17.0765 2.7795 16.2217C1.92427 15.3669 1.24721 14.3616 0.748325 13.206C0.249442 12.0504 0 10.8156 0 9.50165C0 8.18772 0.249334 6.95268 0.748 5.79655C1.24667 4.6404 1.92342 3.63472 2.77825 2.7795C3.6331 1.92427 4.63834 1.24721 5.79398 0.748326C6.94959 0.249443 8.18437 0 9.4983 0C10.8122 0 12.0473 0.249334 13.2034 0.748001C14.3596 1.24667 15.3652 1.92342 16.2205 2.77825C17.0757 3.6331 17.7527 4.63834 18.2516 5.79398C18.7505 6.94959 19 8.18437 19 9.4983C19 10.8122 18.7506 12.0473 18.252 13.2034C17.7533 14.3596 17.0765 15.3652 16.2217 16.2205C15.3669 17.0757 14.3616 17.7527 13.206 18.2516C12.0504 18.7505 10.8156 19 9.50165 19ZM9.49998 17.5C11.7333 17.5 13.625 16.725 15.175 15.175C16.725 13.625 17.5 11.7333 17.5 9.49998C17.5 7.26664 16.725 5.37498 15.175 3.82498C13.625 2.27498 11.7333 1.49998 9.49998 1.49998C7.26664 1.49998 5.37498 2.27498 3.82498 3.82498C2.27498 5.37498 1.49998 7.26664 1.49998 9.49998C1.49998 11.7333 2.27498 13.625 3.82498 15.175C5.37498 16.725 7.26664 17.5 9.49998 17.5Z" fill="#212121"/>
</svg>
