<svg width="16" height="16" viewBox="0 0 16 16" fill="none" xmlns="http://www.w3.org/2000/svg">
<path d="M2.95272 12.7152C2.2299 11.9923 1.86849 11.1281 1.86849 10.1224C1.86849 9.11676 2.2299 8.25252 2.95272 7.5297L7.90247 2.57995C8.42101 2.06141 9.04955 1.80214 9.78809 1.80214C10.5266 1.80214 11.1552 2.06141 11.6737 2.57995C12.1922 3.0985 12.4515 3.72704 12.4515 4.46557C12.4515 5.20411 12.1922 5.83265 11.6737 6.35119L7.19536 10.8295C6.86538 11.1595 6.47254 11.3245 6.01685 11.3245C5.56116 11.3245 5.16832 11.1595 4.83834 10.8295C4.50836 10.4995 4.34336 10.1067 4.34336 9.65102C4.34336 9.19533 4.50836 8.80249 4.83834 8.47251L9.31668 3.99417L10.0238 4.70127L5.54545 9.17962C5.41188 9.31318 5.3451 9.47032 5.3451 9.65102C5.3451 9.83173 5.41188 9.98886 5.54545 10.1224C5.67901 10.256 5.83615 10.3228 6.01685 10.3228C6.19756 10.3228 6.35469 10.256 6.48826 10.1224L10.9666 5.64408C11.2966 5.3141 11.4616 4.92126 11.4616 4.46557C11.4616 4.00988 11.2966 3.61704 10.9666 3.28706C10.6366 2.95708 10.2438 2.79209 9.78809 2.79209C9.33239 2.79209 8.93956 2.95708 8.60957 3.28706L3.65983 8.23681C3.14128 8.75535 2.88201 9.38389 2.88201 10.1224C2.88201 10.861 3.14128 11.4895 3.65983 12.008C4.17837 12.5266 4.80691 12.7859 5.54545 12.7859C6.28398 12.7859 6.91252 12.5266 7.43106 12.008L12.3808 7.0583L13.0879 7.7654L8.13817 12.7152C7.41535 13.438 6.55111 13.7994 5.54545 13.7994C4.53978 13.7994 3.67554 13.438 2.95272 12.7152Z" fill="#212121"/>
</svg>
