<svg width="32" height="32" viewBox="0 0 32 32" fill="none" xmlns="http://www.w3.org/2000/svg">
<mask id="mask0_0_26" style="mask-type:alpha" maskUnits="userSpaceOnUse" x="0" y="0" width="32" height="32">
<rect width="32" height="32" fill="#D9D9D9"/>
</mask>
<g mask="url(#mask0_0_26)">
<path d="M15.9987 22.8205C17.5286 22.8205 18.8256 22.2885 19.8897 21.2244C20.9538 20.1603 21.4858 18.8633 21.4858 17.3334C21.4858 15.8035 20.9538 14.5065 19.8897 13.4424C18.8256 12.3783 17.5286 11.8462 15.9987 11.8462C14.4688 11.8462 13.1718 12.3783 12.1077 13.4424C11.0436 14.5065 10.5115 15.8035 10.5115 17.3334C10.5115 18.8633 11.0436 20.1603 12.1077 21.2244C13.1718 22.2885 14.4688 22.8205 15.9987 22.8205ZM15.9987 20.8206C15.014 20.8206 14.1867 20.4855 13.5166 19.8155C12.8465 19.1454 12.5115 18.318 12.5115 17.3334C12.5115 16.3488 12.8465 15.5214 13.5166 14.8513C14.1867 14.1812 15.014 13.8462 15.9987 13.8462C16.9833 13.8462 17.8106 14.1812 18.4807 14.8513C19.1508 15.5214 19.4859 16.3488 19.4859 17.3334C19.4859 18.318 19.1508 19.1454 18.4807 19.8155C17.8106 20.4855 16.9833 20.8206 15.9987 20.8206ZM5.7423 27.3334C5.06879 27.3334 4.4987 27.1 4.03203 26.6334C3.56536 26.1667 3.33203 25.5966 3.33203 24.9231V9.74368C3.33203 9.07017 3.56536 8.50008 4.03203 8.03342C4.4987 7.56675 5.06879 7.33342 5.7423 7.33342H9.81406L11.5577 5.44368C11.7765 5.20266 12.041 5.01292 12.3513 4.87445C12.6615 4.73598 12.9884 4.66675 13.332 4.66675H18.6653C19.0089 4.66675 19.3358 4.73598 19.6461 4.87445C19.9563 5.01292 20.2209 5.20266 20.4397 5.44368L22.1833 7.33342H26.255C26.9285 7.33342 27.4986 7.56675 27.9653 8.03342C28.432 8.50008 28.6653 9.07017 28.6653 9.74368V24.9231C28.6653 25.5966 28.432 26.1667 27.9653 26.6334C27.4986 27.1 26.9285 27.3334 26.255 27.3334H5.7423ZM5.7423 25.3334H26.255C26.3747 25.3334 26.473 25.2949 26.5499 25.218C26.6269 25.1411 26.6653 25.0427 26.6653 24.9231V9.74368C26.6653 9.62402 26.6269 9.52572 26.5499 9.44878C26.473 9.37185 26.3747 9.33338 26.255 9.33338H21.291L18.8448 6.66672H13.1525L10.7064 9.33338H5.7423C5.62263 9.33338 5.52433 9.37185 5.4474 9.44878C5.37046 9.52572 5.332 9.62402 5.332 9.74368V24.9231C5.332 25.0427 5.37046 25.1411 5.4474 25.218C5.52433 25.2949 5.62263 25.3334 5.7423 25.3334Z" fill="#212121"/>
</g>
</svg>
