<svg width="24" height="24" viewBox="0 0 24 24" fill="none" xmlns="http://www.w3.org/2000/svg">
<mask id="mask0_3890_200139" style="mask-type:alpha" maskUnits="userSpaceOnUse" x="0" y="0" width="24" height="24">
<rect width="24" height="24" fill="#D9D9D9"/>
</mask>
<g mask="url(#mask0_3890_200139)">
<path d="M11.3415 12.6577V15.5086C11.3415 15.695 11.4045 15.8513 11.5307 15.9773C11.6568 16.1034 11.8132 16.1665 11.9996 16.1665C12.1861 16.1665 12.3423 16.1034 12.4683 15.9773C12.5942 15.8513 12.6572 15.695 12.6572 15.5086V12.6577H15.5081C15.6945 12.6577 15.8508 12.5946 15.9769 12.4685C16.103 12.3423 16.166 12.186 16.166 11.9996C16.166 11.8131 16.103 11.6568 15.9769 11.5309C15.8508 11.4049 15.6945 11.342 15.5081 11.342H12.6572V8.49106C12.6572 8.30465 12.5942 8.1484 12.468 8.02231C12.3419 7.89622 12.1855 7.83318 11.9991 7.83318C11.8126 7.83318 11.6564 7.89622 11.5304 8.02231C11.4044 8.1484 11.3415 8.30465 11.3415 8.49106V11.342H8.49057C8.30416 11.342 8.14792 11.405 8.02184 11.5312C7.89574 11.6573 7.83269 11.8136 7.83269 12.0001C7.83269 12.1866 7.89574 12.3428 8.02184 12.4688C8.14792 12.5947 8.30416 12.6577 8.49057 12.6577H11.3415ZM12.0008 20.3332C10.8482 20.3332 9.76488 20.1145 8.75072 19.677C7.73655 19.2396 6.85437 18.646 6.10418 17.8961C5.35397 17.1462 4.76006 16.2644 4.32244 15.2507C3.88482 14.237 3.66602 13.1539 3.66602 12.0013C3.66602 10.8487 3.88473 9.76536 4.32216 8.75121C4.75959 7.73704 5.35323 6.85486 6.10308 6.10467C6.85295 5.35446 7.73475 4.76055 8.74846 4.32293C9.76216 3.88531 10.8453 3.6665 11.9979 3.6665C13.1505 3.6665 14.2338 3.88522 15.248 4.32265C16.2621 4.76007 17.1443 5.35372 17.8945 6.10357C18.6447 6.85344 19.2386 7.73524 19.6763 8.74895C20.1139 9.76265 20.3327 10.8458 20.3327 11.9984C20.3327 13.1509 20.114 14.2343 19.6765 15.2485C19.2391 16.2626 18.6455 17.1448 17.8956 17.895C17.1457 18.6452 16.264 19.2391 15.2502 19.6767C14.2365 20.1144 13.1534 20.3332 12.0008 20.3332Z" fill="black"/>
</g>
</svg>
