<svg width="20" height="20" viewBox="0 0 20 20" fill="none" xmlns="http://www.w3.org/2000/svg">
<path d="M15.339 12.2051L15.579 12.6926C15.699 12.9326 16.0065 13.1576 16.2615 13.2026L16.584 13.2551C17.5665 13.4201 17.7915 14.1401 17.094 14.8451L16.794 15.1451C16.5915 15.3476 16.4865 15.7376 16.5465 16.0226L16.584 16.2026C16.854 17.3876 16.224 17.8451 15.1965 17.2226L14.979 17.0876C14.7165 16.9301 14.2815 16.9301 14.019 17.0876L13.8015 17.2226C12.7665 17.8451 12.144 17.3876 12.414 16.2026L12.4515 16.0226C12.5115 15.7451 12.4065 15.3476 12.204 15.1451L11.904 14.8451C11.2065 14.1326 11.4315 13.4201 12.414 13.2551L12.7365 13.2026C12.999 13.1576 13.299 12.9326 13.419 12.6926L13.659 12.2051C14.124 11.2676 14.874 11.2676 15.339 12.2051Z" fill="white"/>
<path d="M13.1415 2.5H6.85652C4.12652 2.5 2.49902 4.1275 2.49902 6.8575V13.1425C2.49902 15.8725 4.12652 17.5 6.85652 17.5H10.8165C11.079 17.5 11.2665 17.23 11.2365 16.9675C11.2065 16.6825 11.2215 16.345 11.3115 15.955C11.3265 15.9025 11.3115 15.8425 11.2665 15.7975L11.1015 15.6325C10.464 14.9875 10.2315 14.2075 10.4565 13.495C10.689 12.79 11.334 12.295 12.2265 12.145L12.4515 12.1075L12.654 11.7025C13.0665 10.8625 13.7415 10.375 14.499 10.375C15.2565 10.375 15.9315 10.8625 16.344 11.7025L16.4565 11.935C16.509 12.0475 16.614 12.1225 16.734 12.145C16.8015 12.16 16.869 12.175 16.9365 12.19C17.199 12.2575 17.499 12.0475 17.499 11.77V6.8575C17.499 4.1275 15.8715 2.5 13.1415 2.5ZM13.194 7.72L11.4615 9.955C11.244 10.2325 10.9365 10.4125 10.584 10.45C10.239 10.495 9.88652 10.3975 9.61652 10.18L8.24402 9.115C8.19152 9.07 8.13152 9.07 8.10152 9.0775C8.07152 9.0775 8.01902 9.0925 7.97402 9.1525L6.18902 11.47C6.07652 11.6125 5.91152 11.6875 5.73902 11.6875C5.61902 11.6875 5.49902 11.65 5.39402 11.5675C5.14652 11.38 5.10152 11.0275 5.28902 10.78L7.07402 8.4625C7.29152 8.185 7.59902 8.005 7.95152 7.96C8.30402 7.915 8.64902 8.0125 8.92652 8.23L10.299 9.31C10.3515 9.355 10.404 9.3475 10.4415 9.3475C10.4715 9.3475 10.524 9.3325 10.569 9.2725L12.3015 7.0375C12.489 6.79 12.8415 6.745 13.089 6.94C13.344 7.1275 13.3815 7.48 13.194 7.72Z" fill="white"/>
</svg>
