<svg width="24" height="24" viewBox="0 0 24 24" fill="none" xmlns="http://www.w3.org/2000/svg">
<path fill-rule="evenodd" clip-rule="evenodd" d="M5.2819 8.26925C5.46264 8.11083 5.70763 8.02185 5.96307 8.02185C6.21851 8.02185 6.4635 8.11083 6.64424 8.26925L11.9882 12.9581L17.3309 8.26925C17.4191 8.18613 17.5255 8.11947 17.6438 8.07323C17.762 8.027 17.8897 8.00214 18.0191 8.00013C18.1485 7.99813 18.2771 8.01902 18.3971 8.06157C18.5171 8.10412 18.6261 8.16744 18.7177 8.24777C18.8092 8.3281 18.8814 8.42379 18.9298 8.52913C18.9783 8.63446 19.0021 8.74729 18.9998 8.86087C18.9976 8.97446 18.9692 9.08648 18.9166 9.19025C18.8639 9.29402 18.7879 9.38741 18.6932 9.46485L12.6694 14.7526C12.4886 14.911 12.2436 15 11.9882 15C11.7328 15 11.4878 14.911 11.307 14.7526L5.2819 9.46485C5.10139 9.30624 5 9.09123 5 8.86705C5 8.64287 5.10139 8.42786 5.2819 8.26925Z" fill="#212121"/>
</svg>
