<svg width="32" height="32" viewBox="0 0 32 32" fill="none" xmlns="http://www.w3.org/2000/svg">
<mask id="mask0_0_141" style="mask-type:alpha" maskUnits="userSpaceOnUse" x="0" y="0" width="32" height="32">
<rect width="32" height="32" fill="#D9D9D9"/>
</mask>
<g mask="url(#mask0_0_141)">
<path d="M7.07726 27.3331C6.40375 27.3331 5.83366 27.0998 5.36699 26.6331C4.90033 26.1664 4.66699 25.5963 4.66699 24.9228V7.07677C4.66699 6.40326 4.90033 5.83317 5.36699 5.3665C5.83366 4.89984 6.40375 4.6665 7.07726 4.6665H24.9233C25.5968 4.6665 26.1669 4.89984 26.6336 5.3665C27.1003 5.83317 27.3336 6.40326 27.3336 7.07677V24.9228C27.3336 25.5963 27.1003 26.1664 26.6336 26.6331C26.1669 27.0998 25.5968 27.3331 24.9233 27.3331H7.07726ZM8.00029 17.2409L12.4901 12.7511C12.7311 12.5101 13.0123 12.3896 13.3336 12.3896C13.655 12.3896 13.9362 12.5101 14.1772 12.7511L18.667 17.2409L23.1567 12.7511C23.3978 12.5101 23.6789 12.3896 24.0003 12.3896C24.3217 12.3896 24.6028 12.5101 24.8439 12.7511L25.3336 13.2409V7.07677C25.3336 6.95711 25.2952 6.8588 25.2182 6.78187C25.1413 6.70494 25.043 6.66647 24.9233 6.66647H7.07726C6.95759 6.66647 6.85929 6.70494 6.78236 6.78187C6.70543 6.8588 6.66696 6.95711 6.66696 7.07677V15.9075L8.00029 17.2409ZM7.07726 25.3331H24.9233C25.043 25.3331 25.1413 25.2947 25.2182 25.2177C25.2952 25.1408 25.3336 25.0425 25.3336 24.9228V16.0716L24.0003 14.7382L19.5105 19.228C19.2695 19.469 18.9883 19.5895 18.667 19.5895C18.3456 19.5895 18.0644 19.469 17.8234 19.228L13.3336 14.7382L8.84386 19.228C8.60284 19.469 8.32165 19.5895 8.00029 19.5895C7.67894 19.5895 7.39775 19.469 7.15673 19.228L6.66696 18.7382V24.9228C6.66696 25.0425 6.70543 25.1408 6.78236 25.2177C6.85929 25.2947 6.95759 25.3331 7.07726 25.3331ZM6.66696 25.3331V16.0716V18.0715V6.66647V25.3331Z" fill="#1C1B1F"/>
</g>
</svg>
