<svg width="20" height="20" viewBox="0 0 20 20" fill="none" xmlns="http://www.w3.org/2000/svg">
<mask id="mask0_3890_204690" style="mask-type:alpha" maskUnits="userSpaceOnUse" x="0" y="0" width="24" height="24">
<rect width="24" height="24" fill="#D9D9D9"/>
</mask>
<g mask="url(#mask0_3890_204690)">
<path d="M9.3737 13.9582H10.6237V9.16657H9.3737V13.9582ZM9.99868 7.74029C10.1894 7.74029 10.3492 7.67579 10.4782 7.54679C10.6072 7.41779 10.6717 7.25794 10.6717 7.06723C10.6717 6.87654 10.6072 6.71668 10.4782 6.58767C10.3492 6.45867 10.1894 6.39417 9.99868 6.39417C9.80797 6.39417 9.64811 6.45867 9.51911 6.58767C9.39011 6.71668 9.32561 6.87654 9.32561 7.06723C9.32561 7.25794 9.39011 7.41779 9.51911 7.54679C9.64811 7.67579 9.80797 7.74029 9.99868 7.74029ZM10.0001 17.9165C8.90513 17.9165 7.87593 17.7088 6.91249 17.2932C5.94903 16.8777 5.11096 16.3137 4.39828 15.6013C3.68559 14.889 3.12137 14.0513 2.70564 13.0882C2.2899 12.1252 2.08203 11.0962 2.08203 10.0013C2.08203 8.90635 2.28981 7.87716 2.70536 6.91371C3.12092 5.95025 3.68488 5.11218 4.39724 4.3995C5.10961 3.68681 5.94732 3.12259 6.91034 2.70686C7.87336 2.29112 8.90234 2.08325 9.99728 2.08325C11.0922 2.08325 12.1214 2.29103 13.0849 2.70659C14.0483 3.12214 14.8864 3.6861 15.5991 4.39846C16.3118 5.11084 16.876 5.94854 17.2917 6.91157C17.7075 7.87458 17.9153 8.90356 17.9153 9.9985C17.9153 11.0934 17.7075 12.1226 17.292 13.0861C16.8764 14.0495 16.3125 14.8876 15.6001 15.6003C14.8877 16.313 14.05 16.8772 13.087 17.2929C12.124 17.7087 11.095 17.9165 10.0001 17.9165ZM9.99868 16.6666C11.8598 16.6666 13.4362 16.0207 14.7278 14.7291C16.0195 13.4374 16.6653 11.861 16.6653 9.9999C16.6653 8.13879 16.0195 6.5624 14.7278 5.27073C13.4362 3.97907 11.8598 3.33323 9.99868 3.33323C8.13757 3.33323 6.56118 3.97907 5.26951 5.27073C3.97784 6.5624 3.33201 8.13879 3.33201 9.9999C3.33201 11.861 3.97784 13.4374 5.26951 14.7291C6.56118 16.0207 8.13757 16.6666 9.99868 16.6666Z" fill="#1C1B1F"/>
</g>
</svg>
