<svg width="15" height="11" viewBox="0 0 15 11" fill="none" xmlns="http://www.w3.org/2000/svg">
<mask id="mask0_0_315" style="mask-type:alpha" maskUnits="userSpaceOnUse" x="-5" y="-7" width="25" height="25">
<rect x="-4.5319" y="-6.66281" width="24.0501" height="24.0501" fill="#D9D9D9"/>
</mask>
<g mask="url(#mask0_0_315)">
<path d="M5.03841 8.88496L13.6949 0.228474C13.8439 0.0794465 14.0209 0.00332059 14.2258 9.72122e-05C14.4307 -0.00310947 14.6109 0.0730165 14.7664 0.228474C14.9218 0.383914 14.9995 0.562486 14.9995 0.764189C14.9995 0.965876 14.9218 1.14445 14.7664 1.29991L5.6724 10.3938C5.49126 10.575 5.27993 10.6655 5.03841 10.6655C4.79689 10.6655 4.58556 10.575 4.40441 10.3938L0.220696 6.21014C0.0716692 6.06111 -0.00188401 5.88414 3.6658e-05 5.67923C0.00197403 5.47432 0.0806631 5.29414 0.236104 5.1387C0.391561 4.98325 0.570133 4.90552 0.77182 4.90552C0.973523 4.90552 1.1521 4.98325 1.30754 5.1387L5.03841 8.88496Z" fill="#1C1B1F"/>
</g>
</svg>
