<svg width="16" height="16" viewBox="0 0 16 16" fill="none" xmlns="http://www.w3.org/2000/svg">
<mask id="mask0_3890_205376" style="mask-type:alpha" maskUnits="userSpaceOnUse" x="0" y="0" width="24" height="24">
<rect width="24" height="24" fill="#D9D9D9"/>
</mask>
<g mask="url(#mask0_3890_205376)">
<path d="M7.03376 12.1331L10.4838 7.9998H7.81709L8.30043 4.21646L5.21709 8.66646H7.53376L7.03376 12.1331ZM6.38508 9.66645H4.35686C4.13294 9.66645 3.96884 9.5673 3.86456 9.36901C3.76029 9.17072 3.77311 8.9797 3.90302 8.79595L8.27093 2.49471C8.36067 2.36908 8.4752 2.28319 8.61451 2.23703C8.75383 2.19087 8.8987 2.19472 9.04912 2.24858C9.19955 2.30242 9.30959 2.39451 9.37924 2.52485C9.4489 2.65519 9.47475 2.79557 9.45681 2.946L8.95553 6.99981H11.4427C11.6803 6.99981 11.8478 7.10622 11.9453 7.31905C12.0427 7.53187 12.0141 7.73016 11.8594 7.91391L7.02992 13.6985C6.93335 13.813 6.8154 13.8871 6.67607 13.9209C6.53676 13.9547 6.40087 13.9412 6.26839 13.8805C6.13591 13.8198 6.03314 13.7271 5.96008 13.6023C5.887 13.4775 5.85943 13.3399 5.87738 13.1895L6.38508 9.66645Z" fill="white"/>
</g>
</svg>
