<svg width="24" height="24" viewBox="0 0 24 24" fill="none" xmlns="http://www.w3.org/2000/svg">
<mask id="mask0_5208_66148" style="mask-type:alpha" maskUnits="userSpaceOnUse" x="2" y="2" width="20" height="20">
<rect x="2" y="2" width="20" height="20" fill="#D9D9D9"/>
</mask>
<g mask="url(#mask0_5208_66148)">
<path d="M8.18516 19.5C7.76234 19.5 7.40038 19.3494 7.09929 19.0483C6.79818 18.7472 6.64763 18.3853 6.64763 17.9625V6.7805H6.12163C5.9455 6.7805 5.79786 6.72138 5.67872 6.60314C5.55957 6.48491 5.5 6.33839 5.5 6.1636C5.5 5.98881 5.55957 5.84073 5.67872 5.71935C5.79786 5.59796 5.9455 5.53726 6.12163 5.53726H9.6123V5.25036C9.6123 5.04327 9.68559 4.86644 9.83217 4.71987C9.97875 4.57329 10.1556 4.5 10.3627 4.5H13.4525C13.6595 4.5 13.8364 4.57329 13.9829 4.71987C14.1295 4.86644 14.2028 5.04327 14.2028 5.25036V5.53726H17.6935C17.8696 5.53726 18.0172 5.59639 18.1364 5.71464C18.2555 5.83288 18.3151 5.97939 18.3151 6.15418C18.3151 6.32897 18.2555 6.47706 18.1364 6.59843C18.0172 6.71981 17.8696 6.7805 17.6935 6.7805H17.1675V17.9521C17.1675 18.3866 17.0169 18.7532 16.7158 19.0519C16.4147 19.3506 16.0528 19.5 15.63 19.5H8.18516ZM15.9242 6.7805H7.89086V17.9625C7.89086 18.0483 7.91845 18.1188 7.97364 18.174C8.02882 18.2292 8.09933 18.2568 8.18516 18.2568H15.63C15.7158 18.2568 15.7863 18.2292 15.8415 18.174C15.8967 18.1188 15.9242 18.0483 15.9242 17.9625V6.7805ZM10.6154 16.5353C10.7902 16.5353 10.9383 16.4758 11.0597 16.3566C11.1811 16.2375 11.2418 16.0898 11.2418 15.9137V9.12355C11.2418 8.94744 11.1827 8.7998 11.0644 8.68066C10.9462 8.56151 10.7997 8.50194 10.6249 8.50194C10.4501 8.50194 10.302 8.56151 10.1806 8.68066C10.0592 8.7998 9.99855 8.94744 9.99855 9.12355V15.9137C9.99855 16.0898 10.0577 16.2375 10.1759 16.3566C10.2941 16.4758 10.4407 16.5353 10.6154 16.5353ZM13.1902 16.5353C13.365 16.5353 13.5131 16.4758 13.6345 16.3566C13.7559 16.2375 13.8166 16.0898 13.8166 15.9137V9.12355C13.8166 8.94744 13.7574 8.7998 13.6392 8.68066C13.521 8.56151 13.3745 8.50194 13.1997 8.50194C13.0249 8.50194 12.8768 8.56151 12.7554 8.68066C12.634 8.7998 12.5733 8.94744 12.5733 9.12355V15.9137C12.5733 16.0898 12.6325 16.2375 12.7507 16.3566C12.8689 16.4758 13.0155 16.5353 13.1902 16.5353Z" fill="#1C1B1F"/>
</g>
</svg>
