<svg width="20" height="20" viewBox="0 0 20 20" fill="none" xmlns="http://www.w3.org/2000/svg">
<mask id="mask0_0_260" style="mask-type:alpha" maskUnits="userSpaceOnUse" x="0" y="0" width="20" height="20">
<rect width="20" height="20" fill="#D9D9D9"/>
</mask>
<g mask="url(#mask0_0_260)">
<path d="M8.77532 14.0831C8.62185 14.0831 8.4932 14.0316 8.38939 13.9286C8.28558 13.8255 8.23368 13.6979 8.23368 13.5456C8.23368 13.3933 8.28558 13.2642 8.38939 13.1585C8.4932 13.0527 8.62185 12.9998 8.77532 12.9998H11.2192C11.3727 12.9998 11.5013 13.0513 11.6052 13.1544C11.709 13.2574 11.7609 13.3851 11.7609 13.5374C11.7609 13.6897 11.709 13.8187 11.6052 13.9245C11.5013 14.0302 11.3727 14.0831 11.2192 14.0831H8.77532ZM5.87949 10.5415C5.72603 10.5415 5.59739 10.4899 5.49357 10.3869C5.38975 10.2839 5.33784 10.1562 5.33784 10.0039C5.33784 9.85162 5.38975 9.72258 5.49357 9.61682C5.59739 9.51105 5.72603 9.45817 5.87949 9.45817H14.1151C14.2685 9.45817 14.3972 9.50969 14.501 9.61271C14.6048 9.71574 14.6567 9.84341 14.6567 9.99571C14.6567 10.148 14.6048 10.2771 14.501 10.3828C14.3972 10.4886 14.2685 10.5415 14.1151 10.5415H5.87949ZM3.95964 6.99982C3.80616 6.99982 3.67752 6.9483 3.5737 6.84527C3.46988 6.74225 3.41797 6.61458 3.41797 6.46228C3.41797 6.30997 3.46988 6.18094 3.5737 6.07517C3.67752 5.96939 3.80616 5.9165 3.95964 5.9165H16.0429C16.1964 5.9165 16.325 5.96802 16.4289 6.07107C16.5327 6.17409 16.5846 6.30176 16.5846 6.45407C16.5846 6.60637 16.5327 6.73541 16.4289 6.84117C16.325 6.94694 16.1964 6.99982 16.0429 6.99982H3.95964Z" fill="#212121"/>
</g>
</svg>
