<svg width="18" height="18" viewBox="0 0 18 18" fill="none" xmlns="http://www.w3.org/2000/svg">
<path fill-rule="evenodd" clip-rule="evenodd" d="M7.95758 1.38345C6.21414 1.38345 4.5421 2.07606 3.3093 3.30893C2.07651 4.5418 1.38393 6.21393 1.38393 7.95747C1.38393 9.701 2.07651 11.3731 3.3093 12.606C4.5421 13.8389 6.21414 14.5315 7.95758 14.5315C9.70102 14.5315 11.373 13.8389 12.6058 12.606C13.8386 11.3731 14.5312 9.701 14.5312 7.95747C14.5312 6.21393 13.8386 4.5418 12.6058 3.30893C11.373 2.07606 9.70102 1.38345 7.95758 1.38345ZM0 7.95747C8.99644e-05 6.67808 0.308621 5.41758 0.89944 4.2828C1.49026 3.14803 2.34595 2.17244 3.39398 1.43872C4.442 0.705005 5.65147 0.234798 6.91986 0.0679583C8.18824 -0.0988817 9.47816 0.0425631 10.6803 0.480303C11.8824 0.918043 12.9612 1.63917 13.8253 2.58257C14.6895 3.52596 15.3135 4.66381 15.6444 5.89965C15.9753 7.1355 16.0033 8.43291 15.7262 9.68191C15.4491 10.9309 14.8749 12.0947 14.0524 13.0746L17.789 16.8105C17.855 16.8743 17.9077 16.9507 17.944 17.0352C17.9802 17.1196 17.9992 17.2104 18 17.3023C18.0007 17.3942 17.9832 17.4853 17.9483 17.5703C17.9135 17.6554 17.8621 17.7326 17.7971 17.7975C17.7321 17.8625 17.6548 17.9138 17.5698 17.9486C17.4847 17.9833 17.3936 18.0008 17.3017 18C17.2098 17.9991 17.119 17.98 17.0346 17.9437C16.9502 17.9074 16.8739 17.8546 16.8101 17.7885L13.0735 14.0526C11.9132 15.0266 10.499 15.6491 8.99718 15.847C7.49533 16.0449 5.96819 15.81 4.59522 15.1699C3.22225 14.5298 2.06051 13.5111 1.2465 12.2334C0.432498 10.9558 5.80103e-05 9.47239 0 7.95747Z" fill="#212121"/>
</svg>
