<svg width="16" height="16" viewBox="0 0 16 16" fill="none" xmlns="http://www.w3.org/2000/svg">
<path d="M6.16596 1.88892C4.56485 1.88892 3.26318 3.19058 3.26318 4.79169C3.26318 6.36225 4.49152 7.63336 6.09263 7.68836C6.14152 7.68225 6.19041 7.68225 6.22707 7.68836C6.2393 7.68836 6.24541 7.68836 6.25763 7.68836C6.26374 7.68836 6.26374 7.68836 6.26985 7.68836C7.83429 7.63336 9.06263 6.36225 9.06874 4.79169C9.06874 3.19058 7.76707 1.88892 6.16596 1.88892Z" fill="#212121"/>
<path d="M9.2719 9.31368C7.5669 8.17701 4.78635 8.17701 3.06912 9.31368C2.29301 9.83313 1.86523 10.5359 1.86523 11.2876C1.86523 12.0392 2.29301 12.7359 3.06301 13.2492C3.91857 13.8237 5.04301 14.1109 6.16746 14.1109C7.2919 14.1109 8.41635 13.8237 9.2719 13.2492C10.0419 12.7298 10.4697 12.0331 10.4697 11.2753C10.4636 10.5237 10.0419 9.82702 9.2719 9.31368Z" fill="#212121"/>
<path d="M12.8824 5.15231C12.9802 6.33787 12.1368 7.37675 10.9696 7.51731C10.9635 7.51731 10.9635 7.51731 10.9574 7.51731H10.9391C10.9024 7.51731 10.8657 7.51731 10.8352 7.52953C10.2424 7.56009 9.69851 7.37064 9.28906 7.02231C9.91851 6.46009 10.2791 5.61675 10.2057 4.70009C10.163 4.20509 9.99184 3.75287 9.73517 3.36787C9.9674 3.25175 10.2363 3.17842 10.5113 3.15398C11.7091 3.05009 12.7785 3.94231 12.8824 5.15231Z" fill="#212121"/>
<path d="M14.1047 10.8049C14.0558 11.3976 13.6769 11.911 13.0414 12.2593C12.4303 12.5954 11.6603 12.7543 10.8964 12.736C11.3364 12.3388 11.593 11.8438 11.6419 11.3182C11.703 10.5604 11.3425 9.8332 10.6214 9.25264C10.2119 8.92875 9.73526 8.67208 9.21582 8.48264C10.5664 8.09153 12.2653 8.35431 13.3103 9.19764C13.8725 9.64986 14.1597 10.2182 14.1047 10.8049Z" fill="#212121"/>
</svg>
