<svg width="20" height="20" viewBox="0 0 20 20" fill="none" xmlns="http://www.w3.org/2000/svg">
<g opacity="0.2">
<mask id="mask0_0_579" style="mask-type:alpha" maskUnits="userSpaceOnUse" x="0" y="0" width="20" height="20">
<rect width="20" height="20" fill="#D9D9D9"/>
</mask>
<g mask="url(#mask0_0_579)">
<path d="M7.9575 12.929L15.1562 5.73028C15.2802 5.60635 15.4273 5.54304 15.5977 5.54036C15.7681 5.5377 15.918 5.601 16.0472 5.73028C16.1765 5.85955 16.2411 6.00804 16.2411 6.17578C16.2411 6.3435 16.1765 6.492 16.0472 6.62128L8.48473 14.1838C8.3341 14.3344 8.15835 14.4097 7.9575 14.4097C7.75666 14.4097 7.58091 14.3344 7.43028 14.1838L3.95111 10.7046C3.82718 10.5807 3.76601 10.4335 3.76761 10.2631C3.76922 10.0927 3.83466 9.94288 3.96392 9.81361C4.0932 9.68434 4.2417 9.6197 4.40942 9.6197C4.57716 9.6197 4.72566 9.68434 4.85492 9.81361L7.9575 12.929Z" fill="#212121"/>
</g>
</g>
</svg>
