<svg width="20" height="20" viewBox="0 0 20 20" fill="none" xmlns="http://www.w3.org/2000/svg">
<path d="M7.0006 17.5H13.0006C16.0156 17.5 16.5556 16.2925 16.7131 14.8225L17.2756 8.8225C17.4781 6.9925 16.9531 5.5 13.7506 5.5H6.2506C3.0481 5.5 2.5231 6.9925 2.7256 8.8225L3.2881 14.8225C3.4456 16.2925 3.9856 17.5 7.0006 17.5Z" stroke="white" strokeMiterlimit="10" strokeLinecap="round" strokeLinejoin="round"/>
<path d="M7 5.5V4.9C7 3.5725 7 2.5 9.4 2.5H10.6C13 2.5 13 3.5725 13 4.9V5.5" stroke="white" strokeMiterlimit="10" strokeLinecap="round" strokeLinejoin="round"/>
<path d="M11.5 10.75V11.5C11.5 11.5075 11.5 11.5075 11.5 11.515C11.5 12.3325 11.4925 13 10 13C8.515 13 8.5 12.34 8.5 11.5225V10.75C8.5 10 8.5 10 9.25 10H10.75C11.5 10 11.5 10 11.5 10.75Z" stroke="white" strokeMiterlimit="10" strokeLinecap="round" strokeLinejoin="round"/>
<path d="M17.2375 9.25C15.505 10.51 13.525 11.26 11.5 11.515" stroke="white" strokeMiterlimit="10" strokeLinecap="round" strokeLinejoin="round"/>
<path d="M2.96484 9.45215C4.65234 10.6071 6.55734 11.3046 8.49984 11.5221" stroke="white" strokeMiterlimit="10" strokeLinecap="round" strokeLinejoin="round"/>
</svg>
