<svg width="20" height="20" viewBox="0 0 20 20" fill="none" xmlns="http://www.w3.org/2000/svg">
<path fill-rule="evenodd" clip-rule="evenodd" d="M8.72775 14.5228H3.92691C3.61147 14.5228 3.35547 14.2668 3.35547 13.9513C3.35547 13.6359 3.61147 13.3799 3.92691 13.3799H8.72775C9.04319 13.3799 9.29919 13.6359 9.29919 13.9513C9.29919 14.2668 9.04319 14.5228 8.72775 14.5228Z" fill="#212121"/>
<path fill-rule="evenodd" clip-rule="evenodd" d="M15.6699 7.13799H10.8698C10.5543 7.13799 10.2983 6.88199 10.2983 6.56656C10.2983 6.25112 10.5543 5.99512 10.8698 5.99512H15.6699C15.9853 5.99512 16.2413 6.25112 16.2413 6.56656C16.2413 6.88199 15.9853 7.13799 15.6699 7.13799Z" fill="#212121"/>
<mask id="mask0_0_122" style="mask-type:luminance" maskUnits="userSpaceOnUse" x="3" y="4" width="6" height="5">
<path fill-rule="evenodd" clip-rule="evenodd" d="M3.3335 4.1665H8.07704V8.884H3.3335V4.1665Z" fill="white"/>
</mask>
<g mask="url(#mask0_0_122)">
<path fill-rule="evenodd" clip-rule="evenodd" d="M5.70536 5.30893C5.02802 5.30893 4.47639 5.85447 4.47639 6.52572C4.47639 7.1962 5.02802 7.74097 5.70536 7.74097C6.38347 7.74097 6.93434 7.1962 6.93434 6.52572C6.93434 5.85447 6.38347 5.30893 5.70536 5.30893ZM5.70535 8.88381C4.3979 8.88381 3.3335 7.82627 3.3335 6.52568C3.3335 5.22508 4.3979 4.16602 5.70535 4.16602C7.01356 4.16602 8.0772 5.22508 8.0772 6.52568C8.0772 7.82627 7.01356 8.88381 5.70535 8.88381Z" fill="#212121"/>
</g>
<path fill-rule="evenodd" clip-rule="evenodd" d="M14.296 12.7059C13.6178 12.7059 13.0662 13.2514 13.0662 13.9219C13.0662 14.5931 13.6178 15.1379 14.296 15.1379C14.9733 15.1379 15.5242 14.5931 15.5242 13.9219C15.5242 13.2514 14.9733 12.7059 14.296 12.7059ZM14.296 16.2808C12.9877 16.2808 11.9233 15.2225 11.9233 13.9219C11.9233 12.6213 12.9877 11.563 14.296 11.563C15.6034 11.563 16.667 12.6213 16.667 13.9219C16.667 15.2225 15.6034 16.2808 14.296 16.2808Z" fill="#212121"/>
</svg>
