<svg width="20" height="20" viewBox="0 0 20 20" fill="none" xmlns="http://www.w3.org/2000/svg">
<path d="M17.125 9.175V4.075C17.125 2.95 16.645 2.5 15.4525 2.5H12.4225C11.23 2.5 10.75 2.95 10.75 4.075V9.175C10.75 10.3 11.23 10.75 12.4225 10.75H15.4525C16.645 10.75 17.125 10.3 17.125 9.175Z" fill="white"/>
<path d="M9.25 10.825V15.925C9.25 17.05 8.77 17.5 7.5775 17.5H4.5475C3.355 17.5 2.875 17.05 2.875 15.925V10.825C2.875 9.7 3.355 9.25 4.5475 9.25H7.5775C8.77 9.25 9.25 9.7 9.25 10.825Z" fill="white"/>
<path d="M17.125 15.925V13.825C17.125 12.7 16.645 12.25 15.4525 12.25H12.4225C11.23 12.25 10.75 12.7 10.75 13.825V15.925C10.75 17.05 11.23 17.5 12.4225 17.5H15.4525C16.645 17.5 17.125 17.05 17.125 15.925Z" fill="white"/>
<path d="M9.25 6.175V4.075C9.25 2.95 8.77 2.5 7.5775 2.5H4.5475C3.355 2.5 2.875 2.95 2.875 4.075V6.175C2.875 7.3 3.355 7.75 4.5475 7.75H7.5775C8.77 7.75 9.25 7.3 9.25 6.175Z" fill="white"/>
</svg>
