<svg width="21" height="18" viewBox="0 0 21 18" fill="none" xmlns="http://www.w3.org/2000/svg">
<path fill-rule="evenodd" clip-rule="evenodd" d="M20.4001 1.12958H17.2942L15.6707 5.78851L13.9765 1.12958H10.8001V8.38387L7.55296 1.12958H4.94131L1.69418 8.54135H3.95293L4.58821 7.05908H7.97656L8.61185 8.54135H12.8472V3.38834L14.753 8.54135H16.5177L18.4236 3.38834V8.54135H20.4001V9.67073H17.7883L15.6707 12.0002L13.4825 9.67073H4.51772V17.0825H13.412L15.6 14.6825L17.7883 17.0825H20.4001V18H17.2942L15.6 16.1648L13.9058 18H3.38834V9.52953H0L4.23532 0H8.32944L9.81172 3.24714V0H14.8942L15.7412 2.47066L16.5884 0H20.4001V1.12958ZM20.4001 11.2942L18.4943 13.3413L20.4001 15.3883V17.0825L16.9413 13.3413L20.4001 9.67073V11.2942ZM10.8001 17.0825V15.3178H6.56478V14.1885H10.7294V12.4943H6.56478V11.3649H10.8001V9.67073L14.3294 13.3413L10.8001 17.0825ZM5.2235 5.43541L6.21189 3.03545L7.20007 5.43541H5.2235Z" fill="white"/>
</svg>
