<svg width="90" height="24" viewBox="0 0 90 24" fill="none" xmlns="http://www.w3.org/2000/svg">
<path d="M7.98393 24.0004C6.5786 24.0004 5.33543 23.7135 4.2544 23.1397C3.18169 22.5576 2.34182 21.7468 1.73477 20.7074C1.12773 19.6596 0.824219 18.4289 0.824219 17.0153V5.67698L3.46857 5.66451V16.8781C3.46857 17.6431 3.59746 18.3166 3.85525 18.8988C4.11304 19.4809 4.45812 19.9674 4.89054 20.3581C5.32295 20.7489 5.80525 21.0442 6.33745 21.2437C6.87796 21.4433 7.42679 21.5431 7.98393 21.5431C8.54939 21.5431 9.09822 21.4433 9.63042 21.2437C10.1709 21.0358 10.6574 20.7364 11.0898 20.3457C11.5222 19.9549 11.8632 19.4684 12.1126 18.8863C12.3704 18.3041 12.4993 17.6348 12.4993 16.8781V5.66451H15.1436V17.0153C15.1436 18.4207 14.8402 19.6472 14.2331 20.6949C13.6261 21.7427 12.782 22.5576 11.701 23.1397C10.6283 23.7135 9.38927 24.0004 7.98393 24.0004ZM28.0876 23.6262V17.0028C28.0876 16.4789 28.042 15.9426 27.9504 15.3937C27.8674 14.8365 27.701 14.321 27.4515 13.847C27.2104 13.373 26.8652 12.9905 26.4162 12.6995C25.9755 12.4085 25.3976 12.2629 24.6824 12.2629C24.2168 12.2629 23.7761 12.3419 23.3602 12.4999C22.9445 12.6496 22.5787 12.895 22.2626 13.2358C21.955 13.5767 21.7096 14.0258 21.5266 14.583C21.352 15.1402 21.2647 15.8178 21.2647 16.6161L19.6432 16.0049C19.6432 14.7825 19.8719 13.7057 20.3292 12.7743C20.7866 11.8347 21.4436 11.1029 22.3 10.579C23.1565 10.0551 24.1918 9.79319 25.4059 9.79319C26.3373 9.79319 27.119 9.94287 27.7509 10.2422C28.3829 10.5416 28.8943 10.9366 29.2851 11.4272C29.6842 11.9096 29.9878 12.4375 30.1956 13.0113C30.4036 13.5851 30.5449 14.1464 30.6197 14.6952C30.6946 15.2441 30.732 15.7264 30.732 16.1421V23.6262H28.0876ZM18.6203 23.6262V10.1549H20.9529V14.0466H21.2647V23.6262H18.6203ZM34.2304 7.94713V5.41504H36.8373V7.94713H34.2304ZM34.2304 23.6262V10.1549H36.8373V23.6262H34.2304Z" fill="#212121"/>
<path fill-rule="evenodd" clip-rule="evenodd" d="M46.9634 0.46759C46.38 0.155858 45.7134 0 44.9634 0C44.2135 0 43.5492 0.158192 42.9704 0.47456C42.3871 0.790944 41.9312 1.23294 41.6025 1.80055C41.269 2.37282 41.1025 3.04047 41.1025 3.8035V10.259H41.908V3.97098C41.908 3.39872 42.0051 2.90787 42.1996 2.49845C42.3895 2.09366 42.6372 1.76334 42.9427 1.50744C43.2482 1.25155 43.5793 1.06311 43.9357 0.94215C44.2922 0.821188 44.6347 0.7607 44.9634 0.7607C45.2921 0.7607 45.6347 0.821188 45.9912 0.94215C46.3429 1.06311 46.674 1.25155 46.9842 1.50744C47.2897 1.76334 47.5398 2.09366 47.7342 2.49845C47.924 2.90787 48.0189 3.39872 48.0189 3.97098V10.259H48.8244V3.8035C48.8244 3.03581 48.66 2.36585 48.3313 1.79357C47.9981 1.22596 47.542 0.783959 46.9634 0.46759ZM44.5688 18.4899V5.13609H45.3025V18.4899H44.5688ZM53.0213 5.66438V7.26097H54.0691V5.66438H53.0213ZM53.0213 10.1548V23.626H54.0691V10.1548H53.0213ZM67.8184 16.4913V23.626H68.8662V16.2917C68.8662 15.4934 68.7872 14.7616 68.6292 14.0964C68.4713 13.4228 68.2384 12.8241 67.9307 12.3002C67.6231 11.7763 67.2446 11.3356 66.7956 10.978C66.3549 10.6122 65.8476 10.3336 65.2738 10.1423C64.7084 9.95107 64.0848 9.85543 63.4028 9.85543C62.4133 9.85543 61.4987 10.0716 60.6587 10.504C59.9002 10.8985 59.2765 11.5076 58.7877 12.3312V10.1548H57.8148V23.626H58.8625V16.2667C58.8625 15.5433 58.9457 14.8573 59.112 14.2086C59.2784 13.56 59.5403 12.9862 59.8978 12.4873C60.2554 11.9884 60.7211 11.5976 61.2948 11.3148C61.877 11.0238 62.5796 10.8782 63.4028 10.8782C64.1013 10.8782 64.7209 10.9905 65.2614 11.215C65.8102 11.4396 66.276 11.7847 66.6584 12.2503C67.0409 12.7077 67.3278 13.2897 67.519 13.9966C67.7186 14.6951 67.8184 15.5267 67.8184 16.4913ZM72.1153 5.66438V23.626H73.163V17.1399L80.7468 23.626H82.543L74.4353 16.8904L81.4703 10.1548H79.8986L73.163 16.6409V5.66438H72.1153ZM84.7577 10.1548H83.7848V23.626H84.8325V16.9902C84.8325 16.4414 84.8534 15.8635 84.8949 15.2564C84.9364 14.6411 85.0529 14.0465 85.2441 13.4727C85.4437 12.8989 85.7805 12.3916 86.2545 11.951C86.7949 11.452 87.3771 11.1651 88.0008 11.0903C88.6244 11.0071 89.2148 11.0279 89.772 11.1527V10.1548C89.3812 10.0301 88.9321 9.98432 88.4248 10.0176C87.9176 10.0425 87.4104 10.1506 86.9031 10.3419C86.4042 10.5248 85.9717 10.7951 85.6059 11.1527C85.3979 11.3522 85.1859 11.61 84.9697 11.926C84.8944 12.0359 84.8239 12.1489 84.7577 12.2648V10.1548ZM42.9079 23.2141C43.4912 23.5258 44.1579 23.6817 44.9079 23.6817C45.6578 23.6817 46.3221 23.5235 46.9008 23.2071C47.4842 22.8907 47.9401 22.4487 48.2688 21.8811C48.6022 21.3088 48.7688 20.6412 48.7688 19.8782V13.4227H47.9633V19.7107C47.9633 20.2829 47.8661 20.7737 47.6717 21.1832C47.4818 21.588 47.2341 21.9184 46.9286 22.1743C46.6231 22.4301 46.292 22.6185 45.9356 22.7395C45.5791 22.8605 45.2366 22.9209 44.9079 22.9209C44.5792 22.9209 44.2365 22.8605 43.8801 22.7395C43.5283 22.6185 43.1973 22.4301 42.8871 22.1743C42.5815 21.9184 42.3315 21.588 42.137 21.1832C41.9473 20.7737 41.8524 20.2829 41.8524 19.7107V13.4227H41.0469V19.8782C41.0469 20.6458 41.2112 21.3158 41.5399 21.8881C41.8732 22.4557 42.3293 22.8977 42.9079 23.2141Z" fill="url(#paint0_linear_3890_143266)"/>
<defs>
<linearGradient id="paint0_linear_3890_143266" x1="41.0469" y1="11.8864" x2="89.7664" y2="11.8864" gradientUnits="userSpaceOnUse">
<stop stop-color="#007FB6"/>
<stop offset="1" stop-color="#C08CFB"/>
</linearGradient>
</defs>
</svg>
