<svg width="78" height="44" viewBox="0 0 78 44" fill="none" xmlns="http://www.w3.org/2000/svg">
<g clip-path="url(#clip0_3351_27175)">
<path fill-rule="evenodd" clip-rule="evenodd" d="M7.83693 42.7798H71.2648C71.5979 42.7798 71.87 43.0539 71.87 43.3897C71.87 43.7256 71.5982 44 71.2648 44H7.83693C7.50351 44 7.23167 43.7256 7.23167 43.3897C7.23167 43.0539 7.50379 42.7798 7.83693 42.7798ZM76.8216 42.7798H76.8149C76.4817 42.7798 76.2096 43.0539 76.2096 43.3897C76.2096 43.7256 76.4814 44 76.8149 44H76.8216C77.1547 44 77.4268 43.7256 77.4268 43.3897C77.4266 43.0539 77.1547 42.7798 76.8216 42.7798ZM74.7676 42.7798H73.7541C73.4207 42.7798 73.1486 43.0539 73.1486 43.3897C73.1486 43.7256 73.4207 44 73.7541 44H74.7676C75.1007 44 75.3728 43.7256 75.3728 43.3897C75.3728 43.0539 75.1007 42.7798 74.7676 42.7798ZM4.64714 42.7798H1.1785C0.845358 42.7798 0.573242 43.0539 0.573242 43.3897C0.573242 43.7256 0.845358 44 1.1785 44H4.64714C4.98028 44 5.2524 43.7256 5.2524 43.3897C5.2524 43.0539 4.98056 42.7798 4.64714 42.7798Z" fill="#006491"/>
<path fill-rule="evenodd" clip-rule="evenodd" d="M16.6175 6.14189H15.6516V5.17514C15.6516 4.88707 15.4204 4.64734 15.1279 4.64734C14.8423 4.64734 14.6111 4.88735 14.6111 5.17514V6.14189H13.6452C13.3597 6.14189 13.1284 6.38162 13.1284 6.66969C13.1284 6.95748 13.3597 7.19749 13.6452 7.19749H14.6111V8.16424C14.6111 8.45203 14.8423 8.69204 15.1279 8.69204C15.4204 8.69204 15.6516 8.45203 15.6516 8.16424V7.19749H16.6175C16.903 7.19749 17.1343 6.95748 17.1343 6.66969C17.1343 6.38162 16.903 6.14189 16.6175 6.14189Z" fill="#006491"/>
<path fill-rule="evenodd" clip-rule="evenodd" d="M72.2241 34.642H71.2583V33.6686C71.2583 33.3805 71.0203 33.1475 70.7345 33.1475C70.4489 33.1475 70.2177 33.3805 70.2177 33.6686V34.642H69.2518C68.9663 34.642 68.728 34.875 68.728 35.1631C68.728 35.4576 68.966 35.6909 69.2518 35.6909H70.2177V36.6644C70.2177 36.9524 70.4489 37.1855 70.7345 37.1855C71.02 37.1855 71.2583 36.9524 71.2583 36.6644V35.6909H72.2241C72.5096 35.6909 72.7409 35.4579 72.7409 35.1631C72.7409 34.8748 72.5096 34.642 72.2241 34.642Z" fill="#006491"/>
<path fill-rule="evenodd" clip-rule="evenodd" d="M65.9193 17.8338C66.4501 17.8338 66.8851 17.4018 66.8851 16.867C66.8851 16.3392 66.4501 15.9003 65.9193 15.9003C65.3958 15.9003 64.9604 16.3392 64.9604 16.867C64.9604 17.4018 65.3955 17.8338 65.9193 17.8338Z" fill="#006491"/>
<path fill-rule="evenodd" clip-rule="evenodd" d="M9.60463 39.119C10.1284 39.119 10.5635 38.6871 10.5635 38.1523C10.5635 37.6175 10.1284 37.1855 9.60463 37.1855C9.07412 37.1855 8.64551 37.6175 8.64551 38.1523C8.64551 38.6871 9.07412 39.119 9.60463 39.119Z" fill="#006491"/>
<path opacity="0.1" fill-rule="evenodd" clip-rule="evenodd" d="M35.4831 6.91705C49.9783 2.69855 71.6188 19.5108 60.861 35.5893C60.1085 36.7175 59.4369 37.451 58.5043 38.4225C56.8126 40.0336 55.6001 41.3308 54.2695 42.7793H20.7517C15.0868 37.0185 12.1764 29.0699 15.9322 20.8645C19.4521 13.1856 25.1917 11.7312 32.082 8.23976C32.9711 7.78852 33.6491 7.54404 34.5817 7.21182L35.4831 6.91705Z" fill="#006491"/>
<g clip-path="url(#clip1_3351_27175)">
<path fill-rule="evenodd" clip-rule="evenodd" d="M53.1755 31.9057H47.2569C46.1711 31.9057 45.2875 31.0278 45.2875 29.9486V29.0445H44.0439C43.5616 31.003 41.5792 30.9731 40.7838 31.4565C39.088 32.4879 38.431 35.1006 37.9554 36.6619C36.8435 40.3138 32.2511 39.5828 32.1727 35.2009C32.1461 33.7444 32.6117 32.3713 33.1831 31.2447H25.73C23.9978 31.2447 22.179 29.7325 22.6482 27.9304L25.4205 17.2932C25.8952 15.4706 27.0182 14.4254 28.5016 14.4254H29.0037C26.8752 7.83999 31.8235 1 38.86 1C45.5955 1 50.5182 7.3098 48.9055 13.764L53.175 13.7642C54.2611 13.7642 55.1447 14.6421 55.1447 15.7214V29.9486C55.1449 31.0278 54.2617 31.9057 53.1755 31.9057ZM32.7937 17.2782C35.5367 19.9752 39.6112 20.5541 42.9476 18.7559C45.6084 17.3121 47.4176 14.5049 47.4176 11.2857C47.4176 6.59612 43.5789 2.7809 38.8602 2.7809C34.1416 2.7809 30.3026 6.59626 30.3026 11.2857C30.3023 13.6213 31.2549 15.7398 32.7937 17.2782ZM38.86 21.5719C34.9842 21.5239 31.5705 19.4824 29.77 16.2065C28.3701 16.2067 27.6196 15.9598 27.156 17.7399L24.3835 28.3767C24.2451 28.9061 25.0626 29.4634 25.73 29.4634H34.7481C35.4636 29.4634 35.8912 30.263 35.4908 30.8525C32.0343 35.9422 35.3832 38.9568 36.2412 36.1444C36.7988 34.3165 37.5485 31.3363 39.8489 29.9372C41.2305 29.0969 42.3519 29.6015 42.3519 28.1538C42.3519 27.6616 42.753 27.2629 43.2483 27.2629H45.2876V19.3465C43.4206 20.8161 41.2475 21.5393 38.86 21.5719ZM35.7741 15.2435C36.0033 15.2435 36.2327 15.1561 36.408 14.9824L38.8599 12.5454L41.3121 14.9828C42.14 15.8055 43.4229 14.5615 42.5791 13.7227L40.1271 11.2857L42.5791 8.84842C43.4147 8.01837 42.1461 6.75948 41.3121 7.58899L38.8599 10.0263L36.4077 7.58899C35.5733 6.75988 34.3059 8.01931 35.1402 8.84842L37.5925 11.2858L35.1402 13.7231C34.5743 14.2855 34.9824 15.2435 35.7741 15.2435ZM47.0799 17.5363V29.9485C47.0799 30.0439 47.1611 30.1244 47.2569 30.1244H53.1755C53.2716 30.1244 53.3525 30.0434 53.3525 29.9485V15.7214C53.3525 15.6257 53.2713 15.5455 53.1755 15.5455H48.2827C47.9596 16.2515 47.5567 16.9183 47.0799 17.5363Z" fill="#006491"/>
</g>
</g>
<defs>
<clipPath id="clip0_3351_27175">
<rect width="76.8533" height="44" fill="white" transform="translate(0.573242)"/>
</clipPath>
<clipPath id="clip1_3351_27175">
<rect width="32.5714" height="38" fill="white" transform="translate(22.5732 1)"/>
</clipPath>
</defs>
</svg>
