<svg width="65" height="64" viewBox="0 0 65 64" fill="none" xmlns="http://www.w3.org/2000/svg">
<rect x="0.5" y="0.000488281" width="64" height="63.9989" rx="31.9995" fill="#FDC40E"/>
<path d="M32.4991 41.4615C32.8958 41.4615 33.222 41.3339 33.4778 41.0787C33.7336 40.8235 33.8615 40.4975 33.8615 40.1008C33.8615 39.7041 33.7339 39.3778 33.4787 39.1221C33.2235 38.8663 32.8976 38.7384 32.5009 38.7384C32.1041 38.7384 31.7779 38.866 31.5221 39.1212C31.2663 39.3764 31.1385 39.7023 31.1385 40.0991C31.1385 40.4958 31.266 40.822 31.5212 41.0778C31.7764 41.3336 32.1023 41.4615 32.4991 41.4615ZM32.621 34.4077C32.9454 34.4077 33.2141 34.299 33.4269 34.0817C33.6397 33.8644 33.7461 33.5949 33.7461 33.2731V23.0653C33.7461 22.7435 33.6365 22.474 33.4174 22.2567C33.1983 22.0394 32.9265 21.9308 32.6021 21.9308C32.2776 21.9308 32.0089 22.0394 31.7961 22.2567C31.5833 22.474 31.4769 22.7435 31.4769 23.0653V33.2731C31.4769 33.5949 31.5865 33.8644 31.8056 34.0817C32.0247 34.299 32.2965 34.4077 32.621 34.4077ZM32.5166 50.9999C29.8848 50.9999 27.4198 50.5012 25.1218 49.5039C22.8237 48.5066 20.8111 47.1447 19.084 45.4184C17.3569 43.692 15.9944 41.6791 14.9967 39.3796C13.9989 37.08 13.5 34.6129 13.5 31.9783C13.5 29.3565 13.9987 26.8921 14.996 24.5851C15.9933 22.2781 17.3552 20.2694 19.0815 18.559C20.8079 16.8485 22.8208 15.4944 25.1203 14.4967C27.4199 13.4989 29.887 13 32.5216 13C35.1434 13 37.6078 13.4987 39.9148 14.496C42.2218 15.4933 44.2305 16.8468 45.9409 18.5565C47.6514 20.2662 49.0055 22.2767 50.0033 24.588C51.001 26.8992 51.4999 29.3643 51.4999 31.9833C51.4999 34.6151 51.0012 37.0801 50.0039 39.3782C49.0066 41.6762 47.6531 43.6857 45.9434 45.4067C44.2337 47.1277 42.2232 48.4901 39.912 49.494C37.6007 50.4979 35.1356 50.9999 32.5166 50.9999ZM32.525 48.7307C37.1647 48.7307 41.1089 47.1012 44.3577 43.8423C47.6064 40.5833 49.2307 36.6275 49.2307 31.975C49.2307 27.3352 47.6095 23.391 44.367 20.1423C41.1245 16.8936 37.1688 15.2692 32.5 15.2692C27.864 15.2692 23.9166 16.8904 20.6577 20.1329C17.3987 23.3754 15.7692 27.3311 15.7692 32C15.7692 36.6359 17.3987 40.5833 20.6577 43.8423C23.9166 47.1012 27.8724 48.7307 32.525 48.7307Z" fill="white"/>
</svg>
