<svg width="16" height="15" viewBox="0 0 16 15" fill="none" xmlns="http://www.w3.org/2000/svg">
<path d="M6.16596 1.38892C4.56485 1.38892 3.26318 2.69058 3.26318 4.29169C3.26318 5.86225 4.49152 7.13336 6.09263 7.18836C6.14152 7.18225 6.19041 7.18225 6.22707 7.18836C6.2393 7.18836 6.24541 7.18836 6.25763 7.18836C6.26374 7.18836 6.26374 7.18836 6.26985 7.18836C7.83429 7.13336 9.06263 5.86225 9.06874 4.29169C9.06874 2.69058 7.76707 1.38892 6.16596 1.38892Z" fill="#212121"/>
<path d="M9.2719 8.81368C7.5669 7.67701 4.78635 7.67701 3.06912 8.81368C2.29301 9.33313 1.86523 10.0359 1.86523 10.7876C1.86523 11.5392 2.29301 12.2359 3.06301 12.7492C3.91857 13.3237 5.04301 13.6109 6.16746 13.6109C7.2919 13.6109 8.41635 13.3237 9.2719 12.7492C10.0419 12.2298 10.4697 11.5331 10.4697 10.7753C10.4636 10.0237 10.0419 9.32702 9.2719 8.81368Z" fill="#212121"/>
<path d="M12.8824 4.65231C12.9802 5.83787 12.1368 6.87675 10.9696 7.01731C10.9635 7.01731 10.9635 7.01731 10.9574 7.01731H10.9391C10.9024 7.01731 10.8657 7.01731 10.8352 7.02953C10.2424 7.06009 9.69851 6.87064 9.28906 6.52231C9.91851 5.96009 10.2791 5.11675 10.2057 4.20009C10.163 3.70509 9.99184 3.25287 9.73517 2.86787C9.9674 2.75175 10.2363 2.67842 10.5113 2.65398C11.7091 2.55009 12.7785 3.44231 12.8824 4.65231Z" fill="#212121"/>
<path d="M14.1047 10.3049C14.0558 10.8976 13.6769 11.411 13.0414 11.7593C12.4303 12.0954 11.6603 12.2543 10.8964 12.236C11.3364 11.8388 11.593 11.3438 11.6419 10.8182C11.703 10.0604 11.3425 9.3332 10.6214 8.75264C10.2119 8.42875 9.73526 8.17208 9.21582 7.98264C10.5664 7.59153 12.2653 7.85431 13.3103 8.69764C13.8725 9.14986 14.1597 9.7182 14.1047 10.3049Z" fill="#212121"/>
</svg>
