<svg width="120" height="120" viewBox="0 0 120 120" fill="none" xmlns="http://www.w3.org/2000/svg">
<rect width="120" height="120" rx="60" fill="#F4F6FA"/>
<rect width="120" height="120" rx="60" stroke="#E5E7EB"/>
<mask id="mask0_3890_197922" style="mask-type:alpha" maskUnits="userSpaceOnUse" x="44" y="44" width="32" height="32">
<rect x="44" y="44" width="32" height="32" fill="#D9D9D9"/>
</mask>
<g mask="url(#mask0_3890_197922)">
<path d="M59.9987 66.8205C61.5286 66.8205 62.8256 66.2885 63.8897 65.2244C64.9538 64.1603 65.4858 62.8633 65.4858 61.3334C65.4858 59.8035 64.9538 58.5065 63.8897 57.4424C62.8256 56.3783 61.5286 55.8462 59.9987 55.8462C58.4688 55.8462 57.1718 56.3783 56.1077 57.4424C55.0436 58.5065 54.5115 59.8035 54.5115 61.3334C54.5115 62.8633 55.0436 64.1603 56.1077 65.2244C57.1718 66.2885 58.4688 66.8205 59.9987 66.8205ZM59.9987 64.8206C59.014 64.8206 58.1867 64.4855 57.5166 63.8155C56.8465 63.1454 56.5115 62.318 56.5115 61.3334C56.5115 60.3488 56.8465 59.5214 57.5166 58.8513C58.1867 58.1812 59.014 57.8462 59.9987 57.8462C60.9833 57.8462 61.8106 58.1812 62.4807 58.8513C63.1508 59.5214 63.4859 60.3488 63.4859 61.3334C63.4859 62.318 63.1508 63.1454 62.4807 63.8155C61.8106 64.4855 60.9833 64.8206 59.9987 64.8206ZM49.7423 71.3334C49.0688 71.3334 48.4987 71.1 48.032 70.6334C47.5654 70.1667 47.332 69.5966 47.332 68.9231V53.7437C47.332 53.0702 47.5654 52.5001 48.032 52.0334C48.4987 51.5667 49.0688 51.3334 49.7423 51.3334H53.8141L55.5577 49.4437C55.7765 49.2027 56.041 49.0129 56.3513 48.8744C56.6615 48.736 56.9884 48.6667 57.332 48.6667H62.6653C63.0089 48.6667 63.3358 48.736 63.6461 48.8744C63.9563 49.0129 64.2209 49.2027 64.4397 49.4437L66.1833 51.3334H70.255C70.9285 51.3334 71.4986 51.5667 71.9653 52.0334C72.432 52.5001 72.6653 53.0702 72.6653 53.7437V68.9231C72.6653 69.5966 72.432 70.1667 71.9653 70.6334C71.4986 71.1 70.9285 71.3334 70.255 71.3334H49.7423ZM49.7423 69.3334H70.255C70.3747 69.3334 70.473 69.2949 70.5499 69.218C70.6269 69.1411 70.6653 69.0427 70.6653 68.9231V53.7437C70.6653 53.624 70.6269 53.5257 70.5499 53.4488C70.473 53.3718 70.3747 53.3334 70.255 53.3334H65.291L62.8448 50.6667H57.1525L54.7064 53.3334H49.7423C49.6226 53.3334 49.5243 53.3718 49.4474 53.4488C49.3705 53.5257 49.332 53.624 49.332 53.7437V68.9231C49.332 69.0427 49.3705 69.1411 49.4474 69.218C49.5243 69.2949 49.6226 69.3334 49.7423 69.3334Z" fill="#212121"/>
</g>
</svg>
