<svg width="24" height="25" viewBox="0 0 24 25" fill="none" xmlns="http://www.w3.org/2000/svg">
<mask id="mask0_5231_65620" style="mask-type:alpha" maskUnits="userSpaceOnUse" x="0" y="0" width="24" height="25">
<rect y="0.5" width="24" height="24" fill="#D9D9D9"/>
</mask>
<g mask="url(#mask0_5231_65620)">
<path d="M18.7712 18H15C14.7875 18 14.6094 17.9281 14.4656 17.7843C14.3219 17.6404 14.25 17.4622 14.25 17.2497C14.25 17.0371 14.3219 16.859 14.4656 16.7154C14.6094 16.5718 14.7875 16.5 15 16.5H18.7712L17.4577 15.1673C17.3192 15.0288 17.2516 14.8573 17.2548 14.6529C17.258 14.4484 17.334 14.2712 17.4827 14.1214C17.619 13.9841 17.7925 13.9154 18.0032 13.9154C18.2139 13.9154 18.3884 13.9846 18.5269 14.1231L21.0115 16.6173C21.0948 16.7006 21.1583 16.7975 21.2019 16.9079C21.2455 17.0182 21.2673 17.1323 21.2673 17.25C21.2673 17.3677 21.2455 17.4817 21.2019 17.5921C21.1583 17.7025 21.0948 17.7993 21.0115 17.8827L18.5173 20.3769C18.3788 20.5153 18.2073 20.5855 18.0029 20.5875C17.7984 20.5894 17.6212 20.5154 17.4714 20.3656C17.3341 20.2283 17.2654 20.0564 17.2654 19.85C17.2654 19.6436 17.3346 19.4711 17.4731 19.3327L18.7712 18ZM4.05768 18C3.56056 18 3.135 17.823 2.781 17.469C2.427 17.115 2.25 16.6894 2.25 16.1923V6.30768C2.25 5.81056 2.427 5.385 2.781 5.031C3.135 4.677 3.56056 4.5 4.05768 4.5H16.9423C17.4394 4.5 17.865 4.677 18.219 5.031C18.573 5.385 18.75 5.81056 18.75 6.30768V10.7962C18.75 10.9923 18.674 11.1663 18.5221 11.3183C18.3702 11.4702 18.1948 11.5462 17.9959 11.5462C17.7845 11.5462 17.6074 11.4743 17.4644 11.3305C17.3215 11.1868 17.25 11.0087 17.25 10.7962V7.073L10.4 11.9423L3.74995 7.0884V16.1923C3.74995 16.282 3.7788 16.3558 3.8365 16.4135C3.8942 16.4712 3.96792 16.5 4.05768 16.5H11.5462C11.7587 16.5 11.9368 16.5719 12.0805 16.7157C12.2243 16.8595 12.2961 17.0377 12.2961 17.2503C12.2961 17.4629 12.2243 17.641 12.0805 17.7846C11.9368 17.9282 11.7587 18 11.5462 18H4.05768ZM4.79607 5.99995L10.4 10.1077L16.1731 5.99995H4.79607Z" fill="#1C1B1F"/>
</g>
</svg>
