<svg width="40" height="26" viewBox="0 0 40 26" fill="none" xmlns="http://www.w3.org/2000/svg">
<rect width="40" height="26" fill="#F5F5F5"/>
<rect x="0.5" y="0.5" width="38.2537" height="25" rx="4.5" fill="#1434CB"/>
<rect x="0.5" y="0.5" width="38.2537" height="25" rx="4.5" stroke="#D6DCE5"/>
<path d="M19.3991 9.08883L17.6615 17.2115H15.5603L17.2982 9.08883H19.3991ZM28.2395 14.3336L29.3457 11.2833L29.9823 14.3336H28.2395ZM30.5839 17.2115H32.5274L30.8314 9.08883H29.0375C28.6344 9.08883 28.2943 9.3233 28.1428 9.68476L24.9905 17.2115H27.197L27.6351 15.9985H30.3309L30.5839 17.2115ZM25.1 14.5594C25.109 12.4155 22.1353 12.2975 22.1558 11.3399C22.162 11.0481 22.4399 10.7386 23.0469 10.6591C23.3485 10.6198 24.1776 10.5897 25.119 11.0229L25.4877 9.30042C24.982 9.11686 24.3313 8.94024 23.522 8.94024C21.4452 8.94024 19.9835 10.0444 19.9711 11.6255C19.958 12.7947 21.0146 13.4472 21.8108 13.8359C22.6294 14.2341 22.9045 14.4892 22.9009 14.8452C22.8955 15.3905 22.2479 15.6306 21.6437 15.6401C20.5871 15.6569 19.9739 15.355 19.4852 15.1273L19.1045 16.9071C19.5953 17.1325 20.5015 17.3284 21.4417 17.3385C23.6487 17.3385 25.0928 16.2479 25.1 14.5594ZM16.3966 9.08883L12.9923 17.2115H10.7708L9.09564 10.729C8.99384 10.3298 8.9054 10.1838 8.59613 10.0154C8.09147 9.74158 7.25723 9.48423 6.52325 9.32484L6.57338 9.08883H10.1487C10.6042 9.08883 11.0143 9.3922 11.1176 9.91691L12.0025 14.6175L14.189 9.08883H16.3966Z" fill="white"/>
</svg>
